<?xml version='1.0' encoding='utf-8'?>
<svg xmlns="http://www.w3.org/2000/svg"
     xmlns:inkscape="http://www.inkscape.org/namespaces/inkscape"
     xmlns:sodipodi="http://sodipodi.sourceforge.net/DTD/sodipodi-0.0.dtd"
     inkscape:document-units="mm" width="325.0mm" height="1000.0mm" viewBox="0 0 325000 1000000"><defs>
<sodipodi:namedview inkscape:document-units="mm" units="mm" />
<style>
  .C1 { stroke:#777777; stroke-width:180;  fill:none; stroke-opacity:1; stroke-dasharray:1500 500 100 500; }
  .C2 { stroke:#000000; stroke-width:250;  fill:none; stroke-opacity:1; }
  .C3 { stroke:#444444; stroke-width:150;  fill:none; stroke-opacity:1; }
  .C4 { stroke:none; fill:#222222; fill-opacity:1; }
  .C5 { stroke:#888888; stroke-width:130;  fill:none; stroke-opacity:1; }
  .C6 { stroke:#007700; stroke-width:180;  fill:none; stroke-opacity:1; }
  .C7 { stroke:#005588; stroke-width:180;  fill:none; stroke-opacity:1; }
  .C8 { stroke:none; fill:#222222; fill-opacity:1; }
</style>
</defs><rect fill="#ffffff" x="0" y="0" width="325000.0" height="1000000.0" fill-opacity="1.0" />
<g stroke-linecap="round" stroke-linejoin="round" fill-rule="evenodd"><path d="M 156431 988083 l 12138 0 l 0 -135942 l -12138 0 l 0 135942" class="C1" /><path d="M 0 988083 l 325000 -0" class="C2" /><path d="M 234038 713772 l 0 42482 l -143224 0 l 0 -42482" class="C2" /><path d="M 90814 706563 l 0 -144512 l 143224 0 l 0 144512" class="C2" /><path d="M 90814 562051 l 143224 0 l -40054 -26703 l -63116 0 l -40054 26703" class="C2" /><path d="M 90814 756254 l 143224 0 l -60688 95888 l -21848 0 l -60688 -95888" class="C2" /><path d="M 173350 639732 c 0 6033 -4891 10924 -10924 10924 c -6033 0 -10924 -4891 -10924 -10924 c 0 -6033 4891 -10924 10924 -10924 c 6033 0 10924 4891 10924 10924" class="C2" /><path d="M 156357 645801 l 12138 0 l 0 -12138 l -12138 0 l 0 12138" class="C2" /><path d="M 173350 685855 c 0 6033 -4891 10924 -10924 10924 c -6033 0 -10924 -4891 -10924 -10924 c 0 -6033 4891 -10924 10924 -10924 c 6033 0 10924 4891 10924 10924" class="C2" /><path d="M 156357 691924 l 12138 0 l 0 -12138 l -12138 0 l 0 12138" class="C2" /><path d="M 173350 731978 c 0 6033 -4891 10924 -10924 10924 c -6033 0 -10924 -4891 -10924 -10924 c 0 -6033 4891 -10924 10924 -10924 c 6033 0 10924 4891 10924 10924" class="C2" /><path d="M 156357 738047 l 12138 0 l 0 -12138 l -12138 0 l 0 12138" class="C2" /><path d="M 78676 562051 l 167500 0" class="C2" /><path d="M 89186 756254 l 146480 0" class="C2" /><path d="M 139364 852141 l 46123 0" class="C2" /><path d="M 118730 535348 l 87391 0" class="C2" /><path d="M 51218 985655 l -0 -131087" class="C3" /><path d="M 46772 988083 l 8892 0" class="C3" /><path d="M 50004 986869 l 2428 2428" class="C2" /><path d="M 51218 985621 l 0 4924" class="C3" /><path d="M 55664 852141 l -8892 0" class="C3" /><path d="M 52432 853355 l -2428 -2428" class="C2" /><path d="M 51218 854603 l 0 -4924" class="C3" /><path d="M 46480 925264 l 0 -772 l 1032 0 l 0 772 l -1032 0 Z M 41444 922878 l 0 -2902 l 691 0 l 0 2228 l 1488 0 q -61 -163 -91 -323 q -30 -161 -30 -323 q 0 -915 557 -1449 q 557 -535 1508 -535 q 980 0 1522 549 q 543 549 543 1549 q 0 346 -65 701 q -65 356 -195 738 l -825 0 q 199 -329 297 -681 q 98 -352 98 -742 q 0 -634 -370 -1004 q -370 -370 -1004 -370 q -634 0 -1004 370 q -370 370 -370 1004 q 0 297 73 591 q 73 295 228 600 l -3049 0 Z M 44151 916452 q 0 496 378 787 q 378 291 1037 291 q 654 0 1035 -291 q 380 -291 380 -787 q 0 -500 -380 -791 q -380 -291 -1035 -291 q -659 0 -1037 291 q -378 291 -378 791 m -2573 -1467 l 748 0 q -146 276 -224 561 q -77 285 -77 561 q 0 732 549 1118 q 549 386 1658 439 q -354 -215 -543 -541 q -189 -325 -189 -715 q 0 -825 555 -1303 q 555 -478 1510 -478 q 935 0 1500 498 q 565 498 565 1327 q 0 947 -807 1447 q -807 500 -2339 500 q -1439 0 -2295 -614 q -856 -614 -856 -1650 q 0 -276 61 -561 q 61 -285 183 -589 Z" class="C4" /><path d="M 51218 849714 l 0 -91032" class="C3" /><path d="M 46772 852141 l 8892 0" class="C3" /><path d="M 50004 850927 l 2428 2428" class="C2" /><path d="M 51218 849679 l 0 4924" class="C3" /><path d="M 55664 756254 l -8892 0" class="C3" /><path d="M 52432 757467 l -2428 -2428" class="C2" /><path d="M 51218 758716 l 0 -4924" class="C3" /><path d="M 46480 809350 l 0 -772 l 1032 0 l 0 772 l -1032 0 Z M 42159 804939 l 3240 1866 l 0 -1866 l -3240 0 m -715 195 l 0 -931 l 3955 0 l 0 -776 l 683 0 l 0 776 l 1431 0 l 0 736 l -1431 0 l 0 2467 l -793 0 l -3845 -2272 Z M 41985 800626 q 0 569 624 858 q 624 289 1876 289 q 1248 0 1872 -289 q 624 -289 624 -858 q 0 -573 -624 -860 q -624 -287 -1872 -287 q -1252 0 -1876 287 q -624 287 -624 860 m -650 0 q 0 -919 807 -1402 q 807 -484 2343 -484 q 1532 0 2339 484 q 807 484 807 1402 q 0 919 -807 1402 q -807 484 -2339 484 q -1537 0 -2343 -484 q -807 -484 -807 -1402 Z" class="C4" /><path d="M 31135 985655 l -0 -226974" class="C3" /><path d="M 26690 988083 l 8892 0" class="C3" /><path d="M 29922 986869 l 2428 2428" class="C2" /><path d="M 31135 985621 l 0 4924" class="C3" /><path d="M 35581 756254 l -8892 0" class="C3" /><path d="M 32349 757467 l -2428 -2428" class="C2" /><path d="M 31135 758716 l 0 -4924" class="C3" /><path d="M 26397 877320 l 0 -772 l 1032 0 l 0 772 l -1032 0 Z M 27304 874922 l -748 0 q 146 -280 224 -565 q 77 -285 77 -561 q 0 -732 -547 -1118 q -547 -386 -1660 -439 q 350 211 537 537 q 187 325 187 719 q 0 821 -551 1299 q -551 478 -1506 478 q -935 0 -1500 -498 q -565 -498 -565 -1323 q 0 -947 807 -1447 q 807 -500 2343 -500 q 1435 0 2291 612 q 856 612 856 1648 q 0 280 -61 565 q -61 285 -183 593 m -2573 -1471 q 0 -500 -378 -791 q -378 -291 -1037 -291 q -654 0 -1035 291 q -380 291 -380 791 q 0 496 380 787 q 380 291 1035 291 q 659 0 1037 -291 q 378 -291 378 -787 Z M 24068 868508 q 0 496 378 787 q 378 291 1037 291 q 654 0 1035 -291 q 380 -291 380 -787 q 0 -500 -380 -791 q -380 -291 -1035 -291 q -659 0 -1037 291 q -378 291 -378 791 m -2573 -1467 l 748 0 q -146 276 -224 561 q -77 285 -77 561 q 0 732 549 1118 q 549 386 1658 439 q -354 -215 -543 -541 q -189 -325 -189 -715 q 0 -825 555 -1303 q 555 -478 1510 -478 q 935 0 1500 498 q 565 498 565 1327 q 0 947 -807 1447 q -807 500 -2339 500 q -1439 0 -2295 -614 q -856 -614 -856 -1650 q 0 -276 61 -561 q 61 -285 183 -589 Z" class="C4" /><path d="M 31135 753826 l -0 -189347" class="C3" /><path d="M 26690 756254 l 8892 0" class="C3" /><path d="M 29922 755040 l 2428 2428" class="C2" /><path d="M 31135 753791 l 0 4924" class="C3" /><path d="M 35581 562051 l -8892 0" class="C3" /><path d="M 32349 563265 l -2428 -2428" class="C2" /><path d="M 31135 564513 l 0 -4924" class="C3" /><path d="M 26397 664305 l 0 -772 l 1032 0 l 0 772 l -1032 0 Z M 24548 660345 q 0 528 313 829 q 313 301 862 301 q 549 0 862 -301 q 313 -301 313 -829 q 0 -528 -315 -831 q -315 -303 -860 -303 q -549 0 -862 303 q -313 303 -313 831 m -350 740 q -130 476 -492 740 q -362 264 -882 264 q -728 0 -1150 -465 q -423 -465 -423 -1278 q 0 -817 423 -1280 q 423 -463 1150 -463 q 520 0 882 264 q 362 264 492 736 q 138 -532 541 -831 q 402 -299 984 -299 q 882 0 1354 486 q 472 486 472 1388 q 0 902 -472 1388 q -472 486 -1354 486 q -581 0 -984 -301 q -402 -301 -541 -833 m -1297 268 q 472 0 736 -264 q 264 -264 264 -744 q 0 -476 -264 -744 q -264 -268 -736 -268 q -472 0 -736 268 q -264 268 -264 744 q 0 480 264 744 q 264 264 736 264 Z M 21902 655581 q 0 569 624 858 q 624 289 1876 289 q 1248 0 1872 -289 q 624 -289 624 -858 q 0 -573 -624 -860 q -624 -287 -1872 -287 q -1252 0 -1876 287 q -624 287 -624 860 m -650 0 q 0 -919 807 -1402 q 807 -484 2343 -484 q 1532 0 2339 484 q 807 484 807 1402 q 0 919 -807 1402 q -807 484 -2339 484 q -1537 0 -2343 -484 q -807 -484 -807 -1402 Z" class="C4" /><path d="M 12761 559623 l 0 -21848" class="C3" /><path d="M 8315 562051 l 8892 0" class="C3" /><path d="M 11547 560837 l 2428 2428" class="C2" /><path d="M 12761 559589 l 0 4924" class="C3" /><path d="M 17207 535348 l -8892 0" class="C3" /><path d="M 13975 536562 l -2428 -2428" class="C2" /><path d="M 12761 537810 l 0 -4924" class="C3" /><path d="M 8075 553852 l 0 -772 l 1032 0 l 0 772 l -1032 0 Z M 8416 551344 l 0 -1207 l -4630 0 l 293 1317 l -748 0 l -293 -1309 l 0 -740 l 5378 0 l 0 -1207 l 691 0 l 0 3146 l -691 0 Z M 8416 546580 l 0 -1207 l -4630 0 l 293 1317 l -748 0 l -293 -1309 l 0 -740 l 5378 0 l 0 -1207 l 691 0 l -0 3146 l -691 0 Z" class="C4" /><path d="M 51218 564479 l 0 72826" class="C3" /><path d="M 55664 562051 l -8892 0" class="C3" /><path d="M 52432 563265 l -2428 -2428" class="C2" /><path d="M 51218 564513 l 0 -4924" class="C3" /><path d="M 46772 639732 l 8892 0" class="C3" /><path d="M 50004 638518 l 2428 2428" class="C2" /><path d="M 51218 637270 l 0 4924" class="C3" /><path d="M 46478 606044 l 0 -772 l 1032 0 l 0 772 l -1032 0 Z M 44239 601426 q 126 -528 524 -827 q 398 -299 984 -299 q 898 0 1390 555 q 492 555 492 1579 q 0 346 -75 709 q -75 364 -226 754 l -793 0 q 199 -309 301 -675 q 102 -366 102 -764 q 0 -695 -305 -1059 q -305 -364 -886 -364 q -537 0 -839 337 q -303 337 -303 943 l 0 634 l -675 0 l 0 -663 q 0 -545 -242 -835 q -242 -291 -697 -291 q -467 0 -717 299 q -250 299 -250 856 q 0 305 73 650 q 73 346 228 764 l -732 0 q -130 -419 -195 -787 q -65 -368 -65 -693 q 0 -841 425 -1333 q 425 -492 1148 -492 q 504 0 852 260 q 348 260 482 740 Z M 46820 598264 l 0 -2577 l 691 0 l 0 3467 l -691 0 q -484 -419 -1299 -1146 q -815 -728 -1051 -915 q -443 -354 -750 -494 q -307 -140 -604 -140 q -484 0 -789 305 q -305 305 -305 797 q 0 346 134 732 q 134 386 406 825 l -829 0 q -199 -447 -301 -835 q -102 -388 -102 -709 q 0 -850 472 -1354 q 472 -504 1260 -504 q 374 0 709 126 q 335 126 791 459 q 118 93 681 583 q 563 490 1575 1380 Z" class="C4" /><path d="M 51218 642160 l 0 41268" class="C3" /><path d="M 55664 639732 l -8892 0" class="C3" /><path d="M 52432 640946 l -2428 -2428" class="C2" /><path d="M 51218 642194 l 0 -4924" class="C3" /><path d="M 46772 685855 l 8892 0" class="C3" /><path d="M 50004 684641 l 2428 2428" class="C2" /><path d="M 51218 683393 l 0 4924" class="C3" /><path d="M 46480 667946 l 0 -772 l 1032 0 l 0 772 l -1032 0 Z M 46822 665438 l 0 -1207 l -4630 0 l 293 1317 l -748 0 l -293 -1309 l 0 -740 l 5378 0 l 0 -1207 l 691 0 l 0 3146 l -691 0 Z M 47387 660784 l -748 0 q 146 -280 224 -565 q 77 -285 77 -561 q 0 -732 -547 -1118 q -547 -386 -1660 -439 q 350 211 537 537 q 187 325 187 719 q 0 821 -551 1299 q -551 478 -1506 478 q -935 0 -1500 -498 q -565 -498 -565 -1323 q 0 -947 807 -1447 q 807 -500 2343 -500 q 1435 0 2291 612 q 856 612 856 1648 q 0 280 -61 565 q -61 285 -183 593 m -2573 -1471 q 0 -500 -378 -791 q -378 -291 -1037 -291 q -654 0 -1035 291 q -380 291 -380 791 q 0 496 380 787 q 380 291 1035 291 q 659 0 1037 -291 q 378 -291 378 -787 Z" class="C4" /><path d="M 51218 688283 l 0 41268" class="C3" /><path d="M 55664 685855 l -8892 0" class="C3" /><path d="M 52432 687069 l -2428 -2428" class="C2" /><path d="M 51218 688317 l 0 -4924" class="C3" /><path d="M 46772 731978 l 8892 0" class="C3" /><path d="M 50004 730764 l 2428 2428" class="C2" /><path d="M 51218 729516 l 0 4924" class="C3" /><path d="M 46480 714069 l 0 -772 l 1032 0 l 0 772 l -1032 0 Z M 46822 711561 l 0 -1207 l -4630 0 l 293 1317 l -748 0 l -293 -1309 l 0 -740 l 5378 0 l 0 -1207 l 691 0 l 0 3146 l -691 0 Z M 47387 706907 l -748 0 q 146 -280 224 -565 q 77 -285 77 -561 q 0 -732 -547 -1118 q -547 -386 -1660 -439 q 350 211 537 537 q 187 325 187 719 q 0 821 -551 1299 q -551 478 -1506 478 q -935 0 -1500 -498 q -565 -498 -565 -1323 q 0 -947 807 -1447 q 807 -500 2343 -500 q 1435 0 2291 612 q 856 612 856 1648 q 0 280 -61 565 q -61 285 -183 593 m -2573 -1471 q 0 -500 -378 -791 q -378 -291 -1037 -291 q -654 0 -1035 291 q -380 291 -380 791 q 0 496 380 787 q 380 291 1035 291 q 659 0 1037 -291 q 378 -291 378 -787 Z" class="C4" /><path d="M 51218 734406 l 0 19420" class="C3" /><path d="M 55664 731978 l -8892 0" class="C3" /><path d="M 52432 733192 l -2428 -2428" class="C2" /><path d="M 51218 734440 l 0 -4924" class="C3" /><path d="M 46772 756254 l 8892 0" class="C3" /><path d="M 50004 755040 l 2428 2428" class="C2" /><path d="M 51218 753791 l 0 4924" class="C3" /><path d="M 46480 749268 l 0 -772 l 1032 0 l 0 772 l -1032 0 Z M 46822 746760 l 0 -1207 l -4630 0 l 293 1317 l -748 0 l -293 -1309 l 0 -740 l 5378 0 l 0 -1207 l 691 0 l 0 3146 l -691 0 Z M 41985 740545 q 0 569 624 858 q 624 289 1876 289 q 1248 0 1872 -289 q 624 -289 624 -858 q 0 -573 -624 -860 q -624 -287 -1872 -287 q -1252 0 -1876 287 q -624 287 -624 860 m -650 0 q 0 -919 807 -1402 q 807 -484 2343 -484 q 1532 0 2339 484 q 807 484 807 1402 q 0 919 -807 1402 q -807 484 -2339 484 q -1537 0 -2343 -484 q -807 -484 -807 -1402 Z" class="C4" /><path d="M 133296 504978 l 58261 0" class="C3" /><path d="M 130868 500532 l 0 8892" class="C3" /><path d="M 132082 503764 l -2428 2428" class="C2" /><path d="M 133330 504978 l -4924 0" class="C3" /><path d="M 193984 509424 l 0 -8892" class="C3" /><path d="M 192770 506192 l 2428 -2428" class="C2" /><path d="M 191522 504978 l 4924 0" class="C3" /><path d="M 157274 500240 l 772 0 l 0 1032 l -772 0 l 0 -1032 Z M 160290 500581 l 2577 0 l 0 691 l -3467 0 l 0 -691 q 419 -484 1146 -1299 q 728 -815 915 -1051 q 354 -443 494 -750 q 140 -307 140 -604 q 0 -484 -305 -789 q -305 -305 -797 -305 q -346 0 -732 134 q -386 134 -825 406 l 0 -829 q 447 -199 835 -301 q 388 -102 709 -102 q 850 0 1354 472 q 504 472 504 1260 q 0 374 -126 709 q -126 335 -459 791 q -93 118 -583 681 q -490 563 -1380 1575 Z M 166086 497911 q -496 0 -787 378 q -291 378 -291 1037 q 0 654 291 1035 q 291 380 787 380 q 500 0 791 -380 q 291 -380 291 -1035 q 0 -659 -291 -1037 q -291 -378 -791 -378 m 1467 -2573 l 0 748 q -276 -146 -561 -224 q -285 -77 -561 -77 q -732 0 -1118 549 q -386 549 -439 1658 q 215 -354 541 -543 q 325 -189 715 -189 q 825 0 1303 555 q 478 555 478 1510 q 0 935 -498 1500 q -498 565 -1327 565 q -947 0 -1447 -807 q -500 -807 -500 -2339 q 0 -1439 614 -2295 q 614 -856 1650 -856 q 276 0 561 61 q 285 61 589 183 Z" class="C4" /><path d="M 121158 486196 l 82536 0" class="C3" /><path d="M 118730 481750 l 0 8892" class="C3" /><path d="M 119944 484982 l -2428 2428" class="C2" /><path d="M 121193 486196 l -4924 0" class="C3" /><path d="M 206122 490641 l 0 -8892" class="C3" /><path d="M 204908 487409 l 2428 -2428" class="C2" /><path d="M 203659 486196 l 4924 0" class="C3" /><path d="M 157274 481456 l 772 0 l 0 1032 l -772 0 l 0 -1032 Z M 161891 479216 q 528 126 827 524 q 299 398 299 984 q 0 898 -555 1390 q -555 492 -1579 492 q -346 0 -709 -75 q -364 -75 -754 -226 l 0 -793 q 309 199 675 301 q 366 102 764 102 q 695 0 1059 -305 q 364 -305 364 -886 q 0 -537 -337 -839 q -337 -303 -943 -303 l -634 0 l 0 -675 l 663 0 q 545 0 835 -242 q 291 -242 291 -697 q 0 -467 -299 -717 q -299 -250 -856 -250 q -305 0 -650 73 q -346 73 -764 228 l 0 -732 q 419 -130 787 -195 q 368 -65 693 -65 q 841 0 1333 425 q 492 425 492 1148 q 0 504 -260 852 q -260 348 -740 482 Z M 166086 479126 q -496 0 -787 378 q -291 378 -291 1037 q 0 654 291 1035 q 291 380 787 380 q 500 0 791 -380 q 291 -380 291 -1035 q 0 -659 -291 -1037 q -291 -378 -791 -378 m 1467 -2573 l 0 748 q -276 -146 -561 -224 q -285 -77 -561 -77 q -732 0 -1118 549 q -386 549 -439 1658 q 215 -354 541 -543 q 325 -189 715 -189 q 825 0 1303 555 q 478 555 478 1510 q 0 935 -498 1500 q -498 565 -1327 565 q -947 0 -1447 -807 q -500 -807 -500 -2339 q 0 -1439 614 -2295 q 614 -856 1650 -856 q 276 0 561 61 q 285 61 589 183 Z" class="C4" /><path d="M 191556 504978 l -2428 0" class="C3" /><path d="M 208549 504978 l 2428 0" class="C3" /><path d="M 193984 504978 l 12138 0" class="C3" /><path d="M 193984 509424 l 0 -8892" class="C3" /><path d="M 192770 506192 l 2428 -2428" class="C2" /><path d="M 191522 504978 l 4924 0" class="C3" /><path d="M 206122 500532 l 0 8892" class="C3" /><path d="M 207335 503764 l -2428 2428" class="C2" /><path d="M 208584 504978 l -4924 0" class="C3" /><path d="M 194901 500240 l 772 0 l 0 1032 l -772 0 l 0 -1032 Z M 198860 495744 q -569 0 -858 624 q -289 624 -289 1876 q 0 1248 289 1872 q 289 624 858 624 q 573 0 860 -624 q 287 -624 287 -1872 q 0 -1252 -287 -1876 q -287 -624 -860 -624 m 0 -650 q 919 0 1402 807 q 484 807 484 2343 q 0 1532 -484 2339 q -484 807 -1402 807 q -919 0 -1402 -807 q -484 -807 -484 -2339 q 0 -1537 484 -2343 q 484 -807 1402 -807 Z M 202051 495204 l 2902 0 l 0 691 l -2228 0 l 0 1488 q 163 -61 323 -91 q 161 -30 323 -30 q 915 0 1449 557 q 535 557 535 1508 q 0 980 -549 1522 q -549 543 -1549 543 q -346 0 -701 -65 q -356 -65 -738 -195 l 0 -825 q 329 199 681 297 q 352 98 742 98 q 634 0 1004 -370 q 370 -370 370 -1004 q 0 -634 -370 -1004 q -370 -370 -1004 -370 q -297 0 -591 73 q -295 73 -600 228 l 0 -3049 Z" class="C4" /><path d="M 133296 504978 l 2428 0" class="C3" /><path d="M 116303 504978 l -2428 0" class="C3" /><path d="M 130868 504978 l -12138 0" class="C3" /><path d="M 130868 500532 l 0 8892" class="C3" /><path d="M 132082 503764 l -2428 2428" class="C2" /><path d="M 133330 504978 l -4924 0" class="C3" /><path d="M 118730 509424 l 0 -8892" class="C3" /><path d="M 117517 506192 l 2428 -2428" class="C2" /><path d="M 116268 504978 l 4924 0" class="C3" /><path d="M 119647 500240 l 772 0 l 0 1032 l -772 0 l 0 -1032 Z M 123606 495744 q -569 0 -858 624 q -289 624 -289 1876 q 0 1248 289 1872 q 289 624 858 624 q 573 0 860 -624 q 287 -624 287 -1872 q 0 -1252 -287 -1876 q -287 -624 -860 -624 m 0 -650 q 919 0 1402 807 q 484 807 484 2343 q 0 1532 -484 2339 q -484 807 -1402 807 q -919 0 -1402 -807 q -484 -807 -484 -2339 q 0 -1537 484 -2343 q 484 -807 1402 -807 Z M 126797 495204 l 2902 0 l 0 691 l -2228 0 l 0 1488 q 163 -61 323 -91 q 161 -30 323 -30 q 915 0 1449 557 q 535 557 535 1508 q 0 980 -549 1522 q -549 543 -1549 543 q -346 0 -701 -65 q -356 -65 -738 -195 l 0 -825 q 329 199 681 297 q 352 98 742 98 q 634 0 1004 -370 q 370 -370 370 -1004 q 0 -634 -370 -1004 q -370 -370 -1004 -370 q -297 0 -591 73 q -295 73 -600 228 l 0 -3049 Z" class="C4" /><path d="M 93241 468281 l 138369 0" class="C3" /><path d="M 90814 463835 l 0 8892" class="C3" /><path d="M 92028 467067 l -2428 2428" class="C2" /><path d="M 93276 468281 l -4924 0" class="C3" /><path d="M 234038 472726 l 0 -8892" class="C3" /><path d="M 232824 469494 l 2428 -2428" class="C2" /><path d="M 231576 468281 l 4924 0" class="C3" /><path d="M 157274 463543 l 772 0 l 0 1032 l -772 0 l 0 -1032 Z M 159660 458506 l 2902 0 l 0 691 l -2228 0 l 0 1488 q 163 -61 323 -91 q 161 -30 323 -30 q 915 0 1449 557 q 535 557 535 1508 q 0 980 -549 1522 q -549 543 -1549 543 q -346 0 -701 -65 q -356 -65 -738 -195 l 0 -825 q 329 199 681 297 q 352 98 742 98 q 634 0 1004 -370 q 370 -370 370 -1004 q 0 -634 -370 -1004 q -370 -370 -1004 -370 q -297 0 -591 73 q -295 73 -600 228 l 0 -3049 Z M 164436 464449 l 0 -748 q 280 146 565 224 q 285 77 561 77 q 732 0 1118 -547 q 386 -547 439 -1660 q -211 350 -537 537 q -325 187 -719 187 q -821 0 -1299 -551 q -478 -551 -478 -1506 q 0 -935 498 -1500 q 498 -565 1323 -565 q 947 0 1447 807 q 500 807 500 2343 q 0 1435 -612 2291 q -612 856 -1648 856 q -280 0 -565 -61 q -285 -61 -593 -183 m 1471 -2573 q 500 0 791 -378 q 291 -378 291 -1037 q 0 -654 -291 -1035 q -291 -380 -791 -380 q -496 0 -787 380 q -291 380 -291 1035 q 0 659 291 1037 q 291 378 787 378 Z" class="C4" /><path d="M 93241 468281 l 2428 0" class="C3" /><path d="M 76249 468281 l -2428 0" class="C3" /><path d="M 90814 468281 l -12138 0" class="C3" /><path d="M 90814 463835 l 0 8892" class="C3" /><path d="M 92028 467067 l -2428 2428" class="C2" /><path d="M 93276 468281 l -4924 0" class="C3" /><path d="M 78676 472726 l 0 -8892" class="C3" /><path d="M 77462 469494 l 2428 -2428" class="C2" /><path d="M 76214 468281 l 4924 0" class="C3" /><path d="M 79593 463543 l 772 0 l 0 1032 l -772 0 l 0 -1032 Z M 83552 459047 q -569 0 -858 624 q -289 624 -289 1876 q 0 1248 289 1872 q 289 624 858 624 q 573 0 860 -624 q 287 -624 287 -1872 q 0 -1252 -287 -1876 q -287 -624 -860 -624 m 0 -650 q 919 0 1402 807 q 484 807 484 2343 q 0 1532 -484 2339 q -484 807 -1402 807 q -919 0 -1402 -807 q -484 -807 -484 -2339 q 0 -1537 484 -2343 q 484 -807 1402 -807 Z M 86743 458506 l 2902 0 l 0 691 l -2228 0 l 0 1488 q 163 -61 323 -91 q 161 -30 323 -30 q 915 0 1449 557 q 535 557 535 1508 q 0 980 -549 1522 q -549 543 -1549 543 q -346 0 -701 -65 q -356 -65 -738 -195 l 0 -825 q 329 199 681 297 q 352 98 742 98 q 634 0 1004 -370 q 370 -370 370 -1004 q 0 -634 -370 -1004 q -370 -370 -1004 -370 q -297 0 -591 73 q -295 73 -600 228 l 0 -3049 Z" class="C4" /><path d="M 231611 468281 l -2428 0" class="C3" /><path d="M 248603 468281 l 2428 0" class="C3" /><path d="M 234038 468281 l 12138 0" class="C3" /><path d="M 234038 472726 l 0 -8892" class="C3" /><path d="M 232824 469494 l 2428 -2428" class="C2" /><path d="M 231576 468281 l 4924 0" class="C3" /><path d="M 246176 463835 l 0 8892" class="C3" /><path d="M 247390 467067 l -2428 2428" class="C2" /><path d="M 248638 468281 l -4924 0" class="C3" /><path d="M 234955 463543 l 772 0 l 0 1032 l -772 0 l 0 -1032 Z M 238914 459047 q -569 0 -858 624 q -289 624 -289 1876 q 0 1248 289 1872 q 289 624 858 624 q 573 0 860 -624 q 287 -624 287 -1872 q 0 -1252 -287 -1876 q -287 -624 -860 -624 m 0 -650 q 919 0 1402 807 q 484 807 484 2343 q 0 1532 -484 2339 q -484 807 -1402 807 q -919 0 -1402 -807 q -484 -807 -484 -2339 q 0 -1537 484 -2343 q 484 -807 1402 -807 Z M 242105 458506 l 2902 0 l 0 691 l -2228 0 l 0 1488 q 163 -61 323 -91 q 161 -30 323 -30 q 915 0 1449 557 q 535 557 535 1508 q 0 980 -549 1522 q -549 543 -1549 543 q -346 0 -701 -65 q -356 -65 -738 -195 l 0 -825 q 329 199 681 297 q 352 98 742 98 q 634 0 1004 -370 q 370 -370 370 -1004 q 0 -634 -370 -1004 q -370 -370 -1004 -370 q -297 0 -591 73 q -295 73 -600 228 l 0 -3049 Z" class="C4" /><path d="M 81104 448802 l 162645 0" class="C3" /><path d="M 78676 444356 l 0 8892" class="C3" /><path d="M 79890 447588 l -2428 2428" class="C2" /><path d="M 81138 448802 l -4924 0" class="C3" /><path d="M 246176 453247 l 0 -8892" class="C3" /><path d="M 244962 450015 l 2428 -2428" class="C2" /><path d="M 243714 448802 l 4924 0" class="C3" /><path d="M 157274 444064 l 772 0 l 0 1032 l -772 0 l 0 -1032 Z M 161322 441735 q -496 0 -787 378 q -291 378 -291 1037 q 0 654 291 1035 q 291 380 787 380 q 500 0 791 -380 q 291 -380 291 -1035 q 0 -659 -291 -1037 q -291 -378 -791 -378 m 1467 -2573 l 0 748 q -276 -146 -561 -224 q -285 -77 -561 -77 q -732 0 -1118 549 q -386 549 -439 1658 q 215 -354 541 -543 q 325 -189 715 -189 q 825 0 1303 555 q 478 555 478 1510 q 0 935 -498 1500 q -498 565 -1327 565 q -947 0 -1447 -807 q -500 -807 -500 -2339 q 0 -1439 614 -2295 q 614 -856 1650 -856 q 276 0 561 61 q 285 61 589 183 Z M 164436 444970 l 0 -748 q 280 146 565 224 q 285 77 561 77 q 732 0 1118 -547 q 386 -547 439 -1660 q -211 350 -537 537 q -325 187 -719 187 q -821 0 -1299 -551 q -478 -551 -478 -1506 q 0 -935 498 -1500 q 498 -565 1323 -565 q 947 0 1447 807 q 500 807 500 2343 q 0 1435 -612 2291 q -612 856 -1648 856 q -280 0 -565 -61 q -285 -61 -593 -183 m 1471 -2573 q 500 0 791 -378 q 291 -378 291 -1037 q 0 -654 -291 -1035 q -291 -380 -791 -380 q -496 0 -787 380 q -291 380 -291 1035 q 0 659 291 1037 q 291 378 787 378 Z" class="C4" /><path d="M 153930 868117 l 16993 0" class="C3" /><path d="M 151502 863672 l 0 8892" class="C3" /><path d="M 152716 866904 l -2428 2428" class="C2" /><path d="M 153964 868117 l -4924 0" class="C3" /><path d="M 173350 872563 l 0 -8892" class="C3" /><path d="M 172136 869331 l 2428 -2428" class="C2" /><path d="M 170888 868117 l 4924 0" class="C3" /><path d="M 157274 863380 l 772 0 l 0 1032 l -772 0 l 0 -1032 Z M 161233 858884 q -569 0 -858 624 q -289 624 -289 1876 q 0 1248 289 1872 q 289 624 858 624 q 573 0 860 -624 q 287 -624 287 -1872 q 0 -1252 -287 -1876 q -287 -624 -860 -624 m 0 -650 q 919 0 1402 807 q 484 807 484 2343 q 0 1532 -484 2339 q -484 807 -1402 807 q -919 0 -1402 -807 q -484 -807 -484 -2339 q 0 -1537 484 -2343 q 484 -807 1402 -807 Z M 164436 864286 l 0 -748 q 280 146 565 224 q 285 77 561 77 q 732 0 1118 -547 q 386 -547 439 -1660 q -211 350 -537 537 q -325 187 -719 187 q -821 0 -1299 -551 q -478 -551 -478 -1506 q 0 -935 498 -1500 q 498 -565 1323 -565 q 947 0 1447 807 q 500 807 500 2343 q 0 1435 -612 2291 q -612 856 -1648 856 q -280 0 -565 -61 q -285 -61 -593 -183 m 1471 -2573 q 500 0 791 -378 q 291 -378 291 -1037 q 0 -654 -291 -1035 q -291 -380 -791 -380 q -496 0 -787 380 q -291 380 -291 1035 q 0 659 291 1037 q 291 378 787 378 Z" class="C4" /><path d="M 141792 886285 l 41268 0" class="C3" /><path d="M 139364 881840 l 0 8892" class="C3" /><path d="M 140578 885072 l -2428 2428" class="C2" /><path d="M 141827 886285 l -4924 0" class="C3" /><path d="M 185488 890731 l 0 -8892" class="C3" /><path d="M 184274 887499 l 2428 -2428" class="C2" /><path d="M 183025 886285 l 4924 0" class="C3" /><path d="M 157274 881548 l 772 0 l 0 1032 l -772 0 l 0 -1032 Z M 159782 881889 l 1207 0 l 0 -4630 l -1317 293 l 0 -748 l 1309 -293 l 740 0 l 0 5378 l 1207 0 l 0 691 l -3146 0 l 0 -691 Z M 164436 882454 l 0 -748 q 280 146 565 224 q 285 77 561 77 q 732 0 1118 -547 q 386 -547 439 -1660 q -211 350 -537 537 q -325 187 -719 187 q -821 0 -1299 -551 q -478 -551 -478 -1506 q 0 -935 498 -1500 q 498 -565 1323 -565 q 947 0 1447 807 q 500 807 500 2343 q 0 1435 -612 2291 q -612 856 -1648 856 q -280 0 -565 -61 q -285 -61 -593 -183 m 1471 -2573 q 500 0 791 -378 q 291 -378 291 -1037 q 0 -654 -291 -1035 q -291 -380 -791 -380 q -496 0 -787 380 q -291 380 -291 1035 q 0 659 291 1037 q 291 378 787 378 Z" class="C4" /><path d="M 170922 868117 l -2428 0" class="C3" /><path d="M 187915 868117 l 2428 0" class="C3" /><path d="M 173350 868117 l 12138 0" class="C3" /><path d="M 173350 872563 l 0 -8892" class="C3" /><path d="M 172136 869331 l 2428 -2428" class="C2" /><path d="M 170888 868117 l 4924 0" class="C3" /><path d="M 185488 863672 l 0 8892" class="C3" /><path d="M 186701 866904 l -2428 2428" class="C2" /><path d="M 187950 868117 l -4924 0" class="C3" /><path d="M 174266 863380 l 772 0 l 0 1032 l -772 0 l 0 -1032 Z M 178226 858884 q -569 0 -858 624 q -289 624 -289 1876 q 0 1248 289 1872 q 289 624 858 624 q 573 0 860 -624 q 287 -624 287 -1872 q 0 -1252 -287 -1876 q -287 -624 -860 -624 m 0 -650 q 919 0 1402 807 q 484 807 484 2343 q 0 1532 -484 2339 q -484 807 -1402 807 q -919 0 -1402 -807 q -484 -807 -484 -2339 q 0 -1537 484 -2343 q 484 -807 1402 -807 Z M 181417 858343 l 2902 0 l 0 691 l -2228 0 l 0 1488 q 163 -61 323 -91 q 161 -30 323 -30 q 915 0 1449 557 q 535 557 535 1508 q 0 980 -549 1522 q -549 543 -1549 543 q -346 0 -701 -65 q -356 -65 -738 -195 l 0 -825 q 329 199 681 297 q 352 98 742 98 q 634 0 1004 -370 q 370 -370 370 -1004 q 0 -634 -370 -1004 q -370 -370 -1004 -370 q -297 0 -591 73 q -295 73 -600 228 l 0 -3049 Z" class="C4" /><path d="M 153930 868117 l 2428 0" class="C3" /><path d="M 136937 868117 l -2428 0" class="C3" /><path d="M 151502 868117 l -12138 0" class="C3" /><path d="M 151502 863672 l 0 8892" class="C3" /><path d="M 152716 866904 l -2428 2428" class="C2" /><path d="M 153964 868117 l -4924 0" class="C3" /><path d="M 139364 872563 l 0 -8892" class="C3" /><path d="M 138151 869331 l 2428 -2428" class="C2" /><path d="M 136902 868117 l 4924 0" class="C3" /><path d="M 140281 863380 l 772 0 l 0 1032 l -772 0 l 0 -1032 Z M 144240 858884 q -569 0 -858 624 q -289 624 -289 1876 q 0 1248 289 1872 q 289 624 858 624 q 573 0 860 -624 q 287 -624 287 -1872 q 0 -1252 -287 -1876 q -287 -624 -860 -624 m 0 -650 q 919 0 1402 807 q 484 807 484 2343 q 0 1532 -484 2339 q -484 807 -1402 807 q -919 0 -1402 -807 q -484 -807 -484 -2339 q 0 -1537 484 -2343 q 484 -807 1402 -807 Z M 147431 858343 l 2902 0 l 0 691 l -2228 0 l 0 1488 q 163 -61 323 -91 q 161 -30 323 -30 q 915 0 1449 557 q 535 557 535 1508 q 0 980 -549 1522 q -549 543 -1549 543 q -346 0 -701 -65 q -356 -65 -738 -195 l 0 -825 q 329 199 681 297 q 352 98 742 98 q 634 0 1004 -370 q 370 -370 370 -1004 q 0 -634 -370 -1004 q -370 -370 -1004 -370 q -297 0 -591 73 q -295 73 -600 228 l 0 -3049 Z" class="C4" /><path d="M 12761 985655 l -0 -421177" class="C3" /><path d="M 8315 988083 l 8892 0" class="C3" /><path d="M 11547 986869 l 2428 2428" class="C2" /><path d="M 12761 985621 l 0 4924" class="C3" /><path d="M 17207 562051 l -8892 0" class="C3" /><path d="M 13975 563265 l -2428 -2428" class="C2" /><path d="M 12761 564513 l 0 -4924" class="C3" /><path d="M 8365 782471 l 0 -1207 l -4630 0 l 293 1317 l -748 0 l -293 -1309 l 0 -740 l 5378 0 l 0 -1207 l 691 0 l 0 3146 l -691 0 Z M 8023 777837 l 0 -772 l 1032 0 l 0 772 l -1032 0 Z M 2987 775646 l 0 -3512 l 350 0 l 5719 1984 l 0 768 l -5378 -1862 l 0 2622 l -691 0 Z M 5694 769025 q 0 496 378 787 q 378 291 1037 291 q 654 0 1035 -291 q 380 -291 380 -787 q 0 -500 -380 -791 q -380 -291 -1035 -291 q -659 0 -1037 291 q -378 291 -378 791 m -2573 -1467 l 748 0 q -146 276 -224 561 q -77 285 -77 561 q 0 732 549 1118 q 549 386 1658 439 q -354 -215 -543 -541 q -189 -325 -189 -715 q 0 -825 555 -1303 q 555 -478 1510 -478 q 935 0 1500 498 q 565 498 565 1327 q 0 947 -807 1447 q -807 500 -2339 500 q -1439 0 -2295 -614 q -856 -614 -856 -1650 q 0 -276 61 -561 q 61 -285 183 -589 Z" class="C4" /><path d="M 93241 97828 l 138369 0" class="C3" /><path d="M 90814 93382 l 0 8892" class="C3" /><path d="M 92028 96614 l -2428 2428" class="C2" /><path d="M 93276 97828 l -4924 0" class="C3" /><path d="M 234038 102274 l 0 -8892" class="C3" /><path d="M 232824 99042 l 2428 -2428" class="C2" /><path d="M 231576 97828 l 4924 0" class="C3" /><path d="M 157274 93090 l 772 0 l 0 1032 l -772 0 l 0 -1032 Z M 159660 88054 l 2902 0 l 0 691 l -2228 0 l 0 1488 q 163 -61 323 -91 q 161 -30 323 -30 q 915 0 1449 557 q 535 557 535 1508 q 0 980 -549 1522 q -549 543 -1549 543 q -346 0 -701 -65 q -356 -65 -738 -195 l 0 -825 q 329 199 681 297 q 352 98 742 98 q 634 0 1004 -370 q 370 -370 370 -1004 q 0 -634 -370 -1004 q -370 -370 -1004 -370 q -297 0 -591 73 q -295 73 -600 228 l 0 -3049 Z M 164436 93996 l 0 -748 q 280 146 565 224 q 285 77 561 77 q 732 0 1118 -547 q 386 -547 439 -1660 q -211 350 -537 537 q -325 187 -719 187 q -821 0 -1299 -551 q -478 -551 -478 -1506 q 0 -935 498 -1500 q 498 -565 1323 -565 q 947 0 1447 807 q 500 807 500 2343 q 0 1435 -612 2291 q -612 856 -1648 856 q -280 0 -565 -61 q -285 -61 -593 -183 m 1471 -2573 q 500 0 791 -378 q 291 -378 291 -1037 q 0 -654 -291 -1035 q -291 -380 -791 -380 q -496 0 -787 380 q -291 380 -291 1035 q 0 659 291 1037 q 291 378 787 378 Z" class="C4" /><path d="M 164854 117625 l 14565 0" class="C3" /><path d="M 162426 113180 l 0 8892" class="C3" /><path d="M 163640 116412 l -2428 2428" class="C2" /><path d="M 164888 117625 l -4924 0" class="C3" /><path d="M 181846 122071 l 0 -8892" class="C3" /><path d="M 180632 118839 l 2428 -2428" class="C2" /><path d="M 179384 117625 l 4924 0" class="C3" /><path d="M 166984 112887 l 772 0 l 0 1032 l -772 0 l 0 -1032 Z M 170943 108392 q -569 0 -858 624 q -289 624 -289 1876 q 0 1248 289 1872 q 289 624 858 624 q 573 0 860 -624 q 287 -624 287 -1872 q 0 -1252 -287 -1876 q -287 -624 -860 -624 m 0 -650 q 919 0 1402 807 q 484 807 484 2343 q 0 1532 -484 2339 q -484 807 -1402 807 q -919 0 -1402 -807 q -484 -807 -484 -2339 q 0 -1537 484 -2343 q 484 -807 1402 -807 Z M 175707 111038 q -528 0 -829 313 q -301 313 -301 862 q 0 549 301 862 q 301 313 829 313 q 528 0 831 -315 q 303 -315 303 -860 q 0 -549 -303 -862 q -303 -313 -831 -313 m -740 -350 q -476 -130 -740 -492 q -264 -362 -264 -882 q 0 -728 465 -1150 q 465 -423 1278 -423 q 817 0 1280 423 q 463 423 463 1150 q 0 520 -264 882 q -264 362 -736 492 q 532 138 831 541 q 299 402 299 984 q 0 882 -486 1354 q -486 472 -1388 472 q -902 0 -1388 -472 q -486 -472 -486 -1354 q 0 -581 301 -984 q 301 -402 833 -541 m -268 -1297 q 0 472 264 736 q 264 264 744 264 q 476 0 744 -264 q 268 -264 268 -736 q 0 -472 -268 -736 q -268 -264 -744 -264 q -480 0 -744 264 q -264 264 -264 736 Z" class="C4" /><path d="M 159998 117625 l -31558 0" class="C3" /><path d="M 162426 122071 l 0 -8892" class="C3" /><path d="M 161212 118839 l 2428 -2428" class="C2" /><path d="M 159964 117625 l 4924 0" class="C3" /><path d="M 126013 113180 l 0 8892" class="C3" /><path d="M 127227 116412 l -2428 2428" class="C2" /><path d="M 128475 117625 l -4924 0" class="C3" /><path d="M 139067 112887 l 772 0 l 0 1032 l -772 0 l 0 -1032 Z M 141575 113229 l 1207 0 l 0 -4630 l -1317 293 l 0 -748 l 1309 -293 l 740 0 l 0 5378 l 1207 0 l 0 691 l -3146 0 l 0 -691 Z M 146217 107851 l 2902 0 l 0 691 l -2228 0 l 0 1488 q 163 -61 323 -91 q 161 -30 323 -30 q 915 0 1449 557 q 535 557 535 1508 q 0 980 -549 1522 q -549 543 -1549 543 q -346 0 -701 -65 q -356 -65 -738 -195 l 0 -825 q 329 199 681 297 q 352 98 742 98 q 634 0 1004 -370 q 370 -370 370 -1004 q 0 -634 -370 -1004 q -370 -370 -1004 -370 q -297 0 -591 73 q -295 73 -600 228 l 0 -3049 Z" class="C4" /><path d="M 123585 117625 l -30344 0" class="C3" /><path d="M 126013 122071 l 0 -8892" class="C3" /><path d="M 124799 118839 l 2428 -2428" class="C2" /><path d="M 123551 117625 l 4924 0" class="C3" /><path d="M 90814 113180 l 0 8892" class="C3" /><path d="M 92028 116412 l -2428 2428" class="C2" /><path d="M 93276 117625 l -4924 0" class="C3" /><path d="M 103261 112887 l 772 0 l 0 1032 l -772 0 l 0 -1032 Z M 105769 113229 l 1207 0 l 0 -4630 l -1317 293 l 0 -748 l 1309 -293 l 740 0 l 0 5378 l 1207 0 l 0 691 l -3146 0 l 0 -691 Z M 110411 107851 l 2902 0 l 0 691 l -2228 0 l 0 1488 q 163 -61 323 -91 q 161 -30 323 -30 q 915 0 1449 557 q 535 557 535 1508 q 0 980 -549 1522 q -549 543 -1549 543 q -346 0 -701 -65 q -356 -65 -738 -195 l 0 -825 q 329 199 681 297 q 352 98 742 98 q 634 0 1004 -370 q 370 -370 370 -1004 q 0 -634 -370 -1004 q -370 -370 -1004 -370 q -297 0 -591 73 q -295 73 -600 228 l 0 -3049 Z" class="C4" /><path d="M 184274 117625 l 47337 0" class="C3" /><path d="M 181846 113180 l 0 8892" class="C3" /><path d="M 183060 116412 l -2428 2428" class="C2" /><path d="M 184308 117625 l -4924 0" class="C3" /><path d="M 234038 122071 l 0 -8892" class="C3" /><path d="M 232824 118839 l 2428 -2428" class="C2" /><path d="M 231576 117625 l 4924 0" class="C3" /><path d="M 202790 112939 l 772 0 l 0 1032 l -772 0 l 0 -1032 Z M 205806 113281 l 2577 0 l 0 691 l -3467 0 l 0 -691 q 419 -484 1146 -1299 q 728 -815 915 -1051 q 354 -443 494 -750 q 140 -307 140 -604 q 0 -484 -305 -789 q -305 -305 -797 -305 q -346 0 -732 134 q -386 134 -825 406 l 0 -829 q 447 -199 835 -301 q 388 -102 709 -102 q 850 0 1354 472 q 504 472 504 1260 q 0 374 -126 709 q -126 335 -459 791 q -93 118 -583 681 q -490 563 -1380 1575 Z M 210570 113281 l 2577 0 l 0 691 l -3467 0 l 0 -691 q 419 -484 1146 -1299 q 728 -815 915 -1051 q 354 -443 494 -750 q 140 -307 140 -604 q 0 -484 -305 -789 q -305 -305 -797 -305 q -346 0 -732 134 q -386 134 -825 406 l 0 -829 q 447 -199 835 -301 q 388 -102 709 -102 q 850 0 1354 472 q 504 472 504 1260 q 0 374 -126 709 q -126 335 -459 791 q -93 118 -583 681 q -490 563 -1380 1575 Z" class="C4" /><path d="M 219736 705275 l 0 8496 l 27330 0 l 0 -2428 l -27330 -6069" class="C2" /><path d="M 228237 705275 l 0 1888" class="C2" /><path d="M 228237 713772 l 27330 0 l 0 -2428 l -27330 -6069" class="C2" /><path d="M 235666 713772 l 10512 0 l 0 274311 l -10512 0 l 0 -274311" class="C2" /><path d="M 246178 988083 l 6069 0 l 0 -274311 l -6069 0 l 0 274311" class="C2" /><path d="M 105116 705275 l 0 8496 l -27330 0 l 0 -2428 l 27330 -6069" class="C2" /><path d="M 96614 705275 l 0 1888" class="C2" /><path d="M 96614 713772 l -27330 0 l 0 -2428 l 27330 -6069" class="C2" /><path d="M 89186 713772 l -10512 0 l 0 274311 l 10512 0 l 0 -274311" class="C2" /><path d="M 78674 988083 l -6069 0 l 0 -274311 l 6069 0 l 0 274311" class="C2" /><path d="M 234038 231962 c -0 39550 -32062 71612 -71612 71612 c -39550 0 -71612 -32062 -71612 -71612 c 0 -39550 32062 -71612 71612 -71612 c 39550 0 71612 32062 71612 71612" class="C2" /><path d="M 168495 315492 c 24684 -1793 47311 -14412 61808 -34471" class="C1" /><path d="M 238808 266310 c 11031 -24530 9609 -52865 -3821 -76168 c -13431 -23303 -37236 -38738 -63991 -41490" class="C1" /><path d="M 154004 148637 c -26768 2706 -50606 18106 -64075 41396 c -13470 23289 -14931 51632 -3927 76183" class="C1" /><path d="M 94488 280937 c 14494 20106 37149 32759 61869 34555" class="C1" /><path d="M 162426 160350 l 30 143224" class="C2" /><path d="M 181846 163033 l 0 137857" class="C2" /><path d="M 126013 170299 l 0 123327" class="C2" /><path d="M 151561 314883 l 21789 0 l 0 -12138 c -7221 1105 -14568 1105 -21789 0 l -0 12138" class="C2" /><path d="M 156357 319738 l 12138 0 l 0 -4855 l -12138 0 l 0 4855" class="C2" /><path d="M 96590 260102 l -27330 15779 l 8496 14716 l 27330 -15779 c -3398 -4556 -6250 -9495 -8496 -14716" class="C2" /><path d="M 83087 270701 l -10512 6069 m 0 0 l 6069 10512 m 4443 -16580 l -0 0" class="C5" /><path d="M 219736 274921 l 27330 15779 l 8496 -14716 l -27330 -15779 c -2246 5221 -5098 10160 -8496 14716" class="C2" /><path d="M 235666 281315 l 10512 6069 m 0 0 l 6069 -10512 m -16580 4443 l 0 0" class="C5" /><path d="M 170996 160863 l 0 -31558 l -16993 0 l -0 31558 c 5645 -665 11348 -665 16993 0" class="C2" /><path d="M 168569 143871 l 0 -12138 m 0 0 l -12138 0 m 12138 12138 l 0 0" class="C5" /><path d="M 183060 265367 l -1214 0 l 0 -7283 l 1214 0 l 0 7283" class="C6" /><path d="M 162441 236817 l 1214 0 l 0 -7283 l -1214 0 l 0 7283" class="C6" /><path d="M 126013 235855 l 1214 0 l 0 -7283 l -1214 0 l 0 7283" class="C6" /><path d="M 183060 204649 l -1214 0 l 0 -7283 l 1214 0 l 0 7283" class="C6" /><path d="M 190343 204649 l -7283 0 l 0 -7283 l 7283 0 l 0 7283" class="C7" /><path d="M 163655 236817 l 7283 0 l 0 -7283 l -7283 0 l 0 7283" class="C7" /><path d="M 190343 265367 l -7283 0 l 0 -7283 l 7283 0 l 0 7283" class="C7" /><path d="M 127227 235855 l 7283 0 l 0 -7283 l -7283 0 l 0 7283" class="C7" /><path d="M 158498 301147 l 0 -65543" class="C3" /><path d="M 154052 303574 l 8892 0" class="C3" /><path d="M 157284 302361 l 2428 2428" class="C2" /><path d="M 158498 301112 l 0 4924" class="C3" /><path d="M 162944 233176 l -8892 0" class="C3" /><path d="M 159712 234390 l -2428 -2428" class="C2" /><path d="M 158498 235638 l 0 -4924" class="C3" /><path d="M 153760 273527 l 0 -772 l 1032 0 l 0 772 l -1032 0 Z M 154101 270511 l 0 -2577 l 691 0 l 0 3467 l -691 0 q -484 -419 -1299 -1146 q -815 -728 -1051 -915 q -443 -354 -750 -494 q -307 -140 -604 -140 q -484 0 -789 305 q -305 305 -305 797 q 0 346 134 732 q 134 386 406 825 l -829 0 q -199 -447 -301 -835 q -102 -388 -102 -709 q 0 -850 472 -1354 q 472 -504 1260 -504 q 374 0 709 126 q 335 126 791 459 q 118 93 681 583 q 563 490 1575 1380 Z M 154666 266365 l -748 0 q 146 -280 224 -565 q 77 -285 77 -561 q 0 -732 -547 -1118 q -547 -386 -1660 -439 q 350 211 537 537 q 187 325 187 719 q 0 821 -551 1299 q -551 478 -1506 478 q -935 0 -1500 -498 q -565 -498 -565 -1323 q 0 -947 807 -1447 q 807 -500 2343 -500 q 1435 0 2291 612 q 856 612 856 1648 q 0 280 -61 565 q -61 285 -183 593 m -2573 -1471 q 0 -500 -378 -791 q -378 -291 -1037 -291 q -654 0 -1035 291 q -380 291 -380 791 q 0 496 380 787 q 380 291 1035 291 q 659 0 1037 -291 q 378 -291 378 -787 Z" class="C4" /><path d="M 198181 298463 l 0 -34310" class="C3" /><path d="M 193735 300891 l 8892 0" class="C3" /><path d="M 196967 299677 l 2428 2428" class="C2" /><path d="M 198181 298429 l 0 4924" class="C3" /><path d="M 202627 261725 l -8892 0" class="C3" /><path d="M 199395 262939 l -2428 -2428" class="C2" /><path d="M 198181 264188 l 0 -4924" class="C3" /><path d="M 193443 286460 l 0 -772 l 1032 0 l 0 772 l -1032 0 Z M 193784 283952 l 0 -1207 l -4630 0 l 293 1317 l -748 0 l -293 -1309 l 0 -740 l 5378 0 l 0 -1207 l 691 0 l 0 3146 l -691 0 Z M 191114 277648 q 0 496 378 787 q 378 291 1037 291 q 654 0 1035 -291 q 380 -291 380 -787 q 0 -500 -380 -791 q -380 -291 -1035 -291 q -659 0 -1037 291 q -378 291 -378 791 m -2573 -1467 l 748 0 q -146 276 -224 561 q -77 285 -77 561 q 0 732 549 1118 q 549 386 1658 439 q -354 -215 -543 -541 q -189 -325 -189 -715 q 0 -825 555 -1303 q 555 -478 1510 -478 q 935 0 1500 498 q 565 498 565 1327 q 0 947 -807 1447 q -807 500 -2339 500 q -1439 0 -2295 -614 q -856 -614 -856 -1650 q 0 -276 61 -561 q 61 -285 183 -589 Z" class="C4" /><path d="M 198181 259298 l 0 -55863" class="C3" /><path d="M 193735 261725 l 8892 0" class="C3" /><path d="M 196967 260511 l 2428 2428" class="C2" /><path d="M 198181 259263 l 0 4924" class="C3" /><path d="M 202627 201007 l -8892 0" class="C3" /><path d="M 199395 202221 l -2428 -2428" class="C2" /><path d="M 198181 203470 l 0 -4924" class="C3" /><path d="M 193443 236518 l 0 -772 l 1032 0 l 0 772 l -1032 0 Z M 193784 233502 l 0 -2577 l 691 0 l 0 3467 l -691 0 q -484 -419 -1299 -1146 q -815 -728 -1051 -915 q -443 -354 -750 -494 q -307 -140 -604 -140 q -484 0 -789 305 q -305 305 -305 797 q 0 346 134 732 q 134 386 406 825 l -829 0 q -199 -447 -301 -835 q -102 -388 -102 -709 q 0 -850 472 -1354 q 472 -504 1260 -504 q 374 0 709 126 q 335 126 791 459 q 118 93 681 583 q 563 490 1575 1380 Z M 188406 229368 l 0 -2902 l 691 0 l 0 2228 l 1488 0 q -61 -163 -91 -323 q -30 -161 -30 -323 q 0 -915 557 -1449 q 557 -535 1508 -535 q 980 0 1522 549 q 543 549 543 1549 q 0 346 -65 701 q -65 356 -195 738 l -825 0 q 199 -329 297 -681 q 98 -352 98 -742 q 0 -634 -370 -1004 q -370 -370 -1004 -370 q -634 0 -1004 370 q -370 370 -370 1004 q 0 297 73 591 q 73 295 228 600 l -3049 0 Z" class="C4" /><path d="M 198181 198580 l 0 -33391" class="C3" /><path d="M 193735 201007 l 8892 0" class="C3" /><path d="M 196967 199794 l 2428 2428" class="C2" /><path d="M 198181 198545 l 0 4924" class="C3" /><path d="M 202627 162761 l -8892 0" class="C3" /><path d="M 199395 163975 l -2428 -2428" class="C2" /><path d="M 198181 165224 l 0 -4924" class="C3" /><path d="M 193443 187037 l 0 -772 l 1032 0 l 0 772 l -1032 0 Z M 193784 184529 l 0 -1207 l -4630 0 l 293 1317 l -748 0 l -293 -1309 l 0 -740 l 5378 0 l 0 -1207 l 691 0 l 0 3146 l -691 0 Z M 191114 178224 q 0 496 378 787 q 378 291 1037 291 q 654 0 1035 -291 q 380 -291 380 -787 q 0 -500 -380 -791 q -380 -291 -1035 -291 q -659 0 -1037 291 q -378 291 -378 791 m -2573 -1467 l 748 0 q -146 276 -224 561 q -77 285 -77 561 q 0 732 549 1118 q 549 386 1658 439 q -354 -215 -543 -541 q -189 -325 -189 -715 q 0 -825 555 -1303 q 555 -478 1510 -478 q 935 0 1500 498 q 565 498 565 1327 q 0 947 -807 1447 q -807 500 -2339 500 q -1439 0 -2295 -614 q -856 -614 -856 -1650 q 0 -276 61 -561 q 61 -285 183 -589 Z" class="C4" /><path d="M 158498 230748 l 0 -67956" class="C3" /><path d="M 154052 233176 l 8892 0" class="C3" /><path d="M 157284 231962 l 2428 2428" class="C2" /><path d="M 158498 230714 l 0 4924" class="C3" /><path d="M 162944 160364 l -8892 0" class="C3" /><path d="M 159712 161578 l -2428 -2428" class="C2" /><path d="M 158498 162827 l 0 -4924" class="C3" /><path d="M 153758 201922 l 0 -772 l 1032 0 l 0 772 l -1032 0 Z M 151518 197305 q 126 -528 524 -827 q 398 -299 984 -299 q 898 0 1390 555 q 492 555 492 1579 q 0 346 -75 709 q -75 364 -226 754 l -793 0 q 199 -309 301 -675 q 102 -366 102 -764 q 0 -695 -305 -1059 q -305 -364 -886 -364 q -537 0 -839 337 q -303 337 -303 943 l 0 634 l -675 0 l 0 -663 q 0 -545 -242 -835 q -242 -291 -697 -291 q -467 0 -717 299 q -250 299 -250 856 q 0 305 73 650 q 73 346 228 764 l -732 0 q -130 -419 -195 -787 q -65 -368 -65 -693 q 0 -841 425 -1333 q 425 -492 1148 -492 q 504 0 852 260 q 348 260 482 740 Z M 149262 193199 q 0 569 624 858 q 624 289 1876 289 q 1248 0 1872 -289 q 624 -289 624 -858 q 0 -573 -624 -860 q -624 -287 -1872 -287 q -1252 0 -1876 287 q -624 287 -624 860 m -650 0 q 0 -919 807 -1402 q 807 -484 2343 -484 q 1532 0 2339 484 q 807 484 807 1402 q 0 919 -807 1402 q -807 484 -2339 484 q -1537 0 -2343 -484 q -807 -484 -807 -1402 Z" class="C4" /><path d="M 120208 291198 l -0 -56557" class="C3" /><path d="M 115762 293626 l 8892 0" class="C3" /><path d="M 118994 292412 l 2428 2428" class="C2" /><path d="M 120208 291163 l 0 4924" class="C3" /><path d="M 124654 232214 l -8892 0" class="C3" /><path d="M 121422 233427 l -2428 -2428" class="C2" /><path d="M 120208 234676 l 0 -4924" class="C3" /><path d="M 115470 268072 l 0 -772 l 1032 0 l 0 772 l -1032 0 Z M 115812 265056 l 0 -2577 l 691 0 l 0 3467 l -691 0 q -484 -419 -1299 -1146 q -815 -728 -1051 -915 q -443 -354 -750 -494 q -307 -140 -604 -140 q -484 0 -789 305 q -305 305 -305 797 q 0 346 134 732 q 134 386 406 825 l -829 0 q -199 -447 -301 -835 q -102 -388 -102 -709 q 0 -850 472 -1354 q 472 -504 1260 -504 q 374 0 709 126 q 335 126 791 459 q 118 93 681 583 q 563 490 1575 1380 Z M 110434 260922 l 0 -2902 l 691 0 l 0 2228 l 1488 0 q -61 -163 -91 -323 q -30 -161 -30 -323 q 0 -915 557 -1449 q 557 -535 1508 -535 q 980 0 1522 549 q 543 549 543 1549 q 0 346 -65 701 q -65 356 -195 738 l -825 0 q 199 -329 297 -681 q 98 -352 98 -742 q 0 -634 -370 -1004 q -370 -370 -1004 -370 q -634 0 -1004 370 q -370 370 -370 1004 q 0 297 73 591 q 73 295 228 600 l -3049 0 Z" class="C4" /><path d="M 120208 229786 l 0 -57060" class="C3" /><path d="M 115762 232214 l 8892 0" class="C3" /><path d="M 118994 231000 l 2428 2428" class="C2" /><path d="M 120208 229751 l 0 4924" class="C3" /><path d="M 124654 170299 l -8892 0" class="C3" /><path d="M 121422 171512 l -2428 -2428" class="C2" /><path d="M 120208 172761 l 0 -4924" class="C3" /><path d="M 115470 206408 l 0 -772 l 1032 0 l 0 772 l -1032 0 Z M 115812 203392 l 0 -2577 l 691 0 l 0 3467 l -691 0 q -484 -419 -1299 -1146 q -815 -728 -1051 -915 q -443 -354 -750 -494 q -307 -140 -604 -140 q -484 0 -789 305 q -305 305 -305 797 q 0 346 134 732 q 134 386 406 825 l -829 0 q -199 -447 -301 -835 q -102 -388 -102 -709 q 0 -850 472 -1354 q 472 -504 1260 -504 q 374 0 709 126 q 335 126 791 459 q 118 93 681 583 q 563 490 1575 1380 Z M 113141 197596 q 0 496 378 787 q 378 291 1037 291 q 654 0 1035 -291 q 380 -291 380 -787 q 0 -500 -380 -791 q -380 -291 -1035 -291 q -659 0 -1037 291 q -378 291 -378 791 m -2573 -1467 l 748 0 q -146 276 -224 561 q -77 285 -77 561 q 0 732 549 1118 q 549 386 1658 439 q -354 -215 -543 -541 q -189 -325 -189 -715 q 0 -825 555 -1303 q 555 -478 1510 -478 q 935 0 1500 498 q 565 498 565 1327 q 0 947 -807 1447 q -807 500 -2339 500 q -1439 0 -2295 -614 q -856 -614 -856 -1650 q 0 -276 61 -561 q 61 -285 183 -589 Z" class="C4" /><path d="M 161173 392620 l -0 -60476" class="C3" /><path d="M 170322 381263 l -8033 -11357 l 0 22713 l 8033 -11357" class="C3" /><path d="M 161173 329650 l -0 -8901" class="C3" /><path d="M 174750 381239 l -0 2618 l 1393 0 q 704 0 1041 -323 q 337 -323 337 -988 q 0 -670 -337 -988 q -337 -318 -1041 -318 l -1393 -0 m 0 -2939 l -0 2154 l 1287 0 q 637 0 950 -266 q 313 -266 313 -811 q 0 -541 -313 -809 q -313 -268 -950 -268 l -1287 -0 m -871 -794 l 2221 0 q 995 0 1534 459 q 538 459 538 1307 q -0 656 -275 1043 q -275 388 -811 483 q 646 153 1000 639 q 354 486 354 1213 q -0 957 -586 1479 q -586 522 -1668 522 l -2307 -0 l 0 -7145 Z" class="C8" /><path d="M 159532 392620 l 0 -60476" class="C3" /><path d="M 150383 381263 l 8033 -11357 l -0 22713 l -8033 -11357" class="C3" /><path d="M 159532 329650 l 0 -8901" class="C3" /><path d="M 144667 378040 l -1182 3556 l 2369 -0 l -1187 -3556 m -493 -952 l 991 -0 l 2450 7145 l -905 0 l -589 -1833 l -2900 0 l -584 1833 l -919 0 l 2455 -7145 Z" class="C8" /><path d="M 161173 9455 l -0 60476" class="C3" /><path d="M 170322 20812 l -8033 11357 l 0 -22713 l 8033 11357" class="C3" /><path d="M 161173 72424 l -0 8901" class="C3" /><path d="M 174750 19630 l 0 2618 l 1393 -0 q 704 -0 1041 -323 q 337 -323 337 -988 q -0 -670 -337 -988 q -337 -318 -1041 -318 l -1393 0 m -0 -2939 l 0 2154 l 1287 -0 q 637 -0 950 -266 q 313 -266 313 -811 q -0 -541 -313 -809 q -313 -268 -950 -268 l -1287 0 m -871 -794 l 2221 -0 q 995 -0 1534 459 q 538 459 538 1307 q 0 656 -275 1043 q -275 388 -811 483 q 646 153 1000 639 q 354 486 354 1213 q 0 957 -586 1479 q -586 522 -1668 522 l -2307 0 l -0 -7145 Z" class="C8" /><path d="M 159532 9455 l 0 60476" class="C3" /><path d="M 150383 20812 l 8033 11357 l -0 -22713 l -8033 11357" class="C3" /><path d="M 159532 72424 l 0 8901" class="C3" /><path d="M 144667 17095 l -1182 3556 l 2369 0 l -1187 -3556 m -493 -952 l 991 0 l 2450 7145 l -905 -0 l -589 -1833 l -2900 -0 l -584 1833 l -919 -0 l 2455 -7145 Z" class="C8" /><path d="M 153930 868117 l 16993 0" class="C3" /><path d="M 151502 863672 l 0 8892" class="C3" /><path d="M 152716 866904 l -2428 2428" class="C2" /><path d="M 153964 868117 l -4924 0" class="C3" /><path d="M 173350 872563 l 0 -8892" class="C3" /><path d="M 172136 869331 l 2428 -2428" class="C2" /><path d="M 170888 868117 l 4924 0" class="C3" /><path d="M 157274 863380 l 772 0 l 0 1032 l -772 0 l 0 -1032 Z M 161233 858884 q -569 0 -858 624 q -289 624 -289 1876 q 0 1248 289 1872 q 289 624 858 624 q 573 0 860 -624 q 287 -624 287 -1872 q 0 -1252 -287 -1876 q -287 -624 -860 -624 m 0 -650 q 919 0 1402 807 q 484 807 484 2343 q 0 1532 -484 2339 q -484 807 -1402 807 q -919 0 -1402 -807 q -484 -807 -484 -2339 q 0 -1537 484 -2343 q 484 -807 1402 -807 Z M 164436 864286 l 0 -748 q 280 146 565 224 q 285 77 561 77 q 732 0 1118 -547 q 386 -547 439 -1660 q -211 350 -537 537 q -325 187 -719 187 q -821 0 -1299 -551 q -478 -551 -478 -1506 q 0 -935 498 -1500 q 498 -565 1323 -565 q 947 0 1447 807 q 500 807 500 2343 q 0 1435 -612 2291 q -612 856 -1648 856 q -280 0 -565 -61 q -285 -61 -593 -183 m 1471 -2573 q 500 0 791 -378 q 291 -378 291 -1037 q 0 -654 -291 -1035 q -291 -380 -791 -380 q -496 0 -787 380 q -291 380 -291 1035 q 0 659 291 1037 q 291 378 787 378 Z" class="C4" /><path d="M 133296 504978 l 58261 0" class="C3" /><path d="M 130868 500532 l 0 8892" class="C3" /><path d="M 132082 503764 l -2428 2428" class="C2" /><path d="M 133330 504978 l -4924 0" class="C3" /><path d="M 193984 509424 l 0 -8892" class="C3" /><path d="M 192770 506192 l 2428 -2428" class="C2" /><path d="M 191522 504978 l 4924 0" class="C3" /><path d="M 157274 500240 l 772 0 l 0 1032 l -772 0 l 0 -1032 Z M 160290 500581 l 2577 0 l 0 691 l -3467 0 l 0 -691 q 419 -484 1146 -1299 q 728 -815 915 -1051 q 354 -443 494 -750 q 140 -307 140 -604 q 0 -484 -305 -789 q -305 -305 -797 -305 q -346 0 -732 134 q -386 134 -825 406 l 0 -829 q 447 -199 835 -301 q 388 -102 709 -102 q 850 0 1354 472 q 504 472 504 1260 q 0 374 -126 709 q -126 335 -459 791 q -93 118 -583 681 q -490 563 -1380 1575 Z M 166086 497911 q -496 0 -787 378 q -291 378 -291 1037 q 0 654 291 1035 q 291 380 787 380 q 500 0 791 -380 q 291 -380 291 -1035 q 0 -659 -291 -1037 q -291 -378 -791 -378 m 1467 -2573 l 0 748 q -276 -146 -561 -224 q -285 -77 -561 -77 q -732 0 -1118 549 q -386 549 -439 1658 q 215 -354 541 -543 q 325 -189 715 -189 q 825 0 1303 555 q 478 555 478 1510 q 0 935 -498 1500 q -498 565 -1327 565 q -947 0 -1447 -807 q -500 -807 -500 -2339 q 0 -1439 614 -2295 q 614 -856 1650 -856 q 276 0 561 61 q 285 61 589 183 Z" class="C4" /><path d="M 93241 468281 l 138369 0" class="C3" /><path d="M 90814 463835 l 0 8892" class="C3" /><path d="M 92028 467067 l -2428 2428" class="C2" /><path d="M 93276 468281 l -4924 0" class="C3" /><path d="M 234038 472726 l 0 -8892" class="C3" /><path d="M 232824 469494 l 2428 -2428" class="C2" /><path d="M 231576 468281 l 4924 0" class="C3" /><path d="M 157274 463543 l 772 0 l 0 1032 l -772 0 l 0 -1032 Z M 159660 458506 l 2902 0 l 0 691 l -2228 0 l 0 1488 q 163 -61 323 -91 q 161 -30 323 -30 q 915 0 1449 557 q 535 557 535 1508 q 0 980 -549 1522 q -549 543 -1549 543 q -346 0 -701 -65 q -356 -65 -738 -195 l 0 -825 q 329 199 681 297 q 352 98 742 98 q 634 0 1004 -370 q 370 -370 370 -1004 q 0 -634 -370 -1004 q -370 -370 -1004 -370 q -297 0 -591 73 q -295 73 -600 228 l 0 -3049 Z M 164436 464449 l 0 -748 q 280 146 565 224 q 285 77 561 77 q 732 0 1118 -547 q 386 -547 439 -1660 q -211 350 -537 537 q -325 187 -719 187 q -821 0 -1299 -551 q -478 -551 -478 -1506 q 0 -935 498 -1500 q 498 -565 1323 -565 q 947 0 1447 807 q 500 807 500 2343 q 0 1435 -612 2291 q -612 856 -1648 856 q -280 0 -565 -61 q -285 -61 -593 -183 m 1471 -2573 q 500 0 791 -378 q 291 -378 291 -1037 q 0 -654 -291 -1035 q -291 -380 -791 -380 q -496 0 -787 380 q -291 380 -291 1035 q 0 659 291 1037 q 291 378 787 378 Z" class="C4" /></g><g id="interactive-overlay">
<path d="M 183369.0 262725.4 L 181549.2 262725.4 L 181549.2 251592.4 L 183369.0 251592.4 Z" fill="#3b82f6" fill-opacity="0.25" stroke="#1d4ed8" stroke-width="162" data-handle="1709" data-layer="BARRAS" style="cursor:pointer"/>
<path d="M 162152.8 233629.5 L 163972.6 233629.5 L 163972.6 222496.4 L 162152.8 222496.4 Z" fill="#3b82f6" fill-opacity="0.25" stroke="#1d4ed8" stroke-width="162" data-handle="170A" data-layer="BARRAS" style="cursor:pointer"/>
<path d="M 125741.3 232648.7 L 127561.1 232648.7 L 127561.1 221515.6 L 125741.3 221515.6 Z" fill="#3b82f6" fill-opacity="0.25" stroke="#1d4ed8" stroke-width="162" data-handle="170B" data-layer="BARRAS" style="cursor:pointer"/>
<path d="M 183369.0 200845.0 L 181549.2 200845.0 L 181549.2 189711.9 L 183369.0 189711.9 Z" fill="#3b82f6" fill-opacity="0.25" stroke="#1d4ed8" stroke-width="162" data-handle="170C" data-layer="BARRAS" style="cursor:pointer"/>
<path d="M 192164.8 200845.0 L 181245.9 200845.0 L 181245.9 189711.9 L 192164.8 189711.9 Z" fill="#22c55e" fill-opacity="0.25" stroke="#15803d" stroke-width="162" data-handle="170D" data-layer="SENSOR" style="cursor:pointer"/>
<path d="M 161849.5 233629.5 L 172768.4 233629.5 L 172768.4 222496.4 L 161849.5 222496.4 Z" fill="#22c55e" fill-opacity="0.25" stroke="#15803d" stroke-width="162" data-handle="170E" data-layer="SENSOR" style="cursor:pointer"/>
<path d="M 192164.8 262725.4 L 181245.9 262725.4 L 181245.9 251592.4 L 192164.8 251592.4 Z" fill="#22c55e" fill-opacity="0.25" stroke="#15803d" stroke-width="162" data-handle="170F" data-layer="SENSOR" style="cursor:pointer"/>
<path d="M 125438.0 232648.7 L 136357.0 232648.7 L 136357.0 221515.6 L 125438.0 221515.6 Z" fill="#22c55e" fill-opacity="0.25" stroke="#15803d" stroke-width="162" data-handle="1710" data-layer="SENSOR" style="cursor:pointer"/>
</g>
</svg>