<?xml version='1.0' encoding='utf-8'?>
<svg xmlns="http://www.w3.org/2000/svg" width="1.4mm" height="3.7mm" viewBox="0 0 378378 1000000"><defs><style>.C1 {stroke: #ffff00; stroke-width: 67568; stroke-opacity: 1.000; fill: none; fill-opacity: 1.000;}</style><style>.C2 {stroke: #939598; stroke-width: 67568; stroke-opacity: 1.000; fill: none; fill-opacity: 1.000;}</style><style>.C3 {stroke: #636466; stroke-width: 67568; stroke-opacity: 1.000; fill: none; fill-opacity: 1.000;}</style><style>.C4 {stroke: #00ff00; stroke-width: 67568; stroke-opacity: 1.000; fill: none; fill-opacity: 1.000;}</style><style>.C5 {stroke: #00ffff; stroke-width: 67568; stroke-opacity: 1.000; fill: none; fill-opacity: 1.000;}</style><style>.C6 {stroke: none; stroke-width: none; stroke-opacity: 1.000; fill: #00ff00; fill-opacity: 1.000;}</style><style>.C7 {stroke: none; stroke-width: none; stroke-opacity: 1.000; fill: #c7c8ca; fill-opacity: 1.000;}</style><style>.C8 {stroke: none; stroke-width: none; stroke-opacity: 1.000; fill: #00ffff; fill-opacity: 1.000;}</style><style>.C9 {stroke: #ff0000; stroke-width: 67568; stroke-opacity: 1.000; fill: none; fill-opacity: 1.000;}</style><style>.CA {stroke: none; stroke-width: none; stroke-opacity: 1.000; fill: #ffff00; fill-opacity: 1.000;}</style><style>.CB {stroke: none; stroke-width: none; stroke-opacity: 1.000; fill: #ff0000; fill-opacity: 1.000;}</style></defs><rect fill="#ffffff" x="0" y="0" width="378378" height="1000000" fill-opacity="1.0" /><g stroke-linecap="round" stroke-linejoin="round" fill-rule="evenodd"><path d="M 260654 162069 c 0 43495 -35260 78755 -78755 78755 c -43495 0 -78755 -35260 -78755 -78755 c 0 -43495 35260 -78755 78755 -78755 c 43495 0 78755 35260 78755 78755" class="C1" /><path d="M 90038 168743 c 1972 27146 15850 52029 37909 67973" class="C2" /><path d="M 144125 246070 c 26977 12131 58138 10568 83765 -4202 c 25627 -14770 42601 -40950 45628 -70373" class="C2" /><path d="M 273535 152807 c -2975 -29438 -19912 -55653 -45524 -70466 c -25612 -14813 -56782 -16420 -83781 -4319" class="C2" /><path d="M 128039 87355 c -22111 15939 -36026 40854 -38002 68040" class="C2" /><path d="M 260654 162069 l -157510 33" class="C1" /><path d="M 257702 183426 l -151607 0" class="C1" /><path d="M 249713 122024 l -135628 0" class="C1" /><path d="M 90707 150121 l 0 23962 l 13348 0 c -1216 -7941 -1216 -16021 0 -23962 l -13348 0" class="C1" /><path d="M 85368 155395 l 0 13348 l 5339 0 l 0 -13348 l -5339 0" class="C1" /><path d="M 150952 89666 l -17353 -30056 l -16184 9344 l 17353 30056 c 5010 -3737 10442 -6873 16184 -9344" class="C1" /><path d="M 139296 74817 l -6674 -11560 m 0 0 l -11560 6674 m 18234 4886 l 0 0" class="C3" /><path d="M 134656 225095 l -17353 30056 l 16184 9344 l 17353 -30056 c -5742 -2470 -11174 -5607 -16184 -9344" class="C1" /><path d="M 127624 242614 l -6674 11560 m 0 0 l 11560 6674 m -4886 -18234 l -0 -0" class="C3" /><path d="M 260089 171494 l 34706 0 l 0 -18688 l -34706 -0 c 731 6208 731 12480 0 18688" class="C1" /><path d="M 278777 168824 l 13348 0 m 0 0 l 0 -13348 m -13348 13348 l 0 0" class="C3" /><path d="M 145162 184761 l 0 -1335 l 8009 0 l 0 1335 l -8009 0" class="C4" /><path d="M 176559 162085 l 0 1335 l 8009 0 l 0 -1335 l -8009 0" class="C4" /><path d="M 177618 122024 l 0 1335 l 8009 0 l 0 -1335 l -8009 0" class="C4" /><path d="M 211936 184761 l 0 -1335 l 8009 0 l 0 1335 l -8009 0" class="C4" /><path d="M 211936 192770 l 0 -8009 l 8009 0 l 0 8009 l -8009 0" class="C5" /><path d="M 176559 163420 l 0 8009 l 8009 0 l 0 -8009 l -8009 0" class="C5" /><path d="M 145162 192770 l 0 -8009 l 8009 0 l -0 8009 l -8009 0" class="C5" /><path d="M 177618 123359 l 0 8009 l 8009 0 l 0 -8009 l -8009 0" class="C5" /><path d="M 260654 525081 l -157510 0 l 44049 -29366 l 69411 0 l 44049 29366" class="C1" /><path d="M 260654 738654 l -157510 0 l 66741 105451 l 24027 0 l 66741 -105451" class="C1" /><path d="M 274002 525081 l -184206 0" class="C1" /><path d="M 207260 844105 l -50723 0" class="C1" /><path d="M 229952 495715 l -96108 0" class="C1" /><path d="M 260107 682591 l 0 9344 l 34688 0 l 0 -2670 l -34688 -6674" class="C1" /><path d="M 278777 993606 l 13348 0 l 0 -301671 l -13348 0 l 0 301671" class="C1" /><path d="M 260654 682696 l 0 -157615 l -157510 0 l 0 213573 l 157510 0 l 0 -46719" class="C1" /><path d="M 103144 598497 l -12437 0 l 0 24027 l 12437 0 l 0 -24027" class="C1" /><path d="M 90707 603836 l -5339 0 l 0 13348 l 5339 0 l 0 -13348" class="C1" /><path d="M 103144 649220 l -12437 0 l 0 24027 l 12437 0 l 0 -24027" class="C1" /><path d="M 90707 654560 l -5339 0 l 0 13348 l 5339 0 l 0 -13348" class="C1" /><path d="M 103144 699944 l -12437 0 l 0 24027 l 12437 0 l 0 -24027" class="C1" /><path d="M 90707 705283 l -5339 0 l 0 13348 l 5339 0 l 0 -13348" class="C1" /><path d="M 274002 738654 l -184206 0" class="C1" /><path d="M 127624 777332 l 0 216274 l 11560 0 l 0 -198009" class="C2" /><path d="M 127624 777332 l 0 216274 l -6674 0 l 0 -226819" class="C2" /><path d="M 177618 525081 l 8009 0 l 0 213573 l -8009 0 l 0 -213573" class="C4" /><path d="M 177618 594492 l 8009 0" class="C4" /><path d="M 177618 647886 l 8009 0" class="C4" /><path d="M 177618 701279 l 8009 0" class="C4" /><path d="M 166892 593608 l 1062 0 l 0 -4073 l -1159 257 l 0 -658 l 1152 -257 l 651 0 l 0 4731 l 1062 0 l 0 608 l -2768 0 l 0 -608 Z M 170976 588877 l 2553 0 l 0 608 l -1960 0 l 0 1309 q 143 -54 284 -80 q 141 -27 284 -27 q 805 0 1275 490 q 470 490 470 1327 q 0 862 -483 1339 q -483 477 -1363 477 q -304 0 -617 -57 q -313 -57 -649 -172 l 0 -726 q 290 175 599 261 q 309 86 653 86 q 558 0 883 -325 q 325 -325 325 -883 q 0 -558 -325 -883 q -325 -325 -883 -325 q -261 0 -520 64 q -259 64 -527 200 l 0 -2682 Z M 176552 589352 q -501 0 -755 549 q -254 549 -254 1650 q 0 1098 254 1647 q 254 549 755 549 q 504 0 756 -549 q 252 -549 252 -1647 q 0 -1101 -252 -1650 q -252 -549 -756 -549 m 0 -572 q 808 0 1234 710 q 426 710 426 2062 q 0 1348 -426 2058 q -426 710 -1234 710 q -808 0 -1234 -710 q -426 -710 -426 -2058 q 0 -1352 426 -2062 q 426 -710 1234 -710 Z" class="C6" /><path d="M 166892 647001 l 1062 0 l 0 -4073 l -1159 257 l 0 -658 l 1152 -257 l 651 0 l 0 4731 l 1062 0 l 0 608 l -2768 0 l 0 -608 Z M 172940 644730 q 465 111 728 461 q 263 350 263 865 q 0 790 -488 1223 q -488 433 -1389 433 q -304 0 -624 -66 q -320 -66 -663 -198 l 0 -697 q 272 175 594 265 q 322 89 672 89 q 612 0 932 -268 q 320 -268 320 -780 q 0 -472 -297 -738 q -297 -266 -830 -266 l -558 0 l 0 -594 l 583 0 q 479 0 735 -213 q 256 -213 256 -613 q 0 -411 -263 -631 q -263 -220 -753 -220 q -268 0 -572 64 q -304 64 -672 200 l 0 -644 q 368 -114 692 -172 q 324 -57 610 -57 q 740 0 1173 374 q 433 374 433 1010 q 0 443 -229 749 q -229 306 -651 424 Z M 176552 642746 q -501 0 -755 549 q -254 549 -254 1650 q 0 1098 254 1647 q 254 549 755 549 q 504 0 756 -549 q 252 -549 252 -1647 q 0 -1101 -252 -1650 q -252 -549 -756 -549 m 0 -572 q 808 0 1234 710 q 426 710 426 2062 q 0 1348 -426 2058 q -426 710 -1234 710 q -808 0 -1234 -710 q -426 -710 -426 -2058 q 0 -1352 426 -2062 q 426 -710 1234 -710 Z" class="C6" /><path d="M 166892 700394 l 1062 0 l 0 -4073 l -1159 257 l 0 -658 l 1152 -257 l 651 0 l 0 4731 l 1062 0 l 0 608 l -2768 0 l 0 -608 Z M 171083 700394 l 1062 0 l 0 -4073 l -1159 257 l 0 -658 l 1152 -257 l 651 0 l 0 4731 l 1062 0 l 0 608 l -2768 0 l 0 -608 Z M 176552 696139 q -501 0 -755 549 q -254 549 -254 1650 q 0 1098 254 1647 q 254 549 755 549 q 504 0 756 -549 q 252 -549 252 -1647 q 0 -1101 -252 -1650 q -252 -549 -756 -549 m 0 -572 q 808 0 1234 710 q 426 710 426 2062 q 0 1348 -426 2058 q -426 710 -1234 710 q -808 0 -1234 -710 q -426 -710 -426 -2058 q 0 -1352 426 -2062 q 426 -710 1234 -710 Z" class="C6" /><path d="M 177618 525081 l 8009 0 l 0 213573 l -8009 0 l 0 -213573 Z" class="C7" /><path d="M 177618 605171 l 8009 0 l 0 -21357 l -8009 0 l 0 21357" class="C5" /><path d="M 177618 605171 l 8009 0 l 0 -21357 l -8009 0 l 0 21357 Z" class="C8" /><path d="M 177618 658564 l 8009 0 l 0 -21357 l -8009 0 l 0 21357 Z" class="C8" /><path d="M 177618 658564 l 8009 0 l 0 -21357 l -8009 0 l 0 21357" class="C5" /><path d="M 177618 711957 l 8009 0 l 0 -21357 l -8009 0 l 0 21357 Z" class="C8" /><path d="M 177618 711957 l 8009 0 l 0 -21357 l -8009 0 l 0 21357" class="C5" /><path d="M 172555 861675 l 18688 0" class="C9" /><path d="M 169885 856786 l 0 9778" class="C9" /><path d="M 171220 860340 l -2670 2670" class="C1" /><path d="M 172593 861675 l -5416 0" class="C9" /><path d="M 193912 866564 l 0 -9778" class="C9" /><path d="M 192577 863010 l 2670 -2670" class="C1" /><path d="M 191204 861675 l 5416 0" class="C9" /><path d="M 176233 856465 l 849 0 l 0 1135 l -849 0 l 0 -1135 Z M 180587 851521 q -626 0 -943 686 q -317 686 -317 2063 q 0 1372 317 2059 q 317 686 943 686 q 630 0 945 -686 q 315 -686 315 -2059 q 0 -1377 -315 -2063 q -315 -686 -945 -686 m 0 -715 q 1010 0 1542 887 q 532 887 532 2577 q 0 1685 -532 2573 q -532 887 -1542 887 q -1010 0 -1542 -887 q -532 -887 -532 -2573 q 0 -1690 532 -2577 q 532 -887 1542 -887 Z M 184109 857462 l 0 -823 q 308 161 621 246 q 313 85 617 85 q 805 0 1229 -601 q 425 -601 483 -1826 q -232 384 -590 590 q -358 206 -791 206 q -903 0 -1428 -606 q -525 -606 -525 -1656 q 0 -1028 548 -1650 q 548 -621 1455 -621 q 1042 0 1591 887 q 550 887 550 2577 q 0 1578 -673 2519 q -673 941 -1813 941 q -308 0 -621 -67 q -313 -67 -653 -201 m 1618 -2830 q 550 0 869 -416 q 320 -416 320 -1140 q 0 -720 -320 -1138 q -320 -418 -869 -418 q -545 0 -865 418 q -320 418 -320 1138 q 0 724 320 1140 q 320 416 865 416 Z" class="CA" /><path d="M 159207 881655 l 45384 0" class="C9" /><path d="M 156537 876766 l 0 9778" class="C9" /><path d="M 157872 880321 l -2670 2670" class="C1" /><path d="M 159245 881655 l -5416 0" class="C9" /><path d="M 207260 886545 l 0 -9778" class="C9" /><path d="M 205926 882990 l 2670 -2670" class="C1" /><path d="M 204553 881655 l 5416 0" class="C9" /><path d="M 176233 876445 l 849 0 l 0 1135 l -849 0 l 0 -1135 Z M 178991 876820 l 1328 0 l 0 -5092 l -1448 322 l 0 -823 l 1439 -322 l 814 0 l 0 5914 l 1328 0 l 0 760 l -3460 0 l 0 -760 Z M 184109 877442 l 0 -823 q 308 161 621 246 q 313 85 617 85 q 805 0 1229 -601 q 425 -601 483 -1826 q -232 384 -590 590 q -358 206 -791 206 q -903 0 -1428 -606 q -525 -606 -525 -1656 q 0 -1028 548 -1650 q 548 -621 1455 -621 q 1042 0 1591 887 q 550 887 550 2577 q 0 1578 -673 2519 q -673 941 -1813 941 q -308 0 -621 -67 q -313 -67 -653 -201 m 1618 -2830 q 550 0 869 -416 q 320 -416 320 -1140 q 0 -720 -320 -1138 q -320 -418 -869 -418 q -545 0 -865 418 q -320 418 -320 1138 q 0 724 320 1140 q 320 416 865 416 Z" class="CA" /><path d="M 191242 861675 l -2670 0" class="C9" /><path d="M 209930 861675 l 2670 0" class="C9" /><path d="M 193912 861675 l 13348 0" class="C9" /><path d="M 193912 866564 l 0 -9778" class="C9" /><path d="M 192577 863010 l 2670 -2670" class="C1" /><path d="M 191204 861675 l 5416 0" class="C9" /><path d="M 207260 856786 l 0 9778" class="C9" /><path d="M 208595 860340 l -2670 2670" class="C1" /><path d="M 209968 861675 l -5416 0" class="C9" /><path d="M 194920 856465 l 849 0 l 0 1135 l -849 0 l 0 -1135 Z M 199274 851521 q -626 0 -943 686 q -317 686 -317 2063 q 0 1372 317 2059 q 317 686 943 686 q 630 0 945 -686 q 315 -686 315 -2059 q 0 -1377 -315 -2063 q -315 -686 -945 -686 m 0 -715 q 1010 0 1542 887 q 532 887 532 2577 q 0 1685 -532 2573 q -532 887 -1542 887 q -1010 0 -1542 -887 q -532 -887 -532 -2573 q 0 -1690 532 -2577 q 532 -887 1542 -887 Z M 202783 850926 l 3192 0 l 0 760 l -2450 0 l 0 1636 q 179 -67 355 -101 q 177 -34 355 -34 q 1006 0 1594 612 q 588 612 588 1658 q 0 1077 -603 1674 q -603 597 -1703 597 q -380 0 -771 -72 q -391 -72 -811 -215 l 0 -907 q 362 219 749 326 q 387 107 816 107 q 697 0 1104 -407 q 407 -407 407 -1104 q 0 -697 -407 -1104 q -407 -407 -1104 -407 q -326 0 -650 80 q -324 80 -659 250 l 0 -3353 Z" class="CA" /><path d="M 172555 861675 l 2670 0" class="C9" /><path d="M 153867 861675 l -2670 0" class="C9" /><path d="M 169885 861675 l -13348 0" class="C9" /><path d="M 169885 856786 l 0 9778" class="C9" /><path d="M 171220 860340 l -2670 2670" class="C1" /><path d="M 172593 861675 l -5416 0" class="C9" /><path d="M 156537 866564 l 0 -9778" class="C9" /><path d="M 155202 863010 l 2670 -2670" class="C1" /><path d="M 153829 861675 l 5416 0" class="C9" /><path d="M 157545 856465 l 849 0 l 0 1135 l -849 0 l 0 -1135 Z M 161899 851521 q -626 0 -943 686 q -317 686 -317 2063 q 0 1372 317 2059 q 317 686 943 686 q 630 0 945 -686 q 315 -686 315 -2059 q 0 -1377 -315 -2063 q -315 -686 -945 -686 m 0 -715 q 1010 0 1542 887 q 532 887 532 2577 q 0 1685 -532 2573 q -532 887 -1542 887 q -1010 0 -1542 -887 q -532 -887 -532 -2573 q 0 -1690 532 -2577 q 532 -887 1542 -887 Z M 165408 850926 l 3192 0 l 0 760 l -2450 0 l 0 1636 q 179 -67 355 -101 q 177 -34 355 -34 q 1006 0 1594 612 q 588 612 588 1658 q 0 1077 -603 1674 q -603 597 -1703 597 q -380 0 -771 -72 q -391 -72 -811 -215 l 0 -907 q 362 219 749 326 q 387 107 816 107 q 697 0 1104 -407 q 407 -407 407 -1104 q 0 -697 -407 -1104 q -407 -407 -1104 -407 q -326 0 -650 80 q -324 80 -659 250 l 0 -3353 Z" class="CA" /><path d="M 63524 990937 l -0 -144161" class="C9" /><path d="M 58635 993606 l 9778 0" class="C9" /><path d="M 62189 992271 l 2670 2670" class="C1" /><path d="M 63524 990898 l 0 5416" class="C9" /><path d="M 68413 844105 l -9778 0" class="C9" /><path d="M 64859 845440 l -2670 -2670" class="C1" /><path d="M 63524 846813 l 0 -5416" class="C9" /><path d="M 58313 924522 l 0 -849 l 1135 0 l 0 849 l -1135 0 Z M 52775 921898 l 0 -3192 l 760 0 l 0 2450 l 1636 0 q -67 -179 -101 -355 q -34 -177 -34 -355 q 0 -1006 612 -1594 q 612 -588 1658 -588 q 1077 0 1674 603 q 597 603 597 1703 q 0 380 -72 771 q -72 391 -215 811 l -907 0 q 219 -362 326 -749 q 107 -387 107 -816 q 0 -697 -407 -1104 q -407 -407 -1104 -407 q -697 0 -1104 407 q -407 407 -407 1104 q 0 326 80 650 q 80 324 250 659 l -3353 0 Z M 55752 914830 q 0 545 416 865 q 416 320 1140 320 q 720 0 1138 -320 q 418 -320 418 -865 q 0 -550 -418 -869 q -418 -320 -1138 -320 q -724 0 -1140 320 q -416 320 -416 869 m -2830 -1614 l 823 0 q -161 304 -246 617 q -85 313 -85 617 q 0 805 603 1229 q 603 425 1824 483 q -389 -237 -597 -595 q -208 -358 -208 -787 q 0 -907 610 -1433 q 610 -525 1661 -525 q 1028 0 1650 548 q 621 548 621 1460 q 0 1042 -887 1591 q -887 550 -2573 550 q -1582 0 -2523 -675 q -941 -675 -941 -1815 q 0 -304 67 -617 q 67 -313 201 -648 Z" class="CA" /><path d="M 63524 841436 l -0 -100112" class="C9" /><path d="M 58635 844105 l 9778 0" class="C9" /><path d="M 62189 842771 l 2670 2670" class="C1" /><path d="M 63524 841398 l 0 5416" class="C9" /><path d="M 68413 738654 l -9778 0" class="C9" /><path d="M 64859 739989 l -2670 -2670" class="C1" /><path d="M 63524 741362 l 0 -5416" class="C9" /><path d="M 58313 797046 l 0 -849 l 1135 0 l 0 849 l -1135 0 Z M 53561 792195 l 3563 2052 l 0 -2052 l -3563 0 m -787 215 l 0 -1024 l 4350 0 l 0 -854 l 751 0 l 0 854 l 1574 0 l 0 809 l -1574 0 l 0 2713 l -872 0 l -4229 -2499 Z M 53369 787452 q 0 626 686 943 q 686 317 2063 317 q 1372 0 2059 -317 q 686 -317 686 -943 q 0 -630 -686 -945 q -686 -315 -2059 -315 q -1377 0 -2063 315 q -686 315 -686 945 m -715 0 q 0 -1010 887 -1542 q 887 -532 2577 -532 q 1685 0 2573 532 q 887 532 887 1542 q 0 1010 -887 1542 q -887 532 -2573 532 q -1690 0 -2577 -532 q -887 -532 -887 -1542 Z" class="CA" /><path d="M 41438 990937 l -0 -249613" class="C9" /><path d="M 36549 993606 l 9778 0" class="C9" /><path d="M 40103 992271 l 2670 2670" class="C1" /><path d="M 41438 990898 l 0 5416" class="C9" /><path d="M 46327 738654 l -9778 0" class="C9" /><path d="M 42773 739989 l -2670 -2670" class="C1" /><path d="M 41438 741362 l 0 -5416" class="C9" /><path d="M 36227 871796 l 0 -849 l 1135 0 l 0 849 l -1135 0 Z M 37224 869159 l -823 0 q 161 -308 246 -621 q 85 -313 85 -617 q 0 -805 -601 -1229 q -601 -425 -1826 -483 q 384 232 590 590 q 206 358 206 791 q 0 903 -606 1428 q -606 525 -1656 525 q -1028 0 -1650 -548 q -621 -548 -621 -1455 q 0 -1042 887 -1591 q 887 -550 2577 -550 q 1578 0 2519 673 q 941 673 941 1813 q 0 308 -67 621 q -67 313 -201 653 m -2830 -1618 q 0 -550 -416 -869 q -416 -320 -1140 -320 q -720 0 -1138 320 q -418 320 -418 869 q 0 545 418 865 q 418 320 1138 320 q 724 0 1140 -320 q 416 -320 416 -865 Z M 33666 862105 q 0 545 416 865 q 416 320 1140 320 q 720 0 1138 -320 q 418 -320 418 -865 q 0 -550 -418 -869 q -418 -320 -1138 -320 q -724 0 -1140 320 q -416 320 -416 869 m -2830 -1614 l 823 0 q -161 304 -246 617 q -85 313 -85 617 q 0 805 603 1229 q 603 425 1824 483 q -389 -237 -597 -595 q -208 -358 -208 -787 q 0 -907 610 -1433 q 610 -525 1661 -525 q 1028 0 1650 548 q 621 548 621 1460 q 0 1042 -887 1591 q -887 550 -2573 550 q -1582 0 -2523 -675 q -941 -675 -941 -1815 q 0 -304 67 -617 q 67 -313 201 -648 Z" class="CA" /><path d="M 41438 735984 l -0 -208233" class="C9" /><path d="M 36549 738654 l 9778 0" class="C9" /><path d="M 40103 737319 l 2670 2670" class="C1" /><path d="M 41438 735946 l 0 5416" class="C9" /><path d="M 46327 525081 l -9778 0" class="C9" /><path d="M 42773 526416 l -2670 -2670" class="C1" /><path d="M 41438 527789 l 0 -5416" class="C9" /><path d="M 36227 637534 l 0 -849 l 1135 0 l 0 849 l -1135 0 Z M 34193 633180 q 0 581 344 912 q 344 331 948 331 q 603 0 948 -331 q 344 -331 344 -912 q 0 -581 -346 -914 q -346 -333 -945 -333 q -603 0 -948 333 q -344 333 -344 914 m -384 814 q -143 523 -541 814 q -398 291 -970 291 q -800 0 -1265 -512 q -465 -512 -465 -1406 q 0 -899 465 -1408 q 465 -510 1265 -510 q 572 0 970 291 q 398 291 541 809 q 152 -586 595 -914 q 443 -329 1082 -329 q 970 0 1489 534 q 519 534 519 1527 q 0 992 -519 1527 q -519 534 -1489 534 q -639 0 -1082 -331 q -443 -331 -595 -916 m -1426 295 q 519 0 809 -291 q 291 -291 291 -818 q 0 -523 -291 -818 q -291 -295 -809 -295 q -519 0 -809 295 q -291 295 -291 818 q 0 527 291 818 q 291 291 809 291 Z M 31283 627940 q 0 626 686 943 q 686 317 2063 317 q 1372 0 2059 -317 q 686 -317 686 -943 q 0 -630 -686 -945 q -686 -315 -2059 -315 q -1377 0 -2063 315 q -686 315 -686 945 m -715 0 q 0 -1010 887 -1542 q 887 -532 2577 -532 q 1685 0 2573 532 q 887 532 887 1542 q 0 1010 -887 1542 q -887 532 -2573 532 q -1690 0 -2577 -532 q -887 -532 -887 -1542 Z" class="CA" /><path d="M 21231 522412 l 0 -24027" class="C9" /><path d="M 16342 525081 l 9778 0" class="C9" /><path d="M 19896 523746 l 2670 2670" class="C1" /><path d="M 21231 522373 l 0 5416" class="C9" /><path d="M 26120 495715 l -9778 0" class="C9" /><path d="M 22566 497050 l -2670 -2670" class="C1" /><path d="M 21231 498423 l 0 -5416" class="C9" /><path d="M 16077 516064 l 0 -849 l 1135 0 l 0 849 l -1135 0 Z M 16453 513306 l 0 -1328 l -5092 0 l 322 1448 l -823 0 l -322 -1439 l 0 -814 l 5914 0 l 0 -1328 l 760 0 l 0 3460 l -760 0 Z M 16453 508067 l 0 -1328 l -5092 0 l 322 1448 l -823 0 l -322 -1439 l 0 -814 l 5914 0 l 0 -1328 l 760 0 l 0 3460 l -760 0 Z" class="CA" /><path d="M 63524 527751 l 0 80090" class="C9" /><path d="M 68413 525081 l -9778 0" class="C9" /><path d="M 64859 526416 l -2670 -2670" class="C1" /><path d="M 63524 527789 l 0 -5416" class="C9" /><path d="M 58635 610510 l 9778 0" class="C9" /><path d="M 62189 609176 l 2670 2670" class="C1" /><path d="M 63524 607803 l 0 5416" class="C9" /><path d="M 58311 573462 l 0 -849 l 1135 0 l 0 849 l -1135 0 Z M 55848 568384 q 139 -581 577 -910 q 438 -329 1082 -329 q 988 0 1529 610 q 541 610 541 1737 q 0 380 -83 780 q -83 400 -248 829 l -872 0 q 219 -340 331 -742 q 112 -402 112 -840 q 0 -764 -335 -1165 q -335 -400 -975 -400 q -590 0 -923 371 q -333 371 -333 1037 l 0 697 l -742 0 l 0 -729 q 0 -599 -266 -919 q -266 -320 -767 -320 q -514 0 -789 329 q -275 329 -275 941 q 0 335 80 715 q 80 380 250 840 l -805 0 q -143 -460 -215 -865 q -72 -405 -72 -762 q 0 -925 467 -1466 q 467 -541 1263 -541 q 554 0 937 286 q 382 286 530 814 Z M 58686 564906 l 0 -2834 l 760 0 l 0 3813 l -760 0 q -532 -460 -1428 -1261 q -896 -800 -1156 -1006 q -487 -389 -825 -543 q -338 -154 -664 -154 q -532 0 -867 335 q -335 335 -335 876 q 0 380 148 805 q 148 425 447 907 l -912 0 q -219 -492 -331 -919 q -112 -427 -112 -780 q 0 -934 519 -1489 q 519 -554 1386 -554 q 411 0 780 139 q 369 139 869 505 q 130 103 749 641 q 619 539 1732 1518 Z" class="CA" /><path d="M 63524 613180 l 0 45384" class="C9" /><path d="M 68413 610510 l -9778 0" class="C9" /><path d="M 64859 611845 l -2670 -2670" class="C1" /><path d="M 63524 613218 l 0 -5416" class="C9" /><path d="M 58635 661234 l 9778 0" class="C9" /><path d="M 62189 659899 l 2670 2670" class="C1" /><path d="M 63524 658526 l 0 5416" class="C9" /><path d="M 58313 641538 l 0 -849 l 1135 0 l 0 849 l -1135 0 Z M 58689 638780 l 0 -1328 l -5092 0 l 322 1448 l -823 0 l -322 -1439 l 0 -814 l 5914 0 l 0 -1328 l 760 0 l 0 3460 l -760 0 Z M 59310 633662 l -823 0 q 161 -308 246 -621 q 85 -313 85 -617 q 0 -805 -601 -1229 q -601 -425 -1826 -483 q 384 232 590 590 q 206 358 206 791 q 0 903 -606 1428 q -606 525 -1656 525 q -1028 0 -1650 -548 q -621 -548 -621 -1455 q 0 -1042 887 -1591 q 887 -550 2577 -550 q 1578 0 2519 673 q 941 673 941 1813 q 0 308 -67 621 q -67 313 -201 653 m -2830 -1618 q 0 -550 -416 -869 q -416 -320 -1140 -320 q -720 0 -1138 320 q -418 320 -418 869 q 0 545 418 865 q 418 320 1138 320 q 724 0 1140 -320 q 416 -320 416 -865 Z" class="CA" /><path d="M 63524 663903 l 0 45384" class="C9" /><path d="M 68413 661234 l -9778 0" class="C9" /><path d="M 64859 662569 l -2670 -2670" class="C1" /><path d="M 63524 663942 l 0 -5416" class="C9" /><path d="M 58635 711957 l 9778 0" class="C9" /><path d="M 62189 710622 l 2670 2670" class="C1" /><path d="M 63524 709249 l 0 5416" class="C9" /><path d="M 58313 692262 l 0 -849 l 1135 0 l 0 849 l -1135 0 Z M 58689 689504 l 0 -1328 l -5092 0 l 322 1448 l -823 0 l -322 -1439 l 0 -814 l 5914 0 l 0 -1328 l 760 0 l 0 3460 l -760 0 Z M 59310 684385 l -823 0 q 161 -308 246 -621 q 85 -313 85 -617 q 0 -805 -601 -1229 q -601 -425 -1826 -483 q 384 232 590 590 q 206 358 206 791 q 0 903 -606 1428 q -606 525 -1656 525 q -1028 0 -1650 -548 q -621 -548 -621 -1455 q 0 -1042 887 -1591 q 887 -550 2577 -550 q 1578 0 2519 673 q 941 673 941 1813 q 0 308 -67 621 q -67 313 -201 653 m -2830 -1618 q 0 -550 -416 -869 q -416 -320 -1140 -320 q -720 0 -1138 320 q -418 320 -418 869 q 0 545 418 865 q 418 320 1138 320 q 724 0 1140 -320 q 416 -320 416 -865 Z" class="CA" /><path d="M 63524 714627 l 0 21357" class="C9" /><path d="M 68413 711957 l -9778 0" class="C9" /><path d="M 64859 713292 l -2670 -2670" class="C1" /><path d="M 63524 714665 l 0 -5416" class="C9" /><path d="M 58635 738654 l 9778 0" class="C9" /><path d="M 62189 737319 l 2670 2670" class="C1" /><path d="M 63524 735946 l 0 5416" class="C9" /><path d="M 58313 730972 l 0 -849 l 1135 0 l 0 849 l -1135 0 Z M 58689 728214 l 0 -1328 l -5092 0 l 322 1448 l -823 0 l -322 -1439 l 0 -814 l 5914 0 l 0 -1328 l 760 0 l 0 3460 l -760 0 Z M 53369 721378 q 0 626 686 943 q 686 317 2063 317 q 1372 0 2059 -317 q 686 -317 686 -943 q 0 -630 -686 -945 q -686 -315 -2059 -315 q -1377 0 -2063 315 q -686 315 -686 945 m -715 0 q 0 -1010 887 -1542 q 887 -532 2577 -532 q 1685 0 2573 532 q 887 532 887 1542 q 0 1010 -887 1542 q -887 532 -2573 532 q -1690 0 -2577 -532 q -887 -532 -887 -1542 Z" class="CA" /><path d="M 21231 990937 l -0 -463186" class="C9" /><path d="M 16342 993606 l 9778 0" class="C9" /><path d="M 19896 992271 l 2670 2670" class="C1" /><path d="M 21231 990898 l 0 5416" class="C9" /><path d="M 26120 525081 l -9778 0" class="C9" /><path d="M 22566 526416 l -2670 -2670" class="C1" /><path d="M 21231 527789 l 0 -5416" class="C9" /><path d="M 16396 767486 l 0 -1328 l -5092 0 l 322 1448 l -823 0 l -322 -1439 l 0 -814 l 5914 0 l 0 -1328 l 760 0 l 0 3460 l -760 0 Z M 16020 762390 l 0 -849 l 1135 0 l 0 849 l -1135 0 Z M 10482 759981 l 0 -3862 l 384 0 l 6290 2182 l 0 845 l -5914 -2047 l 0 2883 l -760 0 Z M 13459 752699 q 0 545 416 865 q 416 320 1140 320 q 720 0 1138 -320 q 418 -320 418 -865 q 0 -550 -418 -869 q -418 -320 -1138 -320 q -724 0 -1140 320 q -416 320 -416 869 m -2830 -1614 l 823 0 q -161 304 -246 617 q -85 313 -85 617 q 0 805 603 1229 q 603 425 1824 483 q -389 -237 -597 -595 q -208 -358 -208 -787 q 0 -907 610 -1433 q 610 -525 1661 -525 q 1028 0 1650 548 q 621 548 621 1460 q 0 1042 -887 1591 q -887 550 -2573 550 q -1582 0 -2523 -675 q -941 -675 -941 -1815 q 0 -304 67 -617 q 67 -313 201 -648 Z" class="CA" /><path d="M 378378 160691 l -66508 -0" class="C9" /><path d="M 365889 170752 l -12489 -8835 l 24979 0 l -12489 8835" class="C9" /><path d="M 309128 160691 l -9789 -0" class="C9" /><path d="M 364473 175740 l 0 2879 l 1532 0 q 774 0 1145 -355 q 371 -355 371 -1087 q 0 -737 -371 -1087 q -371 -350 -1145 -350 l -1532 0 m 0 -3232 l 0 2368 l 1416 0 q 700 0 1045 -292 q 345 -292 345 -892 q 0 -595 -345 -889 q -345 -295 -1045 -295 l -1416 0 m -958 -874 l 2442 0 q 1095 0 1687 505 q 592 505 592 1437 q 0 721 -303 1147 q -303 426 -892 532 q 711 168 1100 703 q 389 534 389 1334 q 0 1053 -645 1626 q -645 574 -1834 574 l -2537 0 l 0 -7858 Z" class="CB" /><path d="M 378378 158887 l -66508 0" class="C9" /><path d="M 365889 148825 l -12489 8835 l 24979 -0 l -12489 -8835" class="C9" /><path d="M 309128 158887 l -9789 0" class="C9" /><path d="M 365889 140444 l -1300 3911 l 2605 0 l -1305 -3911 m -542 -1047 l 1089 0 l 2695 7858 l -995 0 l -647 -2016 l -3190 0 l -642 2016 l -1011 0 l 2700 -7858 Z" class="CB" /><path d="M 0 160691 l 66508 -0" class="C9" /><path d="M 12489 170752 l 12489 -8835 l -24979 0 l 12489 8835" class="C9" /><path d="M 69250 160691 l 9789 -0" class="C9" /><path d="M 10854 175740 l 0 2879 l 1532 0 q 774 0 1145 -355 q 371 -355 371 -1087 q 0 -737 -371 -1087 q -371 -350 -1145 -350 l -1532 0 m 0 -3232 l 0 2368 l 1416 0 q 700 0 1045 -292 q 345 -292 345 -892 q 0 -595 -345 -889 q -345 -295 -1045 -295 l -1416 0 m -958 -874 l 2442 0 q 1095 0 1687 505 q 592 505 592 1437 q 0 721 -303 1147 q -303 426 -892 532 q 711 168 1100 703 q 389 534 389 1334 q 0 1053 -645 1626 q -645 574 -1834 574 l -2537 0 l 0 -7858 Z" class="CB" /><path d="M 0 158887 l 66508 0" class="C9" /><path d="M 12489 148825 l 12489 8835 l -24979 -0 l 12489 -8835" class="C9" /><path d="M 69250 158887 l 9789 0" class="C9" /><path d="M 12489 140444 l -1300 3911 l 2605 0 l -1305 -3911 m -542 -1047 l 1089 0 l 2695 7858 l -995 0 l -647 -2016 l -3190 0 l -642 2016 l -1011 0 l 2700 -7858 Z" class="CB" /><path d="M 149863 462316 l 64072 0" class="C9" /><path d="M 147193 457426 l 0 9778" class="C9" /><path d="M 148528 460981 l -2670 2670" class="C1" /><path d="M 149901 462316 l -5416 0" class="C9" /><path d="M 216604 467205 l 0 -9778" class="C9" /><path d="M 215269 463651 l 2670 -2670" class="C1" /><path d="M 213896 462316 l 5416 0" class="C9" /><path d="M 176233 457105 l 849 0 l 0 1135 l -849 0 l 0 -1135 Z M 179550 457481 l 2834 0 l 0 760 l -3813 0 l 0 -760 q 460 -532 1261 -1428 q 800 -896 1006 -1156 q 389 -487 543 -825 q 154 -338 154 -664 q 0 -532 -335 -867 q -335 -335 -876 -335 q -380 0 -805 148 q -425 148 -907 447 l 0 -912 q 492 -219 919 -331 q 427 -112 780 -112 q 934 0 1489 519 q 554 519 554 1386 q 0 411 -139 780 q -139 369 -505 869 q -103 130 -641 749 q -539 619 -1518 1732 Z M 185924 454544 q -545 0 -865 416 q -320 416 -320 1140 q 0 720 320 1138 q 320 418 865 418 q 550 0 869 -418 q 320 -418 320 -1138 q 0 -724 -320 -1140 q -320 -416 -869 -416 m 1614 -2830 l 0 823 q -304 -161 -617 -246 q -313 -85 -617 -85 q -805 0 -1229 603 q -425 603 -483 1824 q 237 -389 595 -597 q 358 -208 787 -208 q 907 0 1433 610 q 525 610 525 1661 q 0 1028 -548 1650 q -548 621 -1460 621 q -1042 0 -1591 -887 q -550 -887 -550 -2573 q 0 -1582 675 -2523 q 675 -941 1815 -941 q 304 0 617 67 q 313 67 648 201 Z" class="CA" /><path d="M 136514 441660 l 90768 0" class="C9" /><path d="M 133845 436771 l 0 9778" class="C9" /><path d="M 135180 440325 l -2670 2670" class="C1" /><path d="M 136553 441660 l -5416 0" class="C9" /><path d="M 229952 446549 l 0 -9778" class="C9" /><path d="M 228618 442995 l 2670 -2670" class="C1" /><path d="M 227245 441660 l 5416 0" class="C9" /><path d="M 176233 436447 l 849 0 l 0 1135 l -849 0 l 0 -1135 Z M 181311 433984 q 581 139 910 577 q 329 438 329 1082 q 0 988 -610 1529 q -610 541 -1737 541 q -380 0 -780 -83 q -400 -83 -829 -248 l 0 -872 q 340 219 742 331 q 402 112 840 112 q 764 0 1165 -335 q 400 -335 400 -975 q 0 -590 -371 -923 q -371 -333 -1037 -333 l -697 0 l 0 -742 l 729 0 q 599 0 919 -266 q 320 -266 320 -767 q 0 -514 -329 -789 q -329 -275 -941 -275 q -335 0 -715 80 q -380 80 -840 250 l 0 -805 q 460 -143 865 -215 q 405 -72 762 -72 q 925 0 1466 467 q 541 467 541 1263 q 0 554 -286 937 q -286 382 -814 530 Z M 185924 433886 q -545 0 -865 416 q -320 416 -320 1140 q 0 720 320 1138 q 320 418 865 418 q 550 0 869 -418 q 320 -418 320 -1138 q 0 -724 -320 -1140 q -320 -416 -869 -416 m 1614 -2830 l 0 823 q -304 -161 -617 -246 q -313 -85 -617 -85 q -805 0 -1229 603 q -425 603 -483 1824 q 237 -389 595 -597 q 358 -208 787 -208 q 907 0 1433 610 q 525 610 525 1661 q 0 1028 -548 1650 q -548 621 -1460 621 q -1042 0 -1591 -887 q -550 -887 -550 -2573 q 0 -1582 675 -2523 q 675 -941 1815 -941 q 304 0 617 67 q 313 67 648 201 Z" class="CA" /><path d="M 213935 462316 l -2670 0" class="C9" /><path d="M 232622 462316 l 2670 0" class="C9" /><path d="M 216604 462316 l 13348 0" class="C9" /><path d="M 216604 467205 l 0 -9778" class="C9" /><path d="M 215269 463651 l 2670 -2670" class="C1" /><path d="M 213896 462316 l 5416 0" class="C9" /><path d="M 229952 457426 l 0 9778" class="C9" /><path d="M 231287 460981 l -2670 2670" class="C1" /><path d="M 232660 462316 l -5416 0" class="C9" /><path d="M 217612 457105 l 849 0 l 0 1135 l -849 0 l 0 -1135 Z M 221966 452161 q -626 0 -943 686 q -317 686 -317 2063 q 0 1372 317 2059 q 317 686 943 686 q 630 0 945 -686 q 315 -686 315 -2059 q 0 -1377 -315 -2063 q -315 -686 -945 -686 m 0 -715 q 1010 0 1542 887 q 532 887 532 2577 q 0 1685 -532 2573 q -532 887 -1542 887 q -1010 0 -1542 -887 q -532 -887 -532 -2573 q 0 -1690 532 -2577 q 532 -887 1542 -887 Z M 225475 451566 l 3192 0 l 0 760 l -2450 0 l 0 1636 q 179 -67 355 -101 q 177 -34 355 -34 q 1006 0 1594 612 q 588 612 588 1658 q 0 1077 -603 1674 q -603 597 -1703 597 q -380 0 -771 -72 q -391 -72 -811 -215 l 0 -907 q 362 219 749 326 q 387 107 816 107 q 697 0 1104 -407 q 407 -407 407 -1104 q 0 -697 -407 -1104 q -407 -407 -1104 -407 q -326 0 -650 80 q -324 80 -659 250 l 0 -3353 Z" class="CA" /><path d="M 149863 462316 l 2670 0" class="C9" /><path d="M 131175 462316 l -2670 0" class="C9" /><path d="M 147193 462316 l -13348 0" class="C9" /><path d="M 147193 457426 l 0 9778" class="C9" /><path d="M 148528 460981 l -2670 2670" class="C1" /><path d="M 149901 462316 l -5416 0" class="C9" /><path d="M 133845 467205 l 0 -9778" class="C9" /><path d="M 132510 463651 l 2670 -2670" class="C1" /><path d="M 131137 462316 l 5416 0" class="C9" /><path d="M 134853 457105 l 849 0 l 0 1135 l -849 0 l 0 -1135 Z M 139207 452161 q -626 0 -943 686 q -317 686 -317 2063 q 0 1372 317 2059 q 317 686 943 686 q 630 0 945 -686 q 315 -686 315 -2059 q 0 -1377 -315 -2063 q -315 -686 -945 -686 m 0 -715 q 1010 0 1542 887 q 532 887 532 2577 q 0 1685 -532 2573 q -532 887 -1542 887 q -1010 0 -1542 -887 q -532 -887 -532 -2573 q 0 -1690 532 -2577 q 532 -887 1542 -887 Z M 142716 451566 l 3192 0 l 0 760 l -2450 0 l 0 1636 q 179 -67 355 -101 q 177 -34 355 -34 q 1006 0 1594 612 q 588 612 588 1658 q 0 1077 -603 1674 q -603 597 -1703 597 q -380 0 -771 -72 q -391 -72 -811 -215 l 0 -907 q 362 219 749 326 q 387 107 816 107 q 697 0 1104 -407 q 407 -407 407 -1104 q 0 -697 -407 -1104 q -407 -407 -1104 -407 q -326 0 -650 80 q -324 80 -659 250 l 0 -3353 Z" class="CA" /><path d="M 105813 421958 l 152170 0" class="C9" /><path d="M 103144 417069 l 0 9778" class="C9" /><path d="M 104479 420623 l -2670 2670" class="C1" /><path d="M 105852 421958 l -5416 0" class="C9" /><path d="M 260654 426847 l 0 -9778" class="C9" /><path d="M 259319 423293 l 2670 -2670" class="C1" /><path d="M 257946 421958 l 5416 0" class="C9" /><path d="M 176233 416748 l 849 0 l 0 1135 l -849 0 l 0 -1135 Z M 178857 411209 l 3192 0 l 0 760 l -2450 0 l 0 1636 q 179 -67 355 -101 q 177 -34 355 -34 q 1006 0 1594 612 q 588 612 588 1658 q 0 1077 -603 1674 q -603 597 -1703 597 q -380 0 -771 -72 q -391 -72 -811 -215 l 0 -907 q 362 219 749 326 q 387 107 816 107 q 697 0 1104 -407 q 407 -407 407 -1104 q 0 -697 -407 -1104 q -407 -407 -1104 -407 q -326 0 -650 80 q -324 80 -659 250 l 0 -3353 Z M 184109 417745 l 0 -823 q 308 161 621 246 q 313 85 617 85 q 805 0 1229 -601 q 425 -601 483 -1826 q -232 384 -590 590 q -358 206 -791 206 q -903 0 -1428 -606 q -525 -606 -525 -1656 q 0 -1028 548 -1650 q 548 -621 1455 -621 q 1042 0 1591 887 q 550 887 550 2577 q 0 1578 -673 2519 q -673 941 -1813 941 q -308 0 -621 -67 q -313 -67 -653 -201 m 1618 -2830 q 550 0 869 -416 q 320 -416 320 -1140 q 0 -720 -320 -1138 q -320 -418 -869 -418 q -545 0 -865 418 q -320 418 -320 1138 q 0 724 320 1140 q 320 416 865 416 Z" class="CA" /><path d="M 105813 421958 l 2670 0" class="C9" /><path d="M 87126 421958 l -2670 0" class="C9" /><path d="M 103144 421958 l -13348 0" class="C9" /><path d="M 103144 417069 l 0 9778" class="C9" /><path d="M 104479 420623 l -2670 2670" class="C1" /><path d="M 105852 421958 l -5416 0" class="C9" /><path d="M 89795 426847 l 0 -9778" class="C9" /><path d="M 88461 423293 l 2670 -2670" class="C1" /><path d="M 87088 421958 l 5416 0" class="C9" /><path d="M 90804 416748 l 849 0 l 0 1135 l -849 0 l 0 -1135 Z M 95158 411804 q -626 0 -943 686 q -317 686 -317 2063 q 0 1372 317 2059 q 317 686 943 686 q 630 0 945 -686 q 315 -686 315 -2059 q 0 -1377 -315 -2063 q -315 -686 -945 -686 m 0 -715 q 1010 0 1542 887 q 532 887 532 2577 q 0 1685 -532 2573 q -532 887 -1542 887 q -1010 0 -1542 -887 q -532 -887 -532 -2573 q 0 -1690 532 -2577 q 532 -887 1542 -887 Z M 98667 411209 l 3192 0 l 0 760 l -2450 0 l 0 1636 q 179 -67 355 -101 q 177 -34 355 -34 q 1006 0 1594 612 q 588 612 588 1658 q 0 1077 -603 1674 q -603 597 -1703 597 q -380 0 -771 -72 q -391 -72 -811 -215 l 0 -907 q 362 219 749 326 q 387 107 816 107 q 697 0 1104 -407 q 407 -407 407 -1104 q 0 -697 -407 -1104 q -407 -407 -1104 -407 q -326 0 -650 80 q -324 80 -659 250 l 0 -3353 Z" class="CA" /><path d="M 257984 421958 l -2670 0" class="C9" /><path d="M 276671 421958 l 2670 0" class="C9" /><path d="M 260654 421958 l 13348 0" class="C9" /><path d="M 260654 426847 l 0 -9778" class="C9" /><path d="M 259319 423293 l 2670 -2670" class="C1" /><path d="M 257946 421958 l 5416 0" class="C9" /><path d="M 274002 417069 l 0 9778" class="C9" /><path d="M 275337 420623 l -2670 2670" class="C1" /><path d="M 276710 421958 l -5416 0" class="C9" /><path d="M 261662 416748 l 849 0 l 0 1135 l -849 0 l 0 -1135 Z M 266016 411804 q -626 0 -943 686 q -317 686 -317 2063 q 0 1372 317 2059 q 317 686 943 686 q 630 0 945 -686 q 315 -686 315 -2059 q 0 -1377 -315 -2063 q -315 -686 -945 -686 m 0 -715 q 1010 0 1542 887 q 532 887 532 2577 q 0 1685 -532 2573 q -532 887 -1542 887 q -1010 0 -1542 -887 q -532 -887 -532 -2573 q 0 -1690 532 -2577 q 532 -887 1542 -887 Z M 269525 411209 l 3192 0 l 0 760 l -2450 0 l 0 1636 q 179 -67 355 -101 q 177 -34 355 -34 q 1006 0 1594 612 q 588 612 588 1658 q 0 1077 -603 1674 q -603 597 -1703 597 q -380 0 -771 -72 q -391 -72 -811 -215 l 0 -907 q 362 219 749 326 q 387 107 816 107 q 697 0 1104 -407 q 407 -407 407 -1104 q 0 -697 -407 -1104 q -407 -407 -1104 -407 q -326 0 -650 80 q -324 80 -659 250 l 0 -3353 Z" class="CA" /><path d="M 92465 400536 l 178867 0" class="C9" /><path d="M 89795 395647 l 0 9778" class="C9" /><path d="M 91130 399202 l -2670 2670" class="C1" /><path d="M 92503 400536 l -5416 0" class="C9" /><path d="M 274002 405426 l 0 -9778" class="C9" /><path d="M 272667 401871 l 2670 -2670" class="C1" /><path d="M 271294 400536 l 5416 0" class="C9" /><path d="M 176233 395326 l 849 0 l 0 1135 l -849 0 l 0 -1135 Z M 180685 392764 q -545 0 -865 416 q -320 416 -320 1140 q 0 720 320 1138 q 320 418 865 418 q 550 0 869 -418 q 320 -418 320 -1138 q 0 -724 -320 -1140 q -320 -416 -869 -416 m 1614 -2830 l 0 823 q -304 -161 -617 -246 q -313 -85 -617 -85 q -805 0 -1229 603 q -425 603 -483 1824 q 237 -389 595 -597 q 358 -208 787 -208 q 907 0 1433 610 q 525 610 525 1661 q 0 1028 -548 1650 q -548 621 -1460 621 q -1042 0 -1591 -887 q -550 -887 -550 -2573 q 0 -1582 675 -2523 q 675 -941 1815 -941 q 304 0 617 67 q 313 67 648 201 Z M 184109 396323 l 0 -823 q 308 161 621 246 q 313 85 617 85 q 805 0 1229 -601 q 425 -601 483 -1826 q -232 384 -590 590 q -358 206 -791 206 q -903 0 -1428 -606 q -525 -606 -525 -1656 q 0 -1028 548 -1650 q 548 -621 1455 -621 q 1042 0 1591 887 q 550 887 550 2577 q 0 1578 -673 2519 q -673 941 -1813 941 q -308 0 -621 -67 q -313 -67 -653 -201 m 1618 -2830 q 550 0 869 -416 q 320 -416 320 -1140 q 0 -720 -320 -1138 q -320 -418 -869 -418 q -545 0 -865 418 q -320 418 -320 1138 q 0 724 320 1140 q 320 416 865 416 Z" class="CA" /><path d="M 105813 14556 l 152170 0" class="C9" /><path d="M 103144 9667 l 0 9778" class="C9" /><path d="M 104479 13221 l -2670 2670" class="C1" /><path d="M 105852 14556 l -5416 0" class="C9" /><path d="M 260654 19445 l 0 -9778" class="C9" /><path d="M 259319 15891 l 2670 -2670" class="C1" /><path d="M 257946 14556 l 5416 0" class="C9" /><path d="M 176233 9345 l 849 0 l 0 1135 l -849 0 l 0 -1135 Z M 178857 3807 l 3192 0 l 0 760 l -2450 0 l 0 1636 q 179 -67 355 -101 q 177 -34 355 -34 q 1006 0 1594 612 q 588 612 588 1658 q 0 1077 -603 1674 q -603 597 -1703 597 q -380 0 -771 -72 q -391 -72 -811 -215 l 0 -907 q 362 219 749 326 q 387 107 816 107 q 697 0 1104 -407 q 407 -407 407 -1104 q 0 -697 -407 -1104 q -407 -407 -1104 -407 q -326 0 -650 80 q -324 80 -659 250 l 0 -3353 Z M 184109 10342 l 0 -823 q 308 161 621 246 q 313 85 617 85 q 805 0 1229 -601 q 425 -601 483 -1826 q -232 384 -590 590 q -358 206 -791 206 q -903 0 -1428 -606 q -525 -606 -525 -1656 q 0 -1028 548 -1650 q 548 -621 1455 -621 q 1042 0 1591 887 q 550 887 550 2577 q 0 1578 -673 2519 q -673 941 -1813 941 q -308 0 -621 -67 q -313 -67 -653 -201 m 1618 -2830 q 550 0 869 -416 q 320 -416 320 -1140 q 0 -720 -320 -1138 q -320 -418 -869 -418 q -545 0 -865 418 q -320 418 -320 1138 q 0 724 320 1140 q 320 416 865 416 Z" class="CA" /><path d="M 184568 36328 l 16018 0" class="C9" /><path d="M 181899 31439 l 0 9778" class="C9" /><path d="M 183233 34993 l -2670 2670" class="C1" /><path d="M 184606 36328 l -5416 0" class="C9" /><path d="M 203256 41217 l 0 -9778" class="C9" /><path d="M 201921 37663 l 2670 -2670" class="C1" /><path d="M 200548 36328 l 5416 0" class="C9" /><path d="M 186911 31117 l 849 0 l 0 1135 l -849 0 l 0 -1135 Z M 191265 26173 q -626 0 -943 686 q -317 686 -317 2063 q 0 1372 317 2059 q 317 686 943 686 q 630 0 945 -686 q 315 -686 315 -2059 q 0 -1377 -315 -2063 q -315 -686 -945 -686 m 0 -715 q 1010 0 1542 887 q 532 887 532 2577 q 0 1685 -532 2573 q -532 887 -1542 887 q -1010 0 -1542 -887 q -532 -887 -532 -2573 q 0 -1690 532 -2577 q 532 -887 1542 -887 Z M 196504 29083 q -581 0 -912 344 q -331 344 -331 948 q 0 603 331 948 q 331 344 912 344 q 581 0 914 -346 q 333 -346 333 -945 q 0 -603 -333 -948 q -333 -344 -914 -344 m -814 -384 q -523 -143 -814 -541 q -291 -398 -291 -970 q 0 -800 512 -1265 q 512 -465 1406 -465 q 899 0 1408 465 q 510 465 510 1265 q 0 572 -291 970 q -291 398 -809 541 q 586 152 914 595 q 329 443 329 1082 q 0 970 -534 1489 q -534 519 -1527 519 q -992 0 -1527 -519 q -534 -519 -534 -1489 q 0 -639 331 -1082 q 331 -443 916 -595 m -295 -1426 q 0 519 291 809 q 291 291 818 291 q 523 0 818 -291 q 295 -291 295 -809 q 0 -519 -295 -809 q -295 -291 -818 -291 q -527 0 -818 291 q -291 291 -291 809 Z" class="CA" /><path d="M 179229 36328 l -34706 0" class="C9" /><path d="M 181899 41217 l 0 -9778" class="C9" /><path d="M 180564 37663 l 2670 -2670" class="C1" /><path d="M 179191 36328 l 5416 0" class="C9" /><path d="M 141854 31439 l 0 9778" class="C9" /><path d="M 143189 34993 l -2670 2670" class="C1" /><path d="M 144562 36328 l -5416 0" class="C9" /><path d="M 156210 31117 l 849 0 l 0 1135 l -849 0 l 0 -1135 Z M 158968 31493 l 1328 0 l 0 -5092 l -1448 322 l 0 -823 l 1439 -322 l 814 0 l 0 5914 l 1328 0 l 0 760 l -3460 0 l 0 -760 Z M 164073 25579 l 3192 0 l 0 760 l -2450 0 l 0 1636 q 179 -67 355 -101 q 177 -34 355 -34 q 1006 0 1594 612 q 588 612 588 1658 q 0 1077 -603 1674 q -603 597 -1703 597 q -380 0 -771 -72 q -391 -72 -811 -215 l 0 -907 q 362 219 749 326 q 387 107 816 107 q 697 0 1104 -407 q 407 -407 407 -1104 q 0 -697 -407 -1104 q -407 -407 -1104 -407 q -326 0 -650 80 q -324 80 -659 250 l 0 -3353 Z" class="CA" /><path d="M 139184 36328 l -33371 0" class="C9" /><path d="M 141854 41217 l 0 -9778" class="C9" /><path d="M 140519 37663 l 2670 -2670" class="C1" /><path d="M 139146 36328 l 5416 0" class="C9" /><path d="M 103144 31439 l 0 9778" class="C9" /><path d="M 104479 34993 l -2670 2670" class="C1" /><path d="M 105852 36328 l -5416 0" class="C9" /><path d="M 116833 31117 l 849 0 l 0 1135 l -849 0 l 0 -1135 Z M 119591 31493 l 1328 0 l 0 -5092 l -1448 322 l 0 -823 l 1439 -322 l 814 0 l 0 5914 l 1328 0 l 0 760 l -3460 0 l 0 -760 Z M 124696 25579 l 3192 0 l 0 760 l -2450 0 l 0 1636 q 179 -67 355 -101 q 177 -34 355 -34 q 1006 0 1594 612 q 588 612 588 1658 q 0 1077 -603 1674 q -603 597 -1703 597 q -380 0 -771 -72 q -391 -72 -811 -215 l 0 -907 q 362 219 749 326 q 387 107 816 107 q 697 0 1104 -407 q 407 -407 407 -1104 q 0 -697 -407 -1104 q -407 -407 -1104 -407 q -326 0 -650 80 q -324 80 -659 250 l 0 -3353 Z" class="CA" /><path d="M 205926 36328 l 52058 0" class="C9" /><path d="M 203256 31439 l 0 9778" class="C9" /><path d="M 204591 34993 l -2670 2670" class="C1" /><path d="M 205964 36328 l -5416 0" class="C9" /><path d="M 260654 41217 l 0 -9778" class="C9" /><path d="M 259319 37663 l 2670 -2670" class="C1" /><path d="M 257946 36328 l 5416 0" class="C9" /><path d="M 226289 31174 l 849 0 l 0 1135 l -849 0 l 0 -1135 Z M 229606 31550 l 2834 0 l 0 760 l -3813 0 l 0 -760 q 460 -532 1261 -1428 q 800 -896 1006 -1156 q 389 -487 543 -825 q 154 -338 154 -664 q 0 -532 -335 -867 q -335 -335 -876 -335 q -380 0 -805 148 q -425 148 -907 447 l 0 -912 q 492 -219 919 -331 q 427 -112 780 -112 q 934 0 1489 519 q 554 519 554 1386 q 0 411 -139 780 q -139 369 -505 869 q -103 130 -641 749 q -539 619 -1518 1732 Z M 234845 31550 l 2834 0 l 0 760 l -3813 0 l 0 -760 q 460 -532 1261 -1428 q 800 -896 1006 -1156 q 389 -487 543 -825 q 154 -338 154 -664 q 0 -532 -335 -867 q -335 -335 -876 -335 q -380 0 -805 148 q -425 148 -907 447 l 0 -912 q 492 -219 919 -331 q 427 -112 780 -112 q 934 0 1489 519 q 554 519 554 1386 q 0 411 -139 780 q -139 369 -505 869 q -103 130 -641 749 q -539 619 -1518 1732 Z" class="CA" /><path d="M 108765 201806 l 37733 0" class="C9" /><path d="M 106095 196917 l 0 9778" class="C9" /><path d="M 107430 200472 l -2670 2670" class="C1" /><path d="M 108803 201806 l -5416 0" class="C9" /><path d="M 149167 206696 l 0 -9778" class="C9" /><path d="M 147832 203141 l 2670 -2670" class="C1" /><path d="M 146459 201806 l 5416 0" class="C9" /><path d="M 121965 196596 l 849 0 l 0 1135 l -849 0 l 0 -1135 Z M 124723 196971 l 1328 0 l 0 -5092 l -1448 322 l 0 -823 l 1439 -322 l 814 0 l 0 5914 l 1328 0 l 0 760 l -3460 0 l 0 -760 Z M 131656 194034 q -545 0 -865 416 q -320 416 -320 1140 q 0 720 320 1138 q 320 418 865 418 q 550 0 869 -418 q 320 -418 320 -1138 q 0 -724 -320 -1140 q -320 -416 -869 -416 m 1614 -2830 l 0 823 q -304 -161 -617 -246 q -313 -85 -617 -85 q -805 0 -1229 603 q -425 603 -483 1824 q 237 -389 595 -597 q 358 -208 787 -208 q 907 0 1433 610 q 525 610 525 1661 q 0 1028 -548 1650 q -548 621 -1460 621 q -1042 0 -1591 -887 q -550 -887 -550 -2573 q 0 -1582 675 -2523 q 675 -941 1815 -941 q 304 0 617 67 q 313 67 648 201 Z" class="CA" /><path d="M 151837 201806 l 61435 0" class="C9" /><path d="M 149167 196917 l 0 9778" class="C9" /><path d="M 150502 200472 l -2670 2670" class="C1" /><path d="M 151875 201806 l -5416 0" class="C9" /><path d="M 215941 206696 l 0 -9778" class="C9" /><path d="M 214606 203141 l 2670 -2670" class="C1" /><path d="M 213233 201806 l 5416 0" class="C9" /><path d="M 176888 196596 l 849 0 l 0 1135 l -849 0 l 0 -1135 Z M 180205 196971 l 2834 0 l 0 760 l -3813 0 l 0 -760 q 460 -532 1261 -1428 q 800 -896 1006 -1156 q 389 -487 543 -825 q 154 -338 154 -664 q 0 -532 -335 -867 q -335 -335 -876 -335 q -380 0 -805 148 q -425 148 -907 447 l 0 -912 q 492 -219 919 -331 q 427 -112 780 -112 q 934 0 1489 519 q 554 519 554 1386 q 0 411 -139 780 q -139 369 -505 869 q -103 130 -641 749 q -539 619 -1518 1732 Z M 184751 191057 l 3192 0 l 0 760 l -2450 0 l 0 1636 q 179 -67 355 -101 q 177 -34 355 -34 q 1006 0 1594 612 q 588 612 588 1658 q 0 1077 -603 1674 q -603 597 -1703 597 q -380 0 -771 -72 q -391 -72 -811 -215 l 0 -907 q 362 219 749 326 q 387 107 816 107 q 697 0 1104 -407 q 407 -407 407 -1104 q 0 -697 -407 -1104 q -407 -407 -1104 -407 q -326 0 -650 80 q -324 80 -659 250 l 0 -3353 Z" class="CA" /><path d="M 218611 201806 l 36422 0" class="C9" /><path d="M 215941 196917 l 0 9778" class="C9" /><path d="M 217276 200472 l -2670 2670" class="C1" /><path d="M 218649 201806 l -5416 0" class="C9" /><path d="M 257702 206696 l 0 -9778" class="C9" /><path d="M 256368 203141 l 2670 -2670" class="C1" /><path d="M 254995 201806 l 5416 0" class="C9" /><path d="M 231156 196596 l 849 0 l 0 1135 l -849 0 l 0 -1135 Z M 233914 196971 l 1328 0 l 0 -5092 l -1448 322 l 0 -823 l 1439 -322 l 814 0 l 0 5914 l 1328 0 l 0 760 l -3460 0 l 0 -760 Z M 240847 194034 q -545 0 -865 416 q -320 416 -320 1140 q 0 720 320 1138 q 320 418 865 418 q 550 0 869 -418 q 320 -418 320 -1138 q 0 -724 -320 -1140 q -320 -416 -869 -416 m 1614 -2830 l 0 823 q -304 -161 -617 -246 q -313 -85 -617 -85 q -805 0 -1229 603 q -425 603 -483 1824 q 237 -389 595 -597 q 358 -208 787 -208 q 907 0 1433 610 q 525 610 525 1661 q 0 1028 -548 1650 q -548 621 -1460 621 q -1042 0 -1591 -887 q -550 -887 -550 -2573 q 0 -1582 675 -2523 q 675 -941 1815 -941 q 304 0 617 67 q 313 67 648 201 Z" class="CA" /><path d="M 105813 156231 l 72081 0" class="C9" /><path d="M 103144 151342 l 0 9778" class="C9" /><path d="M 104479 154896 l -2670 2670" class="C1" /><path d="M 105852 156231 l -5416 0" class="C9" /><path d="M 180564 161121 l 0 -9778" class="C9" /><path d="M 179229 157566 l 2670 -2670" class="C1" /><path d="M 177856 156231 l 5416 0" class="C9" /><path d="M 136188 151021 l 849 0 l 0 1135 l -849 0 l 0 -1135 Z M 139505 151396 l 2834 0 l 0 760 l -3813 0 l 0 -760 q 460 -532 1261 -1428 q 800 -896 1006 -1156 q 389 -487 543 -825 q 154 -338 154 -664 q 0 -532 -335 -867 q -335 -335 -876 -335 q -380 0 -805 148 q -425 148 -907 447 l 0 -912 q 492 -219 919 -331 q 427 -112 780 -112 q 934 0 1489 519 q 554 519 554 1386 q 0 411 -139 780 q -139 369 -505 869 q -103 130 -641 749 q -539 619 -1518 1732 Z M 144064 152018 l 0 -823 q 308 161 621 246 q 313 85 617 85 q 805 0 1229 -601 q 425 -601 483 -1826 q -232 384 -590 590 q -358 206 -791 206 q -903 0 -1428 -606 q -525 -606 -525 -1656 q 0 -1028 548 -1650 q 548 -621 1455 -621 q 1042 0 1591 887 q 550 887 550 2577 q 0 1578 -673 2519 q -673 941 -1813 941 q -308 0 -621 -67 q -313 -67 -653 -201 m 1618 -2830 q 550 0 869 -416 q 320 -416 320 -1140 q 0 -720 -320 -1138 q -320 -418 -869 -418 q -545 0 -865 418 q -320 418 -320 1138 q 0 724 320 1140 q 320 416 865 416 Z" class="CA" /><path d="M 183233 156231 l 74734 0" class="C9" /><path d="M 180564 151342 l 0 9778" class="C9" /><path d="M 181899 154896 l -2670 2670" class="C1" /><path d="M 183272 156231 l -5416 0" class="C9" /><path d="M 260638 161121 l 0 -9778" class="C9" /><path d="M 259303 157566 l 2670 -2670" class="C1" /><path d="M 257930 156231 l 5416 0" class="C9" /><path d="M 214935 151019 l 849 0 l 0 1135 l -849 0 l 0 -1135 Z M 220013 148555 q 581 139 910 577 q 329 438 329 1082 q 0 988 -610 1529 q -610 541 -1737 541 q -380 0 -780 -83 q -400 -83 -829 -248 l 0 -872 q 340 219 742 331 q 402 112 840 112 q 764 0 1165 -335 q 400 -335 400 -975 q 0 -590 -371 -923 q -371 -333 -1037 -333 l -697 0 l 0 -742 l 729 0 q 599 0 919 -266 q 320 -266 320 -767 q 0 -514 -329 -789 q -329 -275 -941 -275 q -335 0 -715 80 q -380 80 -840 250 l 0 -805 q 460 -143 865 -215 q 405 -72 762 -72 q 925 0 1466 467 q 541 467 541 1263 q 0 554 -286 937 q -286 382 -814 530 Z M 224528 146074 q -626 0 -943 686 q -317 686 -317 2063 q 0 1372 317 2059 q 317 686 943 686 q 630 0 945 -686 q 315 -686 315 -2059 q 0 -1377 -315 -2063 q -315 -686 -945 -686 m 0 -715 q 1010 0 1542 887 q 532 887 532 2577 q 0 1685 -532 2573 q -532 887 -1542 887 q -1010 0 -1542 -887 q -532 -887 -532 -2573 q 0 -1690 532 -2577 q 532 -887 1542 -887 Z" class="CA" /><path d="M 116754 116433 l 62198 0" class="C9" /><path d="M 114085 111543 l 0 9778" class="C9" /><path d="M 115419 115098 l -2670 2670" class="C1" /><path d="M 116792 116433 l -5416 0" class="C9" /><path d="M 181622 121322 l 0 -9778" class="C9" /><path d="M 180287 117767 l 2670 -2670" class="C1" /><path d="M 178914 116433 l 5416 0" class="C9" /><path d="M 142187 111222 l 849 0 l 0 1135 l -849 0 l 0 -1135 Z M 145504 111598 l 2834 0 l 0 760 l -3813 0 l 0 -760 q 460 -532 1261 -1428 q 800 -896 1006 -1156 q 389 -487 543 -825 q 154 -338 154 -664 q 0 -532 -335 -867 q -335 -335 -876 -335 q -380 0 -805 148 q -425 148 -907 447 l 0 -912 q 492 -219 919 -331 q 427 -112 780 -112 q 934 0 1489 519 q 554 519 554 1386 q 0 411 -139 780 q -139 369 -505 869 q -103 130 -641 749 q -539 619 -1518 1732 Z M 150051 105683 l 3192 0 l 0 760 l -2450 0 l 0 1636 q 179 -67 355 -101 q 177 -34 355 -34 q 1006 0 1594 612 q 588 612 588 1658 q 0 1077 -603 1674 q -603 597 -1703 597 q -380 0 -771 -72 q -391 -72 -811 -215 l 0 -907 q 362 219 749 326 q 387 107 816 107 q 697 0 1104 -407 q 407 -407 407 -1104 q 0 -697 -407 -1104 q -407 -407 -1104 -407 q -326 0 -650 80 q -324 80 -659 250 l 0 -3353 Z" class="CA" /><path d="M 184292 116433 l 62751 0" class="C9" /><path d="M 181622 111543 l 0 9778" class="C9" /><path d="M 182957 115098 l -2670 2670" class="C1" /><path d="M 184330 116433 l -5416 0" class="C9" /><path d="M 249713 121322 l 0 -9778" class="C9" /><path d="M 248378 117767 l 2670 -2670" class="C1" /><path d="M 247005 116433 l 5416 0" class="C9" /><path d="M 210001 111222 l 849 0 l 0 1135 l -849 0 l 0 -1135 Z M 213318 111598 l 2834 0 l 0 760 l -3813 0 l 0 -760 q 460 -532 1261 -1428 q 800 -896 1006 -1156 q 389 -487 543 -825 q 154 -338 154 -664 q 0 -532 -335 -867 q -335 -335 -876 -335 q -380 0 -805 148 q -425 148 -907 447 l 0 -912 q 492 -219 919 -331 q 427 -112 780 -112 q 934 0 1489 519 q 554 519 554 1386 q 0 411 -139 780 q -139 369 -505 869 q -103 130 -641 749 q -539 619 -1518 1732 Z M 219693 108661 q -545 0 -865 416 q -320 416 -320 1140 q 0 720 320 1138 q 320 418 865 418 q 550 0 869 -418 q 320 -418 320 -1138 q 0 -724 -320 -1140 q -320 -416 -869 -416 m 1614 -2830 l 0 823 q -304 -161 -617 -246 q -313 -85 -617 -85 q -805 0 -1229 603 q -425 603 -483 1824 q 237 -389 595 -597 q 358 -208 787 -208 q 907 0 1433 610 q 525 610 525 1661 q 0 1028 -548 1650 q -548 621 -1460 621 q -1042 0 -1591 -887 q -550 -887 -550 -2573 q 0 -1582 675 -2523 q 675 -941 1815 -941 q 304 0 617 67 q 313 67 648 201 Z" class="CA" /><path d="M 3191 993606 l 357416 -0" class="C1" /></g><g id="interactive-overlay">
<path d="M 145162.5 183820.3 L 145162.5 182478.1 L 153166.8 182478.1 L 153166.8 183820.3 Z" fill="#bfdbfe" fill-opacity="0.75" stroke="#1d4ed8" stroke-width="2000" data-handle="1709" data-layer="BARRAS" style="cursor:pointer"/>
<path d="M 176541.2 161019.6 L 176541.2 162361.8 L 184545.5 162361.8 L 184545.5 161019.6 Z" fill="#bfdbfe" fill-opacity="0.75" stroke="#1d4ed8" stroke-width="2000" data-handle="170A" data-layer="BARRAS" style="cursor:pointer"/>
<path d="M 177598.9 120737.1 L 177598.9 122079.3 L 185603.3 122079.3 L 185603.3 120737.1 Z" fill="#bfdbfe" fill-opacity="0.75" stroke="#1d4ed8" stroke-width="2000" data-handle="170B" data-layer="BARRAS" style="cursor:pointer"/>
<path d="M 211897.8 183820.3 L 211897.8 182478.1 L 219902.1 182478.1 L 219902.1 183820.3 Z" fill="#bfdbfe" fill-opacity="0.75" stroke="#1d4ed8" stroke-width="2000" data-handle="170C" data-layer="BARRAS" style="cursor:pointer"/>
<path d="M 211897.8 191873.5 L 211897.8 183820.3 L 219902.1 183820.3 L 219902.1 191873.5 Z" fill="#bbf7d0" fill-opacity="0.75" stroke="#15803d" stroke-width="2000" data-handle="170D" data-layer="SENSOR" style="cursor:pointer"/>
<path d="M 176541.2 162361.8 L 176541.2 170415.0 L 184545.5 170415.0 L 184545.5 162361.8 Z" fill="#bbf7d0" fill-opacity="0.75" stroke="#15803d" stroke-width="2000" data-handle="170E" data-layer="SENSOR" style="cursor:pointer"/>
<path d="M 145162.5 191873.5 L 145162.5 183820.3 L 153166.8 183820.3 L 153166.8 191873.5 Z" fill="#bbf7d0" fill-opacity="0.75" stroke="#15803d" stroke-width="2000" data-handle="170F" data-layer="SENSOR" style="cursor:pointer"/>
<path d="M 177598.9 122079.3 L 177598.9 130132.5 L 185603.3 130132.5 L 185603.3 122079.3 Z" fill="#bbf7d0" fill-opacity="0.75" stroke="#15803d" stroke-width="2000" data-handle="1710" data-layer="SENSOR" style="cursor:pointer"/>
</g>
</svg>