<?xml version='1.0' encoding='utf-8'?>
<svg xmlns="http://www.w3.org/2000/svg" width="1.4mm" height="3.7mm" viewBox="0 0 378378 1000000"><defs><style>.C1 {stroke: #ffff00; stroke-width: 67568; stroke-opacity: 1.000; fill: none; fill-opacity: 1.000;}</style><style>.C2 {stroke: #939598; stroke-width: 67568; stroke-opacity: 1.000; fill: none; fill-opacity: 1.000;}</style><style>.C3 {stroke: #636466; stroke-width: 67568; stroke-opacity: 1.000; fill: none; fill-opacity: 1.000;}</style><style>.C4 {stroke: #00ff00; stroke-width: 67568; stroke-opacity: 1.000; fill: none; fill-opacity: 1.000;}</style><style>.C5 {stroke: #00ffff; stroke-width: 67568; stroke-opacity: 1.000; fill: none; fill-opacity: 1.000;}</style><style>.C6 {stroke: none; stroke-width: none; stroke-opacity: 1.000; fill: #00ff00; fill-opacity: 1.000;}</style><style>.C7 {stroke: none; stroke-width: none; stroke-opacity: 1.000; fill: #c7c8ca; fill-opacity: 1.000;}</style><style>.C8 {stroke: none; stroke-width: none; stroke-opacity: 1.000; fill: #00ffff; fill-opacity: 1.000;}</style><style>.C9 {stroke: #ff0000; stroke-width: 67568; stroke-opacity: 1.000; fill: none; fill-opacity: 1.000;}</style><style>.CA {stroke: none; stroke-width: none; stroke-opacity: 1.000; fill: #ffff00; fill-opacity: 1.000;}</style><style>.CB {stroke: none; stroke-width: none; stroke-opacity: 1.000; fill: #ff0000; fill-opacity: 1.000;}</style></defs><rect fill="#ffffff" x="0" y="0" width="378378" height="1000000" fill-opacity="1.0" /><g stroke-linecap="round" stroke-linejoin="round" fill-rule="evenodd"><path d="M 276020 163301 c -0 43337 -35131 78468 -78468 78468 c -43337 0 -78468 -35131 -78468 -78468 c 0 -43337 35131 -78468 78468 -78468 c 43337 0 78468 35131 78468 78468" class="C1" /><path d="M 289078 156651 c -1965 -27047 -15792 -51840 -37771 -67725" class="C2" /><path d="M 235188 79607 c -26878 -12087 -57926 -10529 -83460 4187 c -25534 14716 -42446 40800 -45462 70117" class="C2" /><path d="M 106250 172530 c 2965 29330 19839 55450 45358 70210 c 25519 14759 56575 16360 83476 4303" class="C2" /><path d="M 251215 237743 c 22031 -15881 35895 -40705 37863 -67792" class="C2" /><path d="M 119084 163301 l 156935 -32" class="C1" /><path d="M 122025 142022 l 151055 0" class="C1" /><path d="M 129985 203200 l 135133 0" class="C1" /><path d="M 288411 175206 l 0 -23874 l -13300 0 c 1211 7912 1211 15962 0 23874 l 13300 0" class="C1" /><path d="M 293731 169951 l 0 -13300 l -5320 0 l 0 13300 l 5320 0" class="C1" /><path d="M 228386 235440 l 17289 29946 l 16125 -9310 l -17289 -29946 c -4992 3724 -10404 6848 -16125 9310" class="C1" /><path d="M 239999 250235 l 6650 11518 m 0 0 l 11518 -6650 m -18168 -4868 l -0 0" class="C3" /><path d="M 244623 100504 l 17289 -29946 l -16125 -9310 l -17289 29946 c 5721 2461 11133 5586 16125 9310" class="C1" /><path d="M 251629 83050 l 6650 -11518 m 0 0 l -11518 -6650 m 4868 18168 l 0 0" class="C3" /><path d="M 119647 153910 l -34579 -0 l 0 18619 l 34579 0 c -729 -6185 -729 -12434 -0 -18619" class="C1" /><path d="M 101027 156570 l -13300 -0 m 0 0 l 0 13300 m 13300 -13300 l 0 -0" class="C3" /><path d="M 234154 140692 l 0 1330 l -7980 0 l 0 -1330 l 7980 0" class="C4" /><path d="M 202872 163285 l 0 -1330 l -7980 0 l 0 1330 l 7980 0" class="C4" /><path d="M 201817 203200 l 0 -1330 l -7980 0 l 0 1330 l 7980 0" class="C4" /><path d="M 167624 140692 l 0 1330 l -7980 0 l 0 -1330 l 7980 0" class="C4" /><path d="M 167624 132712 l 0 7980 l -7980 0 l 0 -7980 l 7980 0" class="C5" /><path d="M 202872 161955 l 0 -7980 l -7980 0 l 0 7980 l 7980 0" class="C5" /><path d="M 234154 132712 l 0 7980 l -7980 0 l 0 -7980 l 7980 0" class="C5" /><path d="M 201817 201870 l 0 -7980 l -7980 0 l 0 7980 l 7980 0" class="C5" /><path d="M 119084 524990 l 156935 0 l -43889 -29259 l -69158 0 l -43889 29259" class="C1" /><path d="M 119084 737784 l 156935 0 l -66498 105067 l -23939 0 l -66498 -105067" class="C1" /><path d="M 105785 524990 l 183535 0" class="C1" /><path d="M 172283 842851 l 50539 0" class="C1" /><path d="M 149673 495731 l 95757 0" class="C1" /><path d="M 119629 681925 l 0 9310 l -34561 0 l 0 -2660 l 34561 -6650" class="C1" /><path d="M 101027 991806 l -13300 0 l 0 -300571 l 13300 0 l 0 300571" class="C1" /><path d="M 119084 682030 l 0 -157040 l 156935 0 l 0 212794 l -156935 0 l 0 -46549" class="C1" /><path d="M 276020 598138 l 12391 0 l 0 23939 l -12391 0 l 0 -23939" class="C1" /><path d="M 288411 603458 l 5320 0 l 0 13300 l -5320 0 l 0 -13300" class="C1" /><path d="M 276020 648676 l 12391 0 l 0 23939 l -12391 0 l 0 -23939" class="C1" /><path d="M 288411 653996 l 5320 0 l 0 13300 l -5320 0 l 0 -13300" class="C1" /><path d="M 276020 699215 l 12391 0 l 0 23939 l -12391 0 l 0 -23939" class="C1" /><path d="M 288411 704535 l 5320 0 l 0 13300 l -5320 0 l 0 -13300" class="C1" /><path d="M 105785 737784 l 183535 0" class="C1" /><path d="M 251629 776321 l 0 215485 l -11518 0 l 0 -197287" class="C2" /><path d="M 251629 776321 l 0 215485 l 6650 0 l 0 -225992" class="C2" /><path d="M 159644 524990 l 7980 0 l 0 212794 l -7980 0 l 0 -212794" class="C4" /><path d="M 159644 594148 l 7980 0" class="C4" /><path d="M 159644 647346 l 7980 0" class="C4" /><path d="M 159644 700545 l 7980 0" class="C4" /><path d="M 148957 593267 l 1058 0 l 0 -4058 l -1154 257 l 0 -656 l 1147 -257 l 649 0 l 0 4714 l 1058 0 l 0 606 l -2758 0 l 0 -606 Z M 153027 588553 l 2544 0 l 0 606 l -1953 0 l 0 1304 q 143 -53 283 -80 q 141 -27 283 -27 q 802 0 1270 488 q 469 488 469 1322 q 0 859 -481 1334 q -481 476 -1358 476 q -303 0 -615 -57 q -312 -57 -647 -171 l 0 -723 q 289 175 597 260 q 308 86 650 86 q 556 0 880 -324 q 324 -324 324 -880 q 0 -556 -324 -880 q -324 -324 -880 -324 q -260 0 -518 64 q -258 64 -526 200 l 0 -2672 Z M 158582 589027 q -499 0 -752 547 q -253 547 -253 1644 q 0 1094 253 1641 q 253 547 752 547 q 502 0 754 -547 q 251 -547 251 -1641 q 0 -1097 -251 -1644 q -251 -547 -754 -547 m 0 -570 q 805 0 1229 707 q 424 707 424 2054 q 0 1343 -424 2051 q -424 707 -1229 707 q -805 0 -1229 -707 q -424 -707 -424 -2051 q 0 -1347 424 -2054 q 424 -707 1229 -707 Z" class="C6" /><path d="M 148957 646465 l 1058 0 l 0 -4058 l -1154 257 l 0 -656 l 1147 -257 l 649 0 l 0 4714 l 1058 0 l 0 606 l -2758 0 l 0 -606 Z M 154983 644203 q 463 110 725 460 q 262 349 262 862 q 0 787 -486 1219 q -486 431 -1384 431 q -303 0 -622 -66 q -319 -66 -661 -198 l 0 -695 q 271 175 591 264 q 321 89 670 89 q 609 0 928 -267 q 319 -267 319 -777 q 0 -470 -296 -736 q -296 -265 -827 -265 l -556 0 l 0 -591 l 581 0 q 477 0 732 -212 q 255 -212 255 -611 q 0 -410 -262 -629 q -262 -219 -750 -219 q -267 0 -570 64 q -303 64 -670 200 l 0 -641 q 367 -114 689 -171 q 322 -57 608 -57 q 738 0 1169 372 q 431 372 431 1007 q 0 442 -228 746 q -228 305 -649 422 Z M 158582 642225 q -499 0 -752 547 q -253 547 -253 1644 q 0 1094 253 1641 q 253 547 752 547 q 502 0 754 -547 q 251 -547 251 -1641 q 0 -1097 -251 -1644 q -251 -547 -754 -547 m 0 -570 q 805 0 1229 707 q 424 707 424 2054 q 0 1343 -424 2051 q -424 707 -1229 707 q -805 0 -1229 -707 q -424 -707 -424 -2051 q 0 -1347 424 -2054 q 424 -707 1229 -707 Z" class="C6" /><path d="M 148957 699664 l 1058 0 l 0 -4058 l -1154 257 l 0 -656 l 1147 -257 l 649 0 l 0 4714 l 1058 0 l 0 606 l -2758 0 l 0 -606 Z M 153134 699664 l 1058 0 l 0 -4058 l -1154 257 l 0 -656 l 1147 -257 l 649 0 l 0 4714 l 1058 0 l 0 606 l -2758 0 l 0 -606 Z M 158582 695424 q -499 0 -752 547 q -253 547 -253 1644 q 0 1094 253 1641 q 253 547 752 547 q 502 0 754 -547 q 251 -547 251 -1641 q 0 -1097 -251 -1644 q -251 -547 -754 -547 m 0 -570 q 805 0 1229 707 q 424 707 424 2054 q 0 1343 -424 2051 q -424 707 -1229 707 q -805 0 -1229 -707 q -424 -707 -424 -2051 q 0 -1347 424 -2054 q 424 -707 1229 -707 Z" class="C6" /><path d="M 159644 524990 l 7980 0 l 0 212794 l -7980 0 l 0 -212794 Z" class="C7" /><path d="M 159644 604788 l 7980 0 l 0 -21279 l -7980 0 l 0 21279" class="C5" /><path d="M 159644 604788 l 7980 0 l 0 -21279 l -7980 0 l 0 21279 Z" class="C8" /><path d="M 159644 657986 l 7980 0 l 0 -21279 l -7980 0 l 0 21279 Z" class="C8" /><path d="M 159644 657986 l 7980 0 l 0 -21279 l -7980 0 l 0 21279" class="C5" /><path d="M 159644 711184 l 7980 0 l 0 -21279 l -7980 0 l 0 21279 Z" class="C8" /><path d="M 159644 711184 l 7980 0 l 0 -21279 l -7980 0 l 0 21279" class="C5" /><path d="M 194892 524990 l 7980 0 l 0 212794 l -7980 0 l 0 -212794" class="C4" /><path d="M 194892 594148 l 7980 0" class="C4" /><path d="M 194892 647346 l 7980 0" class="C4" /><path d="M 194892 700545 l 7980 0" class="C4" /><path d="M 184206 593267 l 1058 0 l 0 -4058 l -1154 257 l 0 -656 l 1147 -257 l 649 0 l 0 4714 l 1058 0 l 0 606 l -2758 0 l 0 -606 Z M 188275 588553 l 2544 0 l 0 606 l -1953 0 l 0 1304 q 143 -53 283 -80 q 141 -27 283 -27 q 802 0 1270 488 q 469 488 469 1322 q 0 859 -481 1334 q -481 476 -1358 476 q -303 0 -615 -57 q -312 -57 -647 -171 l 0 -723 q 289 175 597 260 q 308 86 650 86 q 556 0 880 -324 q 324 -324 324 -880 q 0 -556 -324 -880 q -324 -324 -880 -324 q -260 0 -518 64 q -258 64 -526 200 l 0 -2672 Z M 193830 589027 q -499 0 -752 547 q -253 547 -253 1644 q 0 1094 253 1641 q 253 547 752 547 q 502 0 754 -547 q 251 -547 251 -1641 q 0 -1097 -251 -1644 q -251 -547 -754 -547 m 0 -570 q 805 0 1229 707 q 424 707 424 2054 q 0 1343 -424 2051 q -424 707 -1229 707 q -805 0 -1229 -707 q -424 -707 -424 -2051 q 0 -1347 424 -2054 q 424 -707 1229 -707 Z" class="C6" /><path d="M 184206 646465 l 1058 0 l 0 -4058 l -1154 257 l 0 -656 l 1147 -257 l 649 0 l 0 4714 l 1058 0 l 0 606 l -2758 0 l 0 -606 Z M 190231 644203 q 463 110 725 460 q 262 349 262 862 q 0 787 -486 1219 q -486 431 -1384 431 q -303 0 -622 -66 q -319 -66 -661 -198 l 0 -695 q 271 175 591 264 q 321 89 670 89 q 609 0 928 -267 q 319 -267 319 -777 q 0 -470 -296 -736 q -296 -265 -827 -265 l -556 0 l 0 -591 l 581 0 q 477 0 732 -212 q 255 -212 255 -611 q 0 -410 -262 -629 q -262 -219 -750 -219 q -267 0 -570 64 q -303 64 -670 200 l 0 -641 q 367 -114 689 -171 q 322 -57 608 -57 q 738 0 1169 372 q 431 372 431 1007 q 0 442 -228 746 q -228 305 -649 422 Z M 193830 642225 q -499 0 -752 547 q -253 547 -253 1644 q 0 1094 253 1641 q 253 547 752 547 q 502 0 754 -547 q 251 -547 251 -1641 q 0 -1097 -251 -1644 q -251 -547 -754 -547 m 0 -570 q 805 0 1229 707 q 424 707 424 2054 q 0 1343 -424 2051 q -424 707 -1229 707 q -805 0 -1229 -707 q -424 -707 -424 -2051 q 0 -1347 424 -2054 q 424 -707 1229 -707 Z" class="C6" /><path d="M 184206 699664 l 1058 0 l 0 -4058 l -1154 257 l 0 -656 l 1147 -257 l 649 0 l 0 4714 l 1058 0 l 0 606 l -2758 0 l 0 -606 Z M 188382 699664 l 1058 0 l 0 -4058 l -1154 257 l 0 -656 l 1147 -257 l 649 0 l 0 4714 l 1058 0 l 0 606 l -2758 0 l 0 -606 Z M 193830 695424 q -499 0 -752 547 q -253 547 -253 1644 q 0 1094 253 1641 q 253 547 752 547 q 502 0 754 -547 q 251 -547 251 -1641 q 0 -1097 -251 -1644 q -251 -547 -754 -547 m 0 -570 q 805 0 1229 707 q 424 707 424 2054 q 0 1343 -424 2051 q -424 707 -1229 707 q -805 0 -1229 -707 q -424 -707 -424 -2051 q 0 -1347 424 -2054 q 424 -707 1229 -707 Z" class="C6" /><path d="M 194892 524990 l 7980 0 l 0 212794 l -7980 0 l 0 -212794 Z" class="C7" /><path d="M 194892 604788 l 7980 0 l 0 -21279 l -7980 0 l 0 21279" class="C5" /><path d="M 194892 604788 l 7980 0 l 0 -21279 l -7980 0 l 0 21279 Z" class="C8" /><path d="M 194892 657986 l 7980 0 l 0 -21279 l -7980 0 l 0 21279 Z" class="C8" /><path d="M 194892 657986 l 7980 0 l 0 -21279 l -7980 0 l 0 21279" class="C5" /><path d="M 194892 711184 l 7980 0 l 0 -21279 l -7980 0 l 0 21279 Z" class="C8" /><path d="M 194892 711184 l 7980 0 l 0 -21279 l -7980 0 l 0 21279" class="C5" /><path d="M 226175 524990 l 7980 0 l 0 212794 l -7980 0 l 0 -212794" class="C4" /><path d="M 226175 594148 l 7980 0" class="C4" /><path d="M 226175 647346 l 7980 0" class="C4" /><path d="M 226175 700545 l 7980 0" class="C4" /><path d="M 215488 593267 l 1058 0 l 0 -4058 l -1154 257 l 0 -656 l 1147 -257 l 649 0 l 0 4714 l 1058 0 l 0 606 l -2758 0 l 0 -606 Z M 219557 588553 l 2544 0 l 0 606 l -1953 0 l 0 1304 q 143 -53 283 -80 q 141 -27 283 -27 q 802 0 1270 488 q 469 488 469 1322 q 0 859 -481 1334 q -481 476 -1358 476 q -303 0 -615 -57 q -312 -57 -647 -171 l 0 -723 q 289 175 597 260 q 308 86 650 86 q 556 0 880 -324 q 324 -324 324 -880 q 0 -556 -324 -880 q -324 -324 -880 -324 q -260 0 -518 64 q -258 64 -526 200 l 0 -2672 Z M 225112 589027 q -499 0 -752 547 q -253 547 -253 1644 q 0 1094 253 1641 q 253 547 752 547 q 502 0 754 -547 q 251 -547 251 -1641 q 0 -1097 -251 -1644 q -251 -547 -754 -547 m 0 -570 q 805 0 1229 707 q 424 707 424 2054 q 0 1343 -424 2051 q -424 707 -1229 707 q -805 0 -1229 -707 q -424 -707 -424 -2051 q 0 -1347 424 -2054 q 424 -707 1229 -707 Z" class="C6" /><path d="M 215488 646465 l 1058 0 l 0 -4058 l -1154 257 l 0 -656 l 1147 -257 l 649 0 l 0 4714 l 1058 0 l 0 606 l -2758 0 l 0 -606 Z M 221513 644203 q 463 110 725 460 q 262 349 262 862 q 0 787 -486 1219 q -486 431 -1384 431 q -303 0 -622 -66 q -319 -66 -661 -198 l 0 -695 q 271 175 591 264 q 321 89 670 89 q 609 0 928 -267 q 319 -267 319 -777 q 0 -470 -296 -736 q -296 -265 -827 -265 l -556 0 l 0 -591 l 581 0 q 477 0 732 -212 q 255 -212 255 -611 q 0 -410 -262 -629 q -262 -219 -750 -219 q -267 0 -570 64 q -303 64 -670 200 l 0 -641 q 367 -114 689 -171 q 322 -57 608 -57 q 738 0 1169 372 q 431 372 431 1007 q 0 442 -228 746 q -228 305 -649 422 Z M 225112 642225 q -499 0 -752 547 q -253 547 -253 1644 q 0 1094 253 1641 q 253 547 752 547 q 502 0 754 -547 q 251 -547 251 -1641 q 0 -1097 -251 -1644 q -251 -547 -754 -547 m 0 -570 q 805 0 1229 707 q 424 707 424 2054 q 0 1343 -424 2051 q -424 707 -1229 707 q -805 0 -1229 -707 q -424 -707 -424 -2051 q 0 -1347 424 -2054 q 424 -707 1229 -707 Z" class="C6" /><path d="M 215488 699664 l 1058 0 l 0 -4058 l -1154 257 l 0 -656 l 1147 -257 l 649 0 l 0 4714 l 1058 0 l 0 606 l -2758 0 l 0 -606 Z M 219664 699664 l 1058 0 l 0 -4058 l -1154 257 l 0 -656 l 1147 -257 l 649 0 l 0 4714 l 1058 0 l 0 606 l -2758 0 l 0 -606 Z M 225112 695424 q -499 0 -752 547 q -253 547 -253 1644 q 0 1094 253 1641 q 253 547 752 547 q 502 0 754 -547 q 251 -547 251 -1641 q 0 -1097 -251 -1644 q -251 -547 -754 -547 m 0 -570 q 805 0 1229 707 q 424 707 424 2054 q 0 1343 -424 2051 q -424 707 -1229 707 q -805 0 -1229 -707 q -424 -707 -424 -2051 q 0 -1347 424 -2054 q 424 -707 1229 -707 Z" class="C6" /><path d="M 226175 524990 l 7980 0 l 0 212794 l -7980 0 l 0 -212794 Z" class="C7" /><path d="M 226175 604788 l 7980 0 l 0 -21279 l -7980 0 l 0 21279" class="C5" /><path d="M 226175 604788 l 7980 0 l 0 -21279 l -7980 0 l 0 21279 Z" class="C8" /><path d="M 226175 657986 l 7980 0 l 0 -21279 l -7980 0 l 0 21279 Z" class="C8" /><path d="M 226175 657986 l 7980 0 l 0 -21279 l -7980 0 l 0 21279" class="C5" /><path d="M 226175 711184 l 7980 0 l 0 -21279 l -7980 0 l 0 21279 Z" class="C8" /><path d="M 226175 711184 l 7980 0 l 0 -21279 l -7980 0 l 0 21279" class="C5" /><path d="M 174943 880264 l 45219 0" class="C9" /><path d="M 172283 875392 l 0 9743" class="C9" /><path d="M 173613 878934 l -2660 2660" class="C1" /><path d="M 174981 880264 l -5396 0" class="C9" /><path d="M 222821 885135 l 0 -9743" class="C9" /><path d="M 221491 881594 l 2660 -2660" class="C1" /><path d="M 220123 880264 l 5396 0" class="C9" /><path d="M 191907 875072 l 846 0 l 0 1131 l -846 0 l 0 -1131 Z M 194655 875446 l 1323 0 l 0 -5073 l -1443 321 l 0 -820 l 1434 -321 l 811 0 l 0 5893 l 1323 0 l 0 757 l -3447 0 l 0 -757 Z M 199755 876065 l 0 -820 q 307 160 619 245 q 312 85 615 85 q 802 0 1225 -599 q 423 -599 481 -1819 q -232 383 -588 588 q -356 205 -788 205 q -900 0 -1423 -604 q -523 -604 -523 -1650 q 0 -1024 546 -1644 q 546 -619 1450 -619 q 1038 0 1586 884 q 548 884 548 2568 q 0 1572 -670 2510 q -670 938 -1806 938 q -307 0 -619 -67 q -312 -67 -650 -200 m 1612 -2819 q 548 0 866 -414 q 318 -414 318 -1136 q 0 -717 -318 -1134 q -318 -416 -866 -416 q -543 0 -862 416 q -318 416 -318 1134 q 0 722 318 1136 q 318 414 862 414 Z" class="CA" /><path d="M 206862 860356 l -2660 0" class="C9" /><path d="M 225481 860356 l 2660 0" class="C9" /><path d="M 209522 860356 l 13300 0" class="C9" /><path d="M 209522 865228 l 0 -9743" class="C9" /><path d="M 208192 861686 l 2660 -2660" class="C1" /><path d="M 206824 860356 l 5396 0" class="C9" /><path d="M 222821 855485 l 0 9743" class="C9" /><path d="M 224151 859026 l -2660 2660" class="C1" /><path d="M 225519 860356 l -5396 0" class="C9" /><path d="M 210526 855165 l 846 0 l 0 1131 l -846 0 l 0 -1131 Z M 214864 850239 q -624 0 -940 684 q -316 684 -316 2056 q 0 1367 316 2051 q 316 684 940 684 q 628 0 942 -684 q 314 -684 314 -2051 q 0 -1372 -314 -2056 q -314 -684 -942 -684 m 0 -713 q 1007 0 1537 884 q 530 884 530 2568 q 0 1679 -530 2563 q -530 884 -1537 884 q -1007 0 -1537 -884 q -530 -884 -530 -2563 q 0 -1684 530 -2568 q 530 -884 1537 -884 Z M 218361 849646 l 3180 0 l 0 757 l -2441 0 l 0 1630 q 178 -67 354 -100 q 176 -33 354 -33 q 1002 0 1588 610 q 586 610 586 1652 q 0 1073 -601 1668 q -601 595 -1697 595 q -379 0 -768 -71 q -390 -71 -808 -214 l 0 -904 q 361 218 746 325 q 385 107 813 107 q 695 0 1100 -405 q 405 -405 405 -1100 q 0 -695 -405 -1100 q -405 -405 -1100 -405 q -325 0 -648 80 q -323 80 -657 249 l 0 -3340 Z" class="CA" /><path d="M 188242 860356 l 2660 0" class="C9" /><path d="M 169623 860356 l -2660 0" class="C9" /><path d="M 185582 860356 l -13300 0" class="C9" /><path d="M 185582 855485 l 0 9743" class="C9" /><path d="M 186912 859026 l -2660 2660" class="C1" /><path d="M 188280 860356 l -5396 0" class="C9" /><path d="M 172283 865228 l 0 -9743" class="C9" /><path d="M 170953 861686 l 2660 -2660" class="C1" /><path d="M 169585 860356 l 5396 0" class="C9" /><path d="M 173287 855165 l 846 0 l 0 1131 l -846 0 l 0 -1131 Z M 177625 850239 q -624 0 -940 684 q -316 684 -316 2056 q 0 1367 316 2051 q 316 684 940 684 q 628 0 942 -684 q 314 -684 314 -2051 q 0 -1372 -314 -2056 q -314 -684 -942 -684 m 0 -713 q 1007 0 1537 884 q 530 884 530 2568 q 0 1679 -530 2563 q -530 884 -1537 884 q -1007 0 -1537 -884 q -530 -884 -530 -2563 q 0 -1684 530 -2568 q 530 -884 1537 -884 Z M 181122 849646 l 3180 0 l 0 757 l -2441 0 l 0 1630 q 178 -67 354 -100 q 176 -33 354 -33 q 1002 0 1588 610 q 586 610 586 1652 q 0 1073 -601 1668 q -601 595 -1697 595 q -379 0 -768 -71 q -390 -71 -808 -214 l 0 -904 q 361 218 746 325 q 385 107 813 107 q 695 0 1100 -405 q 405 -405 405 -1100 q 0 -695 -405 -1100 q -405 -405 -1100 -405 q -325 0 -648 80 q -323 80 -657 249 l 0 -3340 Z" class="CA" /><path d="M 322049 989146 l 0 -143636" class="C9" /><path d="M 317178 991806 l 9743 0" class="C9" /><path d="M 320719 990476 l 2660 2660" class="C1" /><path d="M 322049 989108 l 0 5396" class="C9" /><path d="M 326921 842851 l -9743 0" class="C9" /><path d="M 323379 844181 l -2660 -2660" class="C1" /><path d="M 322049 845549 l 0 -5396" class="C9" /><path d="M 316858 922974 l 0 -846 l 1131 0 l 0 846 l -1131 0 Z M 311339 920359 l 0 -3180 l 757 0 l -0 2441 l 1630 0 q -67 -178 -100 -354 q -33 -176 -33 -354 q 0 -1002 610 -1588 q 610 -586 1652 -586 q 1073 0 1668 601 q 595 601 595 1697 q 0 379 -71 768 q -71 390 -214 808 l -904 0 q 218 -361 325 -746 q 107 -385 107 -813 q 0 -695 -405 -1100 q -405 -405 -1100 -405 q -695 0 -1100 405 q -405 405 -405 1100 q 0 325 80 648 q 80 323 249 657 l -3340 0 Z M 314306 913318 q 0 543 414 862 q 414 318 1136 318 q 717 0 1134 -318 q 416 -318 416 -862 q 0 -548 -416 -866 q -416 -318 -1134 -318 q -722 0 -1136 318 q -414 318 -414 866 m -2819 -1608 l 820 0 q -160 303 -245 615 q -85 312 -85 615 q 0 802 601 1225 q 601 423 1817 481 q -387 -236 -595 -592 q -207 -356 -207 -784 q 0 -904 608 -1428 q 608 -523 1655 -523 q 1024 0 1644 546 q 619 546 619 1454 q 0 1038 -884 1586 q -884 548 -2563 548 q -1577 0 -2514 -673 q -938 -673 -938 -1808 q 0 -303 67 -615 q 67 -312 200 -646 Z" class="CA" /><path d="M 322049 840191 l 0 -99747" class="C9" /><path d="M 317178 842851 l 9743 0" class="C9" /><path d="M 320719 841521 l 2660 2660" class="C1" /><path d="M 322049 840153 l 0 5396" class="C9" /><path d="M 326921 737784 l -9743 0" class="C9" /><path d="M 323379 739114 l -2660 -2660" class="C1" /><path d="M 322049 740482 l 0 -5396" class="C9" /><path d="M 316858 795963 l 0 -846 l 1131 0 l 0 846 l -1131 0 Z M 312123 791130 l 3550 2044 l 0 -2044 l -3550 0 m -784 214 l 0 -1020 l 4334 0 l 0 -851 l 748 0 l 0 851 l 1568 0 l 0 806 l -1568 0 l 0 2704 l -869 0 l -4213 -2490 Z M 311932 786404 q 0 624 684 940 q 684 316 2056 316 q 1367 0 2051 -316 q 684 -316 684 -940 q 0 -628 -684 -942 q -684 -314 -2051 -314 q -1372 0 -2056 314 q -684 314 -684 942 m -713 0 q 0 -1007 884 -1537 q 884 -530 2568 -530 q 1679 0 2563 530 q 884 530 884 1537 q 0 1007 -884 1537 q -884 530 -2563 530 q -1684 0 -2568 -530 q -884 -530 -884 -1537 Z" class="CA" /><path d="M 344055 989146 l -0 -248703" class="C9" /><path d="M 339183 991806 l 9743 0" class="C9" /><path d="M 342725 990476 l 2660 2660" class="C1" /><path d="M 344055 989108 l 0 5396" class="C9" /><path d="M 348926 737784 l -9743 0" class="C9" /><path d="M 345385 739114 l -2660 -2660" class="C1" /><path d="M 344055 740482 l 0 -5396" class="C9" /><path d="M 338863 870440 l 0 -846 l 1131 0 l 0 846 l -1131 0 Z M 339857 867813 l -820 0 q 160 -307 245 -619 q 85 -312 85 -615 q 0 -802 -599 -1225 q -599 -423 -1819 -481 q 383 232 588 588 q 205 356 205 788 q 0 900 -604 1423 q -604 523 -1650 523 q -1024 0 -1644 -546 q -619 -546 -619 -1450 q 0 -1038 884 -1586 q 884 -548 2568 -548 q 1572 0 2510 670 q 938 670 938 1806 q 0 307 -67 619 q -67 312 -200 650 m -2819 -1612 q 0 -548 -414 -866 q -414 -318 -1136 -318 q -717 0 -1134 318 q -416 318 -416 866 q 0 543 416 862 q 416 318 1134 318 q 722 0 1136 -318 q 414 -318 414 -862 Z M 336311 860784 q 0 543 414 862 q 414 318 1136 318 q 717 0 1134 -318 q 416 -318 416 -862 q 0 -548 -416 -866 q -416 -318 -1134 -318 q -722 0 -1136 318 q -414 318 -414 866 m -2819 -1608 l 820 0 q -160 303 -245 615 q -85 312 -85 615 q 0 802 601 1225 q 601 423 1817 481 q -387 -236 -595 -592 q -207 -356 -207 -784 q 0 -904 608 -1428 q 608 -523 1655 -523 q 1024 0 1644 546 q 619 546 619 1454 q 0 1038 -884 1586 q -884 548 -2563 548 q -1577 0 -2514 -673 q -938 -673 -938 -1808 q 0 -303 67 -615 q 67 -312 200 -646 Z" class="CA" /><path d="M 344055 735124 l -0 -207474" class="C9" /><path d="M 339183 737784 l 9743 0" class="C9" /><path d="M 342725 736454 l 2660 2660" class="C1" /><path d="M 344055 735086 l 0 5396" class="C9" /><path d="M 348926 524990 l -9743 0" class="C9" /><path d="M 345385 526320 l -2660 -2660" class="C1" /><path d="M 344055 527688 l 0 -5396" class="C9" /><path d="M 338863 637032 l 0 -846 l 1131 0 l 0 846 l -1131 0 Z M 336837 632694 q 0 579 343 909 q 343 330 944 330 q 601 0 944 -330 q 343 -330 343 -909 q 0 -579 -345 -911 q -345 -332 -942 -332 q -601 0 -944 332 q -343 332 -343 911 m -383 811 q -143 521 -539 811 q -396 290 -967 290 q -797 0 -1260 -510 q -463 -510 -463 -1401 q 0 -895 463 -1403 q 463 -508 1260 -508 q 570 0 967 290 q 396 290 539 806 q 151 -583 592 -911 q 441 -327 1078 -327 q 967 0 1483 532 q 517 532 517 1521 q 0 989 -517 1521 q -517 532 -1483 532 q -637 0 -1078 -330 q -441 -330 -592 -913 m -1421 294 q 517 0 806 -290 q 290 -290 290 -815 q 0 -521 -290 -815 q -290 -294 -806 -294 q -517 0 -806 294 q -290 294 -290 815 q 0 526 290 815 q 290 290 806 290 Z M 333937 627474 q 0 624 684 940 q 684 316 2056 316 q 1367 0 2051 -316 q 684 -316 684 -940 q 0 -628 -684 -942 q -684 -314 -2051 -314 q -1372 0 -2056 314 q -684 314 -684 942 m -713 0 q 0 -1007 884 -1537 q 884 -530 2568 -530 q 1679 0 2563 530 q 884 530 884 1537 q 0 1007 -884 1537 q -884 530 -2563 530 q -1684 0 -2568 -530 q -884 -530 -884 -1537 Z" class="CA" /><path d="M 364188 522330 l 0 -23939" class="C9" /><path d="M 359317 524990 l 9743 0" class="C9" /><path d="M 362858 523660 l 2660 2660" class="C1" /><path d="M 364188 522292 l 0 5396" class="C9" /><path d="M 369059 495731 l -9743 0" class="C9" /><path d="M 365518 497061 l -2660 -2660" class="C1" /><path d="M 364188 498429 l 0 -5396" class="C9" /><path d="M 359053 516006 l 0 -846 l 1131 0 l 0 846 l -1131 0 Z M 359427 513258 l 0 -1323 l -5073 0 l 321 1443 l -820 0 l -321 -1434 l 0 -811 l 5893 0 l 0 -1323 l 757 0 l 0 3447 l -757 0 Z M 359427 508038 l 0 -1323 l -5073 0 l 321 1443 l -820 0 l -321 -1434 l 0 -811 l 5893 0 l 0 -1323 l 757 0 l 0 3447 l -757 0 Z" class="CA" /><path d="M 322049 527650 l 0 79798" class="C9" /><path d="M 326921 524990 l -9743 0" class="C9" /><path d="M 323379 526320 l -2660 -2660" class="C1" /><path d="M 322049 527688 l 0 -5396" class="C9" /><path d="M 317178 610107 l 9743 0" class="C9" /><path d="M 320719 608777 l 2660 2660" class="C1" /><path d="M 322049 607409 l 0 5396" class="C9" /><path d="M 316856 573194 l 0 -846 l 1131 0 l 0 846 l -1131 0 Z M 314401 568134 q 138 -579 575 -906 q 436 -327 1078 -327 q 984 0 1523 608 q 539 608 539 1730 q 0 379 -82 777 q -82 399 -247 826 l -869 0 q 218 -339 330 -739 q 111 -401 111 -837 q 0 -762 -334 -1160 q -334 -399 -971 -399 q -588 0 -920 370 q -332 370 -332 1033 l 0 695 l -739 0 l 0 -726 q 0 -597 -265 -915 q -265 -318 -764 -318 q -512 0 -786 327 q -274 327 -274 938 q 0 334 80 713 q 80 379 249 837 l -802 0 q -143 -459 -214 -862 q -71 -403 -71 -759 q 0 -922 465 -1461 q 465 -539 1258 -539 q 552 0 933 285 q 381 285 528 811 Z M 317230 564669 l 0 -2824 l 757 0 l 0 3799 l -757 0 q -530 -459 -1423 -1256 q -893 -797 -1151 -1002 q -485 -387 -822 -541 q -336 -154 -661 -154 q -530 0 -864 334 q -334 334 -334 873 q 0 379 147 802 q 147 423 445 904 l -909 0 q -218 -490 -330 -915 q -111 -425 -111 -777 q 0 -931 517 -1483 q 517 -552 1381 -552 q 410 0 777 138 q 367 138 866 503 q 129 102 746 639 q 617 537 1726 1512 Z" class="CA" /><path d="M 322049 612767 l 0 45219" class="C9" /><path d="M 326921 610107 l -9743 0" class="C9" /><path d="M 323379 611437 l -2660 -2660" class="C1" /><path d="M 322049 612805 l 0 -5396" class="C9" /><path d="M 317178 660646 l 9743 0" class="C9" /><path d="M 320719 659316 l 2660 2660" class="C1" /><path d="M 322049 657948 l 0 5396" class="C9" /><path d="M 316858 641022 l 0 -846 l 1131 0 l 0 846 l -1131 0 Z M 317232 638274 l 0 -1323 l -5073 0 l 321 1443 l -820 0 l -321 -1434 l 0 -811 l 5893 0 l 0 -1323 l 757 0 l 0 3447 l -757 0 Z M 317851 633174 l -820 0 q 160 -307 245 -619 q 85 -312 85 -615 q 0 -802 -599 -1225 q -599 -423 -1819 -481 q 383 232 588 588 q 205 356 205 788 q 0 900 -604 1423 q -604 523 -1650 523 q -1024 0 -1644 -546 q -619 -546 -619 -1450 q 0 -1038 884 -1586 q 884 -548 2568 -548 q 1572 0 2510 670 q 938 670 938 1806 q 0 307 -67 619 q -67 312 -200 650 m -2819 -1612 q 0 -548 -414 -866 q -414 -318 -1136 -318 q -717 0 -1134 318 q -416 318 -416 866 q 0 543 416 862 q 416 318 1134 318 q 722 0 1136 -318 q 414 -318 414 -862 Z" class="CA" /><path d="M 322049 663306 l 0 45219" class="C9" /><path d="M 326921 660646 l -9743 0" class="C9" /><path d="M 323379 661976 l -2660 -2660" class="C1" /><path d="M 322049 663344 l 0 -5396" class="C9" /><path d="M 317178 711184 l 9743 0" class="C9" /><path d="M 320719 709854 l 2660 2660" class="C1" /><path d="M 322049 708486 l 0 5396" class="C9" /><path d="M 316858 691561 l 0 -846 l 1131 0 l 0 846 l -1131 0 Z M 317232 688812 l 0 -1323 l -5073 0 l 321 1443 l -820 0 l -321 -1434 l 0 -811 l 5893 0 l 0 -1323 l 757 0 l 0 3447 l -757 0 Z M 317851 683713 l -820 0 q 160 -307 245 -619 q 85 -312 85 -615 q 0 -802 -599 -1225 q -599 -423 -1819 -481 q 383 232 588 588 q 205 356 205 788 q 0 900 -604 1423 q -604 523 -1650 523 q -1024 0 -1644 -546 q -619 -546 -619 -1450 q 0 -1038 884 -1586 q 884 -548 2568 -548 q 1572 0 2510 670 q 938 670 938 1806 q 0 307 -67 619 q -67 312 -200 650 m -2819 -1612 q 0 -548 -414 -866 q -414 -318 -1136 -318 q -717 0 -1134 318 q -416 318 -416 866 q 0 543 416 862 q 416 318 1134 318 q 722 0 1136 -318 q 414 -318 414 -862 Z" class="CA" /><path d="M 322049 713844 l 0 21279" class="C9" /><path d="M 326921 711184 l -9743 0" class="C9" /><path d="M 323379 712514 l -2660 -2660" class="C1" /><path d="M 322049 713882 l 0 -5396" class="C9" /><path d="M 317178 737784 l 9743 0" class="C9" /><path d="M 320719 736454 l 2660 2660" class="C1" /><path d="M 322049 735086 l 0 5396" class="C9" /><path d="M 316858 730129 l 0 -846 l 1131 0 l 0 846 l -1131 0 Z M 317232 727381 l 0 -1323 l -5073 0 l 321 1443 l -820 0 l -321 -1434 l 0 -811 l 5893 0 l 0 -1323 l 757 0 l 0 3447 l -757 0 Z M 311932 720571 q 0 624 684 940 q 684 316 2056 316 q 1367 0 2051 -316 q 684 -316 684 -940 q 0 -628 -684 -942 q -684 -314 -2051 -314 q -1372 0 -2056 314 q -684 314 -684 942 m -713 0 q 0 -1007 884 -1537 q 884 -530 2568 -530 q 1679 0 2563 530 q 884 530 884 1537 q 0 1007 -884 1537 q -884 530 -2563 530 q -1684 0 -2568 -530 q -884 -530 -884 -1537 Z" class="CA" /><path d="M 364188 989146 l 0 -461497" class="C9" /><path d="M 359317 991806 l 9743 0" class="C9" /><path d="M 362858 990476 l 2660 2660" class="C1" /><path d="M 364188 989108 l 0 5396" class="C9" /><path d="M 369059 524990 l -9743 0" class="C9" /><path d="M 365518 526320 l -2660 -2660" class="C1" /><path d="M 364188 527688 l 0 -5396" class="C9" /><path d="M 359371 766511 l 0 -1323 l -5073 0 l 321 1443 l -820 0 l -321 -1434 l 0 -811 l 5893 0 l 0 -1323 l 757 0 l 0 3447 l -757 0 Z M 358996 761433 l 0 -846 l 1131 0 l 0 846 l -1131 0 Z M 353478 759033 l 0 -3848 l 383 0 l 6267 2174 l 0 842 l -5893 -2040 l 0 2873 l -757 0 Z M 356444 751777 q 0 543 414 862 q 414 318 1136 318 q 717 0 1134 -318 q 416 -318 416 -862 q 0 -548 -416 -866 q -416 -318 -1134 -318 q -722 0 -1136 318 q -414 318 -414 866 m -2819 -1608 l 820 0 q -160 303 -245 615 q -85 312 -85 615 q 0 802 601 1225 q 601 423 1817 481 q -387 -236 -595 -592 q -207 -356 -207 -784 q 0 -904 608 -1428 q 608 -523 1655 -523 q 1024 0 1644 546 q 619 546 619 1454 q 0 1038 -884 1586 q -884 548 -2563 548 q -1577 0 -2514 -673 q -938 -673 -938 -1808 q 0 -303 67 -615 q 67 -312 200 -646 Z" class="CA" /><path d="M 188242 860356 l 18619 0" class="C9" /><path d="M 185582 855485 l 0 9743" class="C9" /><path d="M 186912 859026 l -2660 2660" class="C1" /><path d="M 188280 860356 l -5396 0" class="C9" /><path d="M 209522 865228 l 0 -9743" class="C9" /><path d="M 208192 861686 l 2660 -2660" class="C1" /><path d="M 206824 860356 l 5396 0" class="C9" /><path d="M 191907 855165 l 846 0 l 0 1131 l -846 0 l 0 -1131 Z M 196245 850239 q -624 0 -940 684 q -316 684 -316 2056 q 0 1367 316 2051 q 316 684 940 684 q 628 0 942 -684 q 314 -684 314 -2051 q 0 -1372 -314 -2056 q -314 -684 -942 -684 m 0 -713 q 1007 0 1537 884 q 530 884 530 2568 q 0 1679 -530 2563 q -530 884 -1537 884 q -1007 0 -1537 -884 q -530 -884 -530 -2563 q 0 -1684 530 -2568 q 530 -884 1537 -884 Z M 199755 856158 l 0 -820 q 307 160 619 245 q 312 85 615 85 q 802 0 1225 -599 q 423 -599 481 -1819 q -232 383 -588 588 q -356 205 -788 205 q -900 0 -1423 -604 q -523 -604 -523 -1650 q 0 -1024 546 -1644 q 546 -619 1450 -619 q 1038 0 1586 884 q 548 884 548 2568 q 0 1572 -670 2510 q -670 938 -1806 938 q -307 0 -619 -67 q -312 -67 -650 -200 m 1612 -2819 q 548 0 866 -414 q 318 -414 318 -1136 q 0 -717 -318 -1134 q -318 -416 -866 -416 q -543 0 -862 416 q -318 416 -318 1134 q 0 722 318 1136 q 318 414 862 414 Z" class="CA" /><path d="M 378378 164675 l -66265 0" class="C9" /><path d="M 365934 154649 l -12444 8802 l 24888 -0 l -12444 -8802" class="C9" /><path d="M 309381 164675 l -9753 0" class="C9" /><path d="M 364743 149411 l 0 2868 l 1526 0 q 771 0 1141 -354 q 370 -354 370 -1083 q 0 -734 -370 -1083 q -370 -349 -1141 -349 l -1526 0 m 0 -3220 l 0 2360 l 1411 0 q 697 0 1041 -291 q 343 -291 343 -889 q 0 -593 -343 -886 q -343 -294 -1041 -294 l -1411 0 m -954 -871 l 2433 0 q 1091 0 1681 503 q 590 503 590 1432 q 0 718 -302 1143 q -302 425 -889 530 q 708 168 1096 700 q 388 532 388 1329 q 0 1049 -642 1620 q -642 572 -1828 572 l -2528 0 l 0 -7829 Z" class="CB" /><path d="M 378378 166472 l -66265 -0" class="C9" /><path d="M 365934 176497 l -12444 -8802 l 24888 0 l -12444 8802" class="C9" /><path d="M 309381 166472 l -9753 -0" class="C9" /><path d="M 365934 179053 l -1295 3896 l 2596 0 l -1301 -3896 m -540 -1044 l 1086 0 l 2685 7829 l -991 0 l -645 -2008 l -3178 0 l -640 2008 l -1007 0 l 2690 -7829 Z" class="CB" /><path d="M 0 164675 l 66265 0" class="C9" /><path d="M 12444 154649 l 12444 8802 l -24888 -0 l 12444 -8802" class="C9" /><path d="M 68997 164675 l 9753 0" class="C9" /><path d="M 10595 149411 l 0 2868 l 1526 0 q 771 0 1141 -354 q 370 -354 370 -1083 q 0 -734 -370 -1083 q -370 -349 -1141 -349 l -1526 0 m 0 -3220 l 0 2360 l 1411 0 q 697 0 1041 -291 q 343 -291 343 -889 q 0 -593 -343 -886 q -343 -294 -1041 -294 l -1411 0 m -954 -871 l 2433 0 q 1091 0 1681 503 q 590 503 590 1432 q 0 718 -302 1143 q -302 425 -889 530 q 708 168 1096 700 q 388 532 388 1329 q 0 1049 -642 1620 q -642 572 -1828 572 l -2528 0 l 0 -7829 Z" class="CB" /><path d="M -0 166472 l 66265 -0" class="C9" /><path d="M 12444 176497 l 12444 -8802 l -24888 0 l 12444 8802" class="C9" /><path d="M 68997 166472 l 9753 -0" class="C9" /><path d="M 12444 179053 l -1295 3896 l 2596 0 l -1301 -3896 m -540 -1044 l 1086 0 l 2685 7829 l -991 0 l -645 -2008 l -3178 0 l -640 2008 l -1007 0 l 2690 -7829 Z" class="CB" /><path d="M 121744 422243 l 151616 0" class="C9" /><path d="M 119084 417371 l 0 9743" class="C9" /><path d="M 120414 420913 l -2660 2660" class="C1" /><path d="M 121782 422243 l -5396 0" class="C9" /><path d="M 276020 427114 l 0 -9743" class="C9" /><path d="M 274690 423573 l 2660 -2660" class="C1" /><path d="M 273322 422243 l 5396 0" class="C9" /><path d="M 191907 417051 l 846 0 l 0 1131 l -846 0 l 0 -1131 Z M 194521 411533 l 3180 0 l 0 757 l -2441 0 l 0 1630 q 178 -67 354 -100 q 176 -33 354 -33 q 1002 0 1588 610 q 586 610 586 1652 q 0 1073 -601 1668 q -601 595 -1697 595 q -379 0 -768 -71 q -390 -71 -808 -214 l 0 -904 q 361 218 746 325 q 385 107 813 107 q 695 0 1100 -405 q 405 -405 405 -1100 q 0 -695 -405 -1100 q -405 -405 -1100 -405 q -325 0 -648 80 q -323 80 -657 249 l 0 -3340 Z M 199755 418044 l 0 -820 q 307 160 619 245 q 312 85 615 85 q 802 0 1225 -599 q 423 -599 481 -1819 q -232 383 -588 588 q -356 205 -788 205 q -900 0 -1423 -604 q -523 -604 -523 -1650 q 0 -1024 546 -1644 q 546 -619 1450 -619 q 1038 0 1586 884 q 548 884 548 2568 q 0 1572 -670 2510 q -670 938 -1806 938 q -307 0 -619 -67 q -312 -67 -650 -200 m 1612 -2819 q 548 0 866 -414 q 318 -414 318 -1136 q 0 -717 -318 -1134 q -318 -416 -866 -416 q -543 0 -862 416 q -318 416 -318 1134 q 0 722 318 1136 q 318 414 862 414 Z" class="CA" /><path d="M 229471 462453 l -2660 0" class="C9" /><path d="M 248091 462453 l 2660 0" class="C9" /><path d="M 232131 462453 l 13300 0" class="C9" /><path d="M 232131 467324 l 0 -9743" class="C9" /><path d="M 230801 463783 l 2660 -2660" class="C1" /><path d="M 229433 462453 l 5396 0" class="C9" /><path d="M 245431 457582 l 0 9743" class="C9" /><path d="M 246761 461123 l -2660 2660" class="C1" /><path d="M 248129 462453 l -5396 0" class="C9" /><path d="M 233135 457262 l 846 0 l 0 1131 l -846 0 l 0 -1131 Z M 237474 452335 q -624 0 -940 684 q -316 684 -316 2056 q 0 1367 316 2051 q 316 684 940 684 q 628 0 942 -684 q 314 -684 314 -2051 q 0 -1372 -314 -2056 q -314 -684 -942 -684 m 0 -713 q 1007 0 1537 884 q 530 884 530 2568 q 0 1679 -530 2563 q -530 884 -1537 884 q -1007 0 -1537 -884 q -530 -884 -530 -2563 q 0 -1684 530 -2568 q 530 -884 1537 -884 Z M 240970 451743 l 3180 0 l 0 757 l -2441 0 l 0 1630 q 178 -67 354 -100 q 176 -33 354 -33 q 1002 0 1588 610 q 586 610 586 1652 q 0 1073 -601 1668 q -601 595 -1697 595 q -379 0 -768 -71 q -390 -71 -808 -214 l 0 -904 q 361 218 746 325 q 385 107 813 107 q 695 0 1100 -405 q 405 -405 405 -1100 q 0 -695 -405 -1100 q -405 -405 -1100 -405 q -325 0 -648 80 q -323 80 -657 249 l 0 -3340 Z" class="CA" /><path d="M 165633 462453 l 2660 0" class="C9" /><path d="M 147014 462453 l -2660 0" class="C9" /><path d="M 162973 462453 l -13300 0" class="C9" /><path d="M 162973 457582 l 0 9743" class="C9" /><path d="M 164303 461123 l -2660 2660" class="C1" /><path d="M 165671 462453 l -5396 0" class="C9" /><path d="M 149673 467324 l 0 -9743" class="C9" /><path d="M 148343 463783 l 2660 -2660" class="C1" /><path d="M 146975 462453 l 5396 0" class="C9" /><path d="M 150678 457262 l 846 0 l 0 1131 l -846 0 l 0 -1131 Z M 155016 452335 q -624 0 -940 684 q -316 684 -316 2056 q 0 1367 316 2051 q 316 684 940 684 q 628 0 942 -684 q 314 -684 314 -2051 q 0 -1372 -314 -2056 q -314 -684 -942 -684 m 0 -713 q 1007 0 1537 884 q 530 884 530 2568 q 0 1679 -530 2563 q -530 884 -1537 884 q -1007 0 -1537 -884 q -530 -884 -530 -2563 q 0 -1684 530 -2568 q 530 -884 1537 -884 Z M 158512 451743 l 3180 0 l 0 757 l -2441 0 l 0 1630 q 178 -67 354 -100 q 176 -33 354 -33 q 1002 0 1588 610 q 586 610 586 1652 q 0 1073 -601 1668 q -601 595 -1697 595 q -379 0 -768 -71 q -390 -71 -808 -214 l 0 -904 q 361 218 746 325 q 385 107 813 107 q 695 0 1100 -405 q 405 -405 405 -1100 q 0 -695 -405 -1100 q -405 -405 -1100 -405 q -325 0 -648 80 q -323 80 -657 249 l 0 -3340 Z" class="CA" /><path d="M 121744 422243 l 2660 0" class="C9" /><path d="M 103125 422243 l -2660 0" class="C9" /><path d="M 119084 422243 l -13300 0" class="C9" /><path d="M 119084 417371 l 0 9743" class="C9" /><path d="M 120414 420913 l -2660 2660" class="C1" /><path d="M 121782 422243 l -5396 0" class="C9" /><path d="M 105785 427114 l 0 -9743" class="C9" /><path d="M 104455 423573 l 2660 -2660" class="C1" /><path d="M 103087 422243 l 5396 0" class="C9" /><path d="M 106789 417051 l 846 0 l 0 1131 l -846 0 l 0 -1131 Z M 111127 412125 q -624 0 -940 684 q -316 684 -316 2056 q 0 1367 316 2051 q 316 684 940 684 q 628 0 942 -684 q 314 -684 314 -2051 q 0 -1372 -314 -2056 q -314 -684 -942 -684 m 0 -713 q 1007 0 1537 884 q 530 884 530 2568 q 0 1679 -530 2563 q -530 884 -1537 884 q -1007 0 -1537 -884 q -530 -884 -530 -2563 q 0 -1684 530 -2568 q 530 -884 1537 -884 Z M 114624 411533 l 3180 0 l 0 757 l -2441 0 l 0 1630 q 178 -67 354 -100 q 176 -33 354 -33 q 1002 0 1588 610 q 586 610 586 1652 q 0 1073 -601 1668 q -601 595 -1697 595 q -379 0 -768 -71 q -390 -71 -808 -214 l 0 -904 q 361 218 746 325 q 385 107 813 107 q 695 0 1100 -405 q 405 -405 405 -1100 q 0 -695 -405 -1100 q -405 -405 -1100 -405 q -325 0 -648 80 q -323 80 -657 249 l 0 -3340 Z" class="CA" /><path d="M 273360 422243 l -2660 0" class="C9" /><path d="M 291979 422243 l 2660 0" class="C9" /><path d="M 276020 422243 l 13300 0" class="C9" /><path d="M 276020 427114 l 0 -9743" class="C9" /><path d="M 274690 423573 l 2660 -2660" class="C1" /><path d="M 273322 422243 l 5396 0" class="C9" /><path d="M 289319 417371 l 0 9743" class="C9" /><path d="M 290649 420913 l -2660 2660" class="C1" /><path d="M 292017 422243 l -5396 0" class="C9" /><path d="M 277024 417051 l 846 0 l 0 1131 l -846 0 l 0 -1131 Z M 281362 412125 q -624 0 -940 684 q -316 684 -316 2056 q 0 1367 316 2051 q 316 684 940 684 q 628 0 942 -684 q 314 -684 314 -2051 q 0 -1372 -314 -2056 q -314 -684 -942 -684 m 0 -713 q 1007 0 1537 884 q 530 884 530 2568 q 0 1679 -530 2563 q -530 884 -1537 884 q -1007 0 -1537 -884 q -530 -884 -530 -2563 q 0 -1684 530 -2568 q 530 -884 1537 -884 Z M 284859 411533 l 3180 0 l 0 757 l -2441 0 l 0 1630 q 178 -67 354 -100 q 176 -33 354 -33 q 1002 0 1588 610 q 586 610 586 1652 q 0 1073 -601 1668 q -601 595 -1697 595 q -379 0 -768 -71 q -390 -71 -808 -214 l 0 -904 q 361 218 746 325 q 385 107 813 107 q 695 0 1100 -405 q 405 -405 405 -1100 q 0 -695 -405 -1100 q -405 -405 -1100 -405 q -325 0 -648 80 q -323 80 -657 249 l 0 -3340 Z" class="CA" /><path d="M 108445 400899 l 178215 0" class="C9" /><path d="M 105785 396028 l 0 9743" class="C9" /><path d="M 107115 399569 l -2660 2660" class="C1" /><path d="M 108483 400899 l -5396 0" class="C9" /><path d="M 289319 405770 l 0 -9743" class="C9" /><path d="M 287989 402229 l 2660 -2660" class="C1" /><path d="M 286621 400899 l 5396 0" class="C9" /><path d="M 191907 395708 l 846 0 l 0 1131 l -846 0 l 0 -1131 Z M 196343 393155 q -543 0 -862 414 q -318 414 -318 1136 q 0 717 318 1134 q 318 416 862 416 q 548 0 866 -416 q 318 -416 318 -1134 q 0 -722 -318 -1136 q -318 -414 -866 -414 m 1608 -2819 l 0 820 q -303 -160 -615 -245 q -312 -85 -615 -85 q -802 0 -1225 601 q -423 601 -481 1817 q 236 -387 592 -595 q 356 -207 784 -207 q 904 0 1428 608 q 523 608 523 1655 q 0 1024 -546 1644 q -546 619 -1454 619 q -1038 0 -1586 -884 q -548 -884 -548 -2563 q 0 -1577 673 -2514 q 673 -938 1808 -938 q 303 0 615 67 q 312 67 646 200 Z M 199755 396701 l 0 -820 q 307 160 619 245 q 312 85 615 85 q 802 0 1225 -599 q 423 -599 481 -1819 q -232 383 -588 588 q -356 205 -788 205 q -900 0 -1423 -604 q -523 -604 -523 -1650 q 0 -1024 546 -1644 q 546 -619 1450 -619 q 1038 0 1586 884 q 548 884 548 2568 q 0 1572 -670 2510 q -670 938 -1806 938 q -307 0 -619 -67 q -312 -67 -650 -200 m 1612 -2819 q 548 0 866 -414 q 318 -414 318 -1136 q 0 -717 -318 -1134 q -318 -416 -866 -416 q -543 0 -862 416 q -318 416 -318 1134 q 0 722 318 1136 q 318 414 862 414 Z" class="CA" /><path d="M 121744 16326 l 151616 0" class="C9" /><path d="M 119084 11455 l 0 9743" class="C9" /><path d="M 120414 14996 l -2660 2660" class="C1" /><path d="M 121782 16326 l -5396 0" class="C9" /><path d="M 276020 21197 l 0 -9743" class="C9" /><path d="M 274690 17656 l 2660 -2660" class="C1" /><path d="M 273322 16326 l 5396 0" class="C9" /><path d="M 191907 11135 l 846 0 l 0 1131 l -846 0 l 0 -1131 Z M 194521 5616 l 3180 0 l 0 757 l -2441 0 l 0 1630 q 178 -67 354 -100 q 176 -33 354 -33 q 1002 0 1588 610 q 586 610 586 1652 q 0 1073 -601 1668 q -601 595 -1697 595 q -379 0 -768 -71 q -390 -71 -808 -214 l 0 -904 q 361 218 746 325 q 385 107 813 107 q 695 0 1100 -405 q 405 -405 405 -1100 q 0 -695 -405 -1100 q -405 -405 -1100 -405 q -325 0 -648 80 q -323 80 -657 249 l 0 -3340 Z M 199755 12128 l 0 -820 q 307 160 619 245 q 312 85 615 85 q 802 0 1225 -599 q 423 -599 481 -1819 q -232 383 -588 588 q -356 205 -788 205 q -900 0 -1423 -604 q -523 -604 -523 -1650 q 0 -1024 546 -1644 q 546 -619 1450 -619 q 1038 0 1586 884 q 548 884 548 2568 q 0 1572 -670 2510 q -670 938 -1806 938 q -307 0 -619 -67 q -312 -67 -650 -200 m 1612 -2819 q 548 0 866 -414 q 318 -414 318 -1136 q 0 -717 -318 -1134 q -318 -416 -866 -416 q -543 0 -862 416 q -318 416 -318 1134 q 0 722 318 1136 q 318 414 862 414 Z" class="CA" /><path d="M 200212 38019 l 15960 0" class="C9" /><path d="M 197552 33147 l 0 9743" class="C9" /><path d="M 198882 36689 l -2660 2660" class="C1" /><path d="M 200250 38019 l -5396 0" class="C9" /><path d="M 218831 42890 l 0 -9743" class="C9" /><path d="M 217501 39349 l 2660 -2660" class="C1" /><path d="M 216133 38019 l 5396 0" class="C9" /><path d="M 202546 32827 l 846 0 l 0 1131 l -846 0 l 0 -1131 Z M 206884 27901 q -624 0 -940 684 q -316 684 -316 2056 q 0 1367 316 2051 q 316 684 940 684 q 628 0 942 -684 q 314 -684 314 -2051 q 0 -1372 -314 -2056 q -314 -684 -942 -684 m 0 -713 q 1007 0 1537 884 q 530 884 530 2568 q 0 1679 -530 2563 q -530 884 -1537 884 q -1007 0 -1537 -884 q -530 -884 -530 -2563 q 0 -1684 530 -2568 q 530 -884 1537 -884 Z M 212105 30801 q -579 0 -909 343 q -330 343 -330 944 q 0 601 330 944 q 330 343 909 343 q 579 0 911 -345 q 332 -345 332 -942 q 0 -601 -332 -944 q -332 -343 -911 -343 m -811 -383 q -521 -143 -811 -539 q -290 -396 -290 -967 q 0 -797 510 -1260 q 510 -463 1401 -463 q 895 0 1403 463 q 508 463 508 1260 q 0 570 -290 967 q -290 396 -806 539 q 583 151 911 592 q 327 441 327 1078 q 0 967 -532 1483 q -532 517 -1521 517 q -989 0 -1521 -517 q -532 -517 -532 -1483 q 0 -637 330 -1078 q 330 -441 913 -592 m -294 -1421 q 0 517 290 806 q 290 290 815 290 q 521 0 815 -290 q 294 -290 294 -806 q 0 -517 -294 -806 q -294 -290 -815 -290 q -526 0 -815 290 q -290 290 -290 806 Z" class="CA" /><path d="M 194892 38019 l -34579 0" class="C9" /><path d="M 197552 42890 l 0 -9743" class="C9" /><path d="M 196222 39349 l 2660 -2660" class="C1" /><path d="M 194854 38019 l 5396 0" class="C9" /><path d="M 157653 33147 l 0 9743" class="C9" /><path d="M 158983 36689 l -2660 2660" class="C1" /><path d="M 160351 38019 l -5396 0" class="C9" /><path d="M 171957 32827 l 846 0 l 0 1131 l -846 0 l 0 -1131 Z M 174705 33201 l 1323 0 l 0 -5073 l -1443 321 l 0 -820 l 1434 -321 l 811 0 l 0 5893 l 1323 0 l 0 757 l -3447 0 l 0 -757 Z M 179792 27309 l 3180 0 l 0 757 l -2441 0 l 0 1630 q 178 -67 354 -100 q 176 -33 354 -33 q 1002 0 1588 610 q 586 610 586 1652 q 0 1073 -601 1668 q -601 595 -1697 595 q -379 0 -768 -71 q -390 -71 -808 -214 l 0 -904 q 361 218 746 325 q 385 107 813 107 q 695 0 1100 -405 q 405 -405 405 -1100 q 0 -695 -405 -1100 q -405 -405 -1100 -405 q -325 0 -648 80 q -323 80 -657 249 l 0 -3340 Z" class="CA" /><path d="M 154993 38019 l -33249 0" class="C9" /><path d="M 157653 42890 l 0 -9743" class="C9" /><path d="M 156323 39349 l 2660 -2660" class="C1" /><path d="M 154955 38019 l 5396 0" class="C9" /><path d="M 119084 33147 l 0 9743" class="C9" /><path d="M 120414 36689 l -2660 2660" class="C1" /><path d="M 121782 38019 l -5396 0" class="C9" /><path d="M 132723 32827 l 846 0 l 0 1131 l -846 0 l 0 -1131 Z M 135471 33201 l 1323 0 l 0 -5073 l -1443 321 l 0 -820 l 1434 -321 l 811 0 l 0 5893 l 1323 0 l 0 757 l -3447 0 l 0 -757 Z M 140558 27309 l 3180 0 l 0 757 l -2441 0 l 0 1630 q 178 -67 354 -100 q 176 -33 354 -33 q 1002 0 1588 610 q 586 610 586 1652 q 0 1073 -601 1668 q -601 595 -1697 595 q -379 0 -768 -71 q -390 -71 -808 -214 l 0 -904 q 361 218 746 325 q 385 107 813 107 q 695 0 1100 -405 q 405 -405 405 -1100 q 0 -695 -405 -1100 q -405 -405 -1100 -405 q -325 0 -648 80 q -323 80 -657 249 l 0 -3340 Z" class="CA" /><path d="M 221491 38019 l 51868 0" class="C9" /><path d="M 218831 33147 l 0 9743" class="C9" /><path d="M 220161 36689 l -2660 2660" class="C1" /><path d="M 221529 38019 l -5396 0" class="C9" /><path d="M 276020 42890 l 0 -9743" class="C9" /><path d="M 274690 39349 l 2660 -2660" class="C1" /><path d="M 273322 38019 l 5396 0" class="C9" /><path d="M 241780 32884 l 846 0 l 0 1131 l -846 0 l 0 -1131 Z M 245085 33258 l 2824 0 l 0 757 l -3799 0 l 0 -757 q 459 -530 1256 -1423 q 797 -893 1002 -1151 q 387 -485 541 -822 q 154 -336 154 -661 q 0 -530 -334 -864 q -334 -334 -873 -334 q -379 0 -802 147 q -423 147 -904 445 l 0 -909 q 490 -218 915 -330 q 425 -111 777 -111 q 931 0 1483 517 q 552 517 552 1381 q 0 410 -138 777 q -138 367 -503 866 q -102 129 -639 746 q -537 617 -1512 1726 Z M 250305 33258 l 2824 0 l 0 757 l -3799 0 l 0 -757 q 459 -530 1256 -1423 q 797 -893 1002 -1151 q 387 -485 541 -822 q 154 -336 154 -661 q 0 -530 -334 -864 q -334 -334 -873 -334 q -379 0 -802 147 q -423 147 -904 445 l 0 -909 q 490 -218 915 -330 q 425 -111 777 -111 q 931 0 1483 517 q 552 517 552 1381 q 0 410 -138 777 q -138 367 -503 866 q -102 129 -639 746 q -537 617 -1512 1726 Z" class="CA" /><path d="M 165633 462453 l 63838 0" class="C9" /><path d="M 162973 457582 l 0 9743" class="C9" /><path d="M 164303 461123 l -2660 2660" class="C1" /><path d="M 165671 462453 l -5396 0" class="C9" /><path d="M 232131 467324 l 0 -9743" class="C9" /><path d="M 230801 463783 l 2660 -2660" class="C1" /><path d="M 229433 462453 l 5396 0" class="C9" /><path d="M 191907 457262 l 846 0 l 0 1131 l -846 0 l 0 -1131 Z M 195211 457636 l 2824 0 l 0 757 l -3799 0 l 0 -757 q 459 -530 1256 -1423 q 797 -893 1002 -1151 q 387 -485 541 -822 q 154 -336 154 -661 q 0 -530 -334 -864 q -334 -334 -873 -334 q -379 0 -802 147 q -423 147 -904 445 l 0 -909 q 490 -218 915 -330 q 425 -111 777 -111 q 931 0 1483 517 q 552 517 552 1381 q 0 410 -138 777 q -138 367 -503 866 q -102 129 -639 746 q -537 617 -1512 1726 Z M 201563 454709 q -543 0 -862 414 q -318 414 -318 1136 q 0 717 318 1134 q 318 416 862 416 q 548 0 866 -416 q 318 -416 318 -1134 q 0 -722 -318 -1136 q -318 -414 -866 -414 m 1608 -2819 l 0 820 q -303 -160 -615 -245 q -312 -85 -615 -85 q -802 0 -1225 601 q -423 601 -481 1817 q 236 -387 592 -595 q 356 -207 784 -207 q 904 0 1428 608 q 523 608 523 1655 q 0 1024 -546 1644 q -546 619 -1454 619 q -1038 0 -1586 -884 q -548 -884 -548 -2563 q 0 -1577 673 -2514 q 673 -938 1808 -938 q 303 0 615 67 q 312 67 646 200 Z" class="CA" /><path d="M 152333 441873 l 90437 0" class="C9" /><path d="M 149673 437001 l 0 9743" class="C9" /><path d="M 151003 440543 l -2660 2660" class="C1" /><path d="M 152371 441873 l -5396 0" class="C9" /><path d="M 245431 446744 l 0 -9743" class="C9" /><path d="M 244101 443203 l 2660 -2660" class="C1" /><path d="M 242733 441873 l 5396 0" class="C9" /><path d="M 191907 436679 l 846 0 l 0 1131 l -846 0 l 0 -1131 Z M 196966 434225 q 579 138 906 575 q 327 436 327 1078 q 0 984 -608 1523 q -608 539 -1730 539 q -379 0 -777 -82 q -399 -82 -826 -247 l 0 -869 q 339 218 739 330 q 401 111 837 111 q 762 0 1160 -334 q 399 -334 399 -971 q 0 -588 -370 -920 q -370 -332 -1033 -332 l -695 0 l 0 -739 l 726 0 q 597 0 915 -265 q 318 -265 318 -764 q 0 -512 -327 -786 q -327 -274 -938 -274 q -334 0 -713 80 q -379 80 -837 249 l 0 -802 q 459 -143 862 -214 q 403 -71 759 -71 q 922 0 1461 465 q 539 465 539 1258 q 0 552 -285 933 q -285 381 -811 528 Z M 201563 434127 q -543 0 -862 414 q -318 414 -318 1136 q 0 717 318 1134 q 318 416 862 416 q 548 0 866 -416 q 318 -416 318 -1134 q 0 -722 -318 -1136 q -318 -414 -866 -414 m 1608 -2819 l 0 820 q -303 -160 -615 -245 q -312 -85 -615 -85 q -802 0 -1225 601 q -423 601 -481 1817 q 236 -387 592 -595 q 356 -207 784 -207 q 904 0 1428 608 q 523 608 523 1655 q 0 1024 -546 1644 q -546 619 -1454 619 q -1038 0 -1586 -884 q -548 -884 -548 -2563 q 0 -1577 673 -2514 q 673 -938 1808 -938 q 303 0 615 67 q 312 67 646 200 Z" class="CA" /><path d="M 124685 124981 l 36289 0" class="C9" /><path d="M 122025 120109 l 0 9743" class="C9" /><path d="M 123355 123651 l -2660 2660" class="C1" /><path d="M 124723 124981 l -5396 0" class="C9" /><path d="M 163634 129852 l 0 -9743" class="C9" /><path d="M 162304 126311 l 2660 -2660" class="C1" /><path d="M 160936 124981 l 5396 0" class="C9" /><path d="M 137184 119789 l 846 0 l 0 1131 l -846 0 l 0 -1131 Z M 139932 120163 l 1323 0 l 0 -5073 l -1443 321 l 0 -820 l 1434 -321 l 811 0 l 0 5893 l 1323 0 l 0 757 l -3447 0 l 0 -757 Z M 146840 117237 q -543 0 -862 414 q -318 414 -318 1136 q 0 717 318 1134 q 318 416 862 416 q 548 0 866 -416 q 318 -416 318 -1134 q 0 -722 -318 -1136 q -318 -414 -866 -414 m 1608 -2819 l 0 820 q -303 -160 -615 -245 q -312 -85 -615 -85 q -802 0 -1225 601 q -423 601 -481 1817 q 236 -387 592 -595 q 356 -207 784 -207 q 904 0 1428 608 q 523 608 523 1655 q 0 1024 -546 1644 q -546 619 -1454 619 q -1038 0 -1586 -884 q -548 -884 -548 -2563 q 0 -1577 673 -2514 q 673 -938 1808 -938 q 303 0 615 67 q 312 67 646 200 Z" class="CA" /><path d="M 166294 124981 l 61211 0" class="C9" /><path d="M 163634 120109 l 0 9743" class="C9" /><path d="M 164964 123651 l -2660 2660" class="C1" /><path d="M 166332 124981 l -5396 0" class="C9" /><path d="M 230164 129852 l 0 -9743" class="C9" /><path d="M 228834 126311 l 2660 -2660" class="C1" /><path d="M 227466 124981 l 5396 0" class="C9" /><path d="M 191254 119789 l 846 0 l 0 1131 l -846 0 l 0 -1131 Z M 194559 120163 l 2824 0 l 0 757 l -3799 0 l 0 -757 q 459 -530 1256 -1423 q 797 -893 1002 -1151 q 387 -485 541 -822 q 154 -336 154 -661 q 0 -530 -334 -864 q -334 -334 -873 -334 q -379 0 -802 147 q -423 147 -904 445 l 0 -909 q 490 -218 915 -330 q 425 -111 777 -111 q 931 0 1483 517 q 552 517 552 1381 q 0 410 -138 777 q -138 367 -503 866 q -102 129 -639 746 q -537 617 -1512 1726 Z M 199088 114271 l 3180 0 l 0 757 l -2441 0 l 0 1630 q 178 -67 354 -100 q 176 -33 354 -33 q 1002 0 1588 610 q 586 610 586 1652 q 0 1073 -601 1668 q -601 595 -1697 595 q -379 0 -768 -71 q -390 -71 -808 -214 l 0 -904 q 361 218 746 325 q 385 107 813 107 q 695 0 1100 -405 q 405 -405 405 -1100 q 0 -695 -405 -1100 q -405 -405 -1100 -405 q -325 0 -648 80 q -323 80 -657 249 l 0 -3340 Z" class="CA" /><path d="M 232824 124981 l 37595 0" class="C9" /><path d="M 230164 120109 l 0 9743" class="C9" /><path d="M 231494 123651 l -2660 2660" class="C1" /><path d="M 232862 124981 l -5396 0" class="C9" /><path d="M 273079 129852 l 0 -9743" class="C9" /><path d="M 271749 126311 l 2660 -2660" class="C1" /><path d="M 270381 124981 l 5396 0" class="C9" /><path d="M 245976 119789 l 846 0 l 0 1131 l -846 0 l 0 -1131 Z M 248725 120163 l 1323 0 l 0 -5073 l -1443 321 l 0 -820 l 1434 -321 l 811 0 l 0 5893 l 1323 0 l 0 757 l -3447 0 l 0 -757 Z M 255633 117237 q -543 0 -862 414 q -318 414 -318 1136 q 0 717 318 1134 q 318 416 862 416 q 548 0 866 -416 q 318 -416 318 -1134 q 0 -722 -318 -1136 q -318 -414 -866 -414 m 1608 -2819 l 0 820 q -303 -160 -615 -245 q -312 -85 -615 -85 q -802 0 -1225 601 q -423 601 -481 1817 q 236 -387 592 -595 q 356 -207 784 -207 q 904 0 1428 608 q 523 608 523 1655 q 0 1024 -546 1644 q -546 619 -1454 619 q -1038 0 -1586 -884 q -548 -884 -548 -2563 q 0 -1577 673 -2514 q 673 -938 1808 -938 q 303 0 615 67 q 312 67 646 200 Z" class="CA" /><path d="M 121744 175591 l 74478 0" class="C9" /><path d="M 119084 170720 l 0 9743" class="C9" /><path d="M 120414 174261 l -2660 2660" class="C1" /><path d="M 121782 175591 l -5396 0" class="C9" /><path d="M 198882 180463 l 0 -9743" class="C9" /><path d="M 197552 176921 l 2660 -2660" class="C1" /><path d="M 196184 175591 l 5396 0" class="C9" /><path d="M 153338 170398 l 846 0 l 0 1131 l -846 0 l 0 -1131 Z M 158397 167943 q 579 138 906 575 q 327 436 327 1078 q 0 984 -608 1523 q -608 539 -1730 539 q -379 0 -777 -82 q -399 -82 -826 -247 l 0 -869 q 339 218 739 330 q 401 111 837 111 q 762 0 1160 -334 q 399 -334 399 -971 q 0 -588 -370 -920 q -370 -332 -1033 -332 l -695 0 l 0 -739 l 726 0 q 597 0 915 -265 q 318 -265 318 -764 q 0 -512 -327 -786 q -327 -274 -938 -274 q -334 0 -713 80 q -379 80 -837 249 l 0 -802 q 459 -143 862 -214 q 403 -71 759 -71 q 922 0 1461 465 q 539 465 539 1258 q 0 552 -285 933 q -285 381 -811 528 Z M 162896 165471 q -624 0 -940 684 q -316 684 -316 2056 q 0 1367 316 2051 q 316 684 940 684 q 628 0 942 -684 q 314 -684 314 -2051 q 0 -1372 -314 -2056 q -314 -684 -942 -684 m 0 -713 q 1007 0 1537 884 q 530 884 530 2568 q 0 1679 -530 2563 q -530 884 -1537 884 q -1007 0 -1537 -884 q -530 -884 -530 -2563 q 0 -1684 530 -2568 q 530 -884 1537 -884 Z" class="CA" /><path d="M 201542 175591 l 71818 0" class="C9" /><path d="M 198882 170720 l 0 9743" class="C9" /><path d="M 200212 174261 l -2660 2660" class="C1" /><path d="M 201580 175591 l -5396 0" class="C9" /><path d="M 276020 180463 l 0 -9743" class="C9" /><path d="M 274690 176921 l 2660 -2660" class="C1" /><path d="M 273322 175591 l 5396 0" class="C9" /><path d="M 231805 170400 l 846 0 l 0 1131 l -846 0 l 0 -1131 Z M 235110 170774 l 2824 0 l 0 757 l -3799 0 l 0 -757 q 459 -530 1256 -1423 q 797 -893 1002 -1151 q 387 -485 541 -822 q 154 -336 154 -661 q 0 -530 -334 -864 q -334 -334 -873 -334 q -379 0 -802 147 q -423 147 -904 445 l 0 -909 q 490 -218 915 -330 q 425 -111 777 -111 q 931 0 1483 517 q 552 517 552 1381 q 0 410 -138 777 q -138 367 -503 866 q -102 129 -639 746 q -537 617 -1512 1726 Z M 239653 171393 l 0 -820 q 307 160 619 245 q 312 85 615 85 q 802 0 1225 -599 q 423 -599 481 -1819 q -232 383 -588 588 q -356 205 -788 205 q -900 0 -1423 -604 q -523 -604 -523 -1650 q 0 -1024 546 -1644 q 546 -619 1450 -619 q 1038 0 1586 884 q 548 884 548 2568 q 0 1572 -670 2510 q -670 938 -1806 938 q -307 0 -619 -67 q -312 -67 -650 -200 m 1612 -2819 q 548 0 866 -414 q 318 -414 318 -1136 q 0 -717 -318 -1134 q -318 -416 -866 -416 q -543 0 -862 416 q -318 416 -318 1134 q 0 722 318 1136 q 318 414 862 414 Z" class="CA" /><path d="M 132645 215566 l 62522 0" class="C9" /><path d="M 129985 210695 l 0 9743" class="C9" /><path d="M 131315 214236 l -2660 2660" class="C1" /><path d="M 132683 215566 l -5396 0" class="C9" /><path d="M 197828 220438 l 0 -9743" class="C9" /><path d="M 196498 216896 l 2660 -2660" class="C1" /><path d="M 195130 215566 l 5396 0" class="C9" /><path d="M 158261 210375 l 846 0 l 0 1131 l -846 0 l 0 -1131 Z M 161566 210749 l 2824 0 l 0 757 l -3799 0 l 0 -757 q 459 -530 1256 -1423 q 797 -893 1002 -1151 q 387 -485 541 -822 q 154 -336 154 -661 q 0 -530 -334 -864 q -334 -334 -873 -334 q -379 0 -802 147 q -423 147 -904 445 l 0 -909 q 490 -218 915 -330 q 425 -111 777 -111 q 931 0 1483 517 q 552 517 552 1381 q 0 410 -138 777 q -138 367 -503 866 q -102 129 -639 746 q -537 617 -1512 1726 Z M 167917 207823 q -543 0 -862 414 q -318 414 -318 1136 q 0 717 318 1134 q 318 416 862 416 q 548 0 866 -416 q 318 -416 318 -1134 q 0 -722 -318 -1136 q -318 -414 -866 -414 m 1608 -2819 l 0 820 q -303 -160 -615 -245 q -312 -85 -615 -85 q -802 0 -1225 601 q -423 601 -481 1817 q 236 -387 592 -595 q 356 -207 784 -207 q 904 0 1428 608 q 523 608 523 1655 q 0 1024 -546 1644 q -546 619 -1454 619 q -1038 0 -1586 -884 q -548 -884 -548 -2563 q 0 -1577 673 -2514 q 673 -938 1808 -938 q 303 0 615 67 q 312 67 646 200 Z" class="CA" /><path d="M 200487 215566 l 61971 0" class="C9" /><path d="M 197828 210695 l 0 9743" class="C9" /><path d="M 199157 214236 l -2660 2660" class="C1" /><path d="M 200525 215566 l -5396 0" class="C9" /><path d="M 265119 220438 l 0 -9743" class="C9" /><path d="M 263789 216896 l 2660 -2660" class="C1" /><path d="M 262421 215566 l 5396 0" class="C9" /><path d="M 225828 210375 l 846 0 l 0 1131 l -846 0 l 0 -1131 Z M 229133 210749 l 2824 0 l 0 757 l -3799 0 l 0 -757 q 459 -530 1256 -1423 q 797 -893 1002 -1151 q 387 -485 541 -822 q 154 -336 154 -661 q 0 -530 -334 -864 q -334 -334 -873 -334 q -379 0 -802 147 q -423 147 -904 445 l 0 -909 q 490 -218 915 -330 q 425 -111 777 -111 q 931 0 1483 517 q 552 517 552 1381 q 0 410 -138 777 q -138 367 -503 866 q -102 129 -639 746 q -537 617 -1512 1726 Z M 233662 204856 l 3180 0 l 0 757 l -2441 0 l 0 1630 q 178 -67 354 -100 q 176 -33 354 -33 q 1002 0 1588 610 q 586 610 586 1652 q 0 1073 -601 1668 q -601 595 -1697 595 q -379 0 -768 -71 q -390 -71 -808 -214 l 0 -904 q 361 218 746 325 q 385 107 813 107 q 695 0 1100 -405 q 405 -405 405 -1100 q 0 -695 -405 -1100 q -405 -405 -1100 -405 q -325 0 -648 80 q -323 80 -657 249 l 0 -3340 Z" class="CA" /><path d="M 19496 991806 l 356113 -0" class="C1" /></g><g id="interactive-overlay">
<path d="M 249998.8 136843.5 L 249998.8 140870.1 L 210131.7 140870.1 L 210131.7 136843.5 Z" fill="#3b82f6" fill-opacity="0.6" stroke="#1d4ed8" stroke-width="1513" data-handle="1709" data-layer="BARRAS" style="cursor:pointer"/>
<path d="M 218741.2 162328.6 L 218741.2 158302.0 L 178874.1 158302.0 L 178874.1 162328.6 Z" fill="#3b82f6" fill-opacity="0.6" stroke="#1d4ed8" stroke-width="1513" data-handle="170A" data-layer="BARRAS" style="cursor:pointer"/>
<path d="M 217687.6 202611.1 L 217687.6 198584.5 L 177820.4 198584.5 L 177820.4 202611.1 Z" fill="#3b82f6" fill-opacity="0.6" stroke="#1d4ed8" stroke-width="1513" data-handle="170B" data-layer="BARRAS" style="cursor:pointer"/>
<path d="M 183521.0 136843.5 L 183521.0 140870.1 L 143653.9 140870.1 L 143653.9 136843.5 Z" fill="#3b82f6" fill-opacity="0.6" stroke="#1d4ed8" stroke-width="1513" data-handle="170C" data-layer="BARRAS" style="cursor:pointer"/>
<path d="M 183521.0 122079.3 L 183521.0 146238.8 L 143653.9 146238.8 L 143653.9 122079.3 Z" fill="#22c55e" fill-opacity="0.6" stroke="#15803d" stroke-width="1513" data-handle="170D" data-layer="SENSOR" style="cursor:pointer"/>
<path d="M 218741.2 167697.3 L 218741.2 143537.8 L 178874.1 143537.8 L 178874.1 167697.3 Z" fill="#22c55e" fill-opacity="0.6" stroke="#15803d" stroke-width="1513" data-handle="170E" data-layer="SENSOR" style="cursor:pointer"/>
<path d="M 249998.8 122079.3 L 249998.8 146238.8 L 210131.7 146238.8 L 210131.7 122079.3 Z" fill="#22c55e" fill-opacity="0.6" stroke="#15803d" stroke-width="1513" data-handle="170F" data-layer="SENSOR" style="cursor:pointer"/>
<path d="M 217687.6 207979.8 L 217687.6 183820.3 L 177820.4 183820.3 L 177820.4 207979.8 Z" fill="#22c55e" fill-opacity="0.6" stroke="#15803d" stroke-width="1513" data-handle="1710" data-layer="SENSOR" style="cursor:pointer"/>
</g>
</svg>